<svg xmlns="http://www.w3.org/2000/svg" width="26" height="21.031" viewBox="0 0 26 21.031">
  <defs>
    <style>
      .cls-1 {
        fill: #0188cc;
        fill-rule: evenodd;
      }
    </style>
  </defs>
  <path id="_0_copy_5" data-name="0 copy 5" class="cls-1" d="M1243.74,456h0.71v0.048h0.1V456.1c0.07,0.016.14,0.032,0.2,0.049,0.43,0.42.85,0.842,1.27,1.263l1.53,1.408,2.94,2.866,0.96,0.923,0.36,0.292c0.02,0.064.03,0.129,0.05,0.194h0.05a1.664,1.664,0,0,1,.05.68,2.25,2.25,0,0,0-.15.34c-0.09.065-.17,0.13-0.26,0.194v0.049h-0.1V464.4a1.559,1.559,0,0,1-.96.048V464.4h-0.1v-0.049h-0.1c-1.9-1.83-3.79-3.66-5.69-5.489-0.34-.324-0.68-0.648-1.01-0.972a1.534,1.534,0,0,1-.51-0.583,2.028,2.028,0,0,1,.05-0.825c0.12-.076.03-0.056,0.1-0.146,0.07-.049.14-0.1,0.2-0.146v-0.048h0.11V456.1A0.446,0.446,0,0,0,1243.74,456Zm21.82,0h0.71a0.987,0.987,0,0,1,.61,1.311v0.146a2.486,2.486,0,0,1-.56.535c-0.08.1-.16,0.194-0.25,0.291-0.34.308-.68,0.615-1.01,0.923-0.48.469-.95,0.939-1.43,1.409-0.89.842-1.79,1.684-2.69,2.525-0.3.292-.6,0.583-0.91,0.875l-0.3.34-0.21.049v0.048a1.93,1.93,0,0,1-.71.049,2.8,2.8,0,0,0-.35-0.146l-0.21-.243h-0.05v-0.1h-0.05v-0.1h-0.05v-0.146h-0.05a1.662,1.662,0,0,1,.05-0.68,2.235,2.235,0,0,1,.56-0.583l0.15-.194c0.31-.275.61-0.551,0.92-0.826l4.26-4.129c0.3-.275.61-0.551,0.91-0.826l0.36-.388h0.1V456.1A0.407,0.407,0,0,0,1265.56,456Zm-12.74,6.606h4.37a2.881,2.881,0,0,0-.31,1.36h0.05v0.243h0.06v0.146h0.05c0.03,0.1.06,0.194,0.1,0.291h0.05v0.1l0.15,0.1v0.1c0.03,0.016.07,0.032,0.1,0.048l0.15,0.195h0.11a1.257,1.257,0,0,0,.1.145c0.07,0.017.13,0.033,0.2,0.049v0.049c0.07,0.016.14,0.032,0.2,0.048v0.049a2.433,2.433,0,0,0,1.02.1v-0.049h0.15v-0.048h0.2v-0.049c0.11-.032.21-0.065,0.31-0.1v-0.049h0.1c0.73-.68,1.46-1.36,2.18-2.04l0.66-.68h4.52v0.049h0.15c0.08,0.119.06,0.029,0.15,0.1l0.21,0.243h0.05a0.463,0.463,0,0,0,.1.194V466.1c0,0.593.03,1.09-.46,1.214a2.728,2.728,0,0,1-1.47.146,6.4,6.4,0,0,1-.46,2.526c-0.03.21-.06,0.421-0.1,0.631-0.33.921-.48,1.994-0.81,2.915l-0.66,2.623h-0.05c-0.03.1-.07,0.194-0.1,0.291h-0.05a1.4,1.4,0,0,0-.05.195,0.945,0.945,0,0,0-.1.048v0.1c-0.06.017-.11,0.033-0.16,0.049v0.049a0.846,0.846,0,0,0-.15.1H1247.8a3.871,3.871,0,0,1-1.12-.049,0.54,0.54,0,0,1-.35-0.34,0.945,0.945,0,0,1-.1-0.048v-0.1c-0.04-.016-0.07-0.032-0.11-0.048a1.4,1.4,0,0,0-.05-0.195,0.945,0.945,0,0,0-.1-0.048c-0.12-.5-0.24-1-0.35-1.506-0.32-.833-0.46-1.826-0.77-2.672v-0.194h-0.05v-0.194h-0.05V471.4h-0.05V471.2c-0.12-.355-0.23-0.808-0.35-1.166V469.8h-0.05V469.6c-0.08-.229-0.18-0.548-0.26-0.777-0.01-.13-0.03-0.259-0.05-0.389h-0.05v-0.971a3.506,3.506,0,0,1-1.57-.146V467.27l-0.21-.146v-0.1h-0.05a0.361,0.361,0,0,0-.1-0.146v-2.72a2.668,2.668,0,0,1,.1-1.166c0.05-.033.11-0.065,0.16-0.1a1.266,1.266,0,0,1,.1-0.146h0.1c0.02-.032.03-0.065,0.05-0.1a3.67,3.67,0,0,1,1.22-.049h3.45a1.688,1.688,0,0,0,.3.292l0.66,0.631,1.17,1.166a0.779,0.779,0,0,1,.1.049,3.245,3.245,0,0,0,1.02.777h0.2v0.048h0.2v0.049a2.29,2.29,0,0,0,.97-0.1v-0.049l0.2-.048v-0.049c0.07-.016.14-0.032,0.2-0.049,0.04-.048.07-0.1,0.11-0.145h0.1a0.426,0.426,0,0,1,.05-0.1c0.07-.049.13-0.1,0.2-0.146v-0.1l0.15-.1c0.04-.1.07-0.2,0.11-0.292h0.05v-0.1h0.05a2.11,2.11,0,0,0,.1-0.923h-0.05c-0.02-.113-0.04-0.227-0.05-0.34A1.625,1.625,0,0,1,1252.82,462.606Zm-1.98,4.858v0.048c-0.08.017-.16,0.033-0.25,0.049v0.049h-0.1v0.048c-0.09.065-.17,0.13-0.25,0.194v0.1c-0.04.016-.07,0.032-0.11,0.048-0.01.211-.03,0.421-0.05,0.632v4.614a2.8,2.8,0,0,0,.16,1.409c0.03,0.016.06,0.032,0.1,0.049a0.919,0.919,0,0,0,.91.291v-0.049l0.25-.048c0.09-.1.17-0.194,0.26-0.291h0.05v-0.1h0.05v-0.1h0.05v-0.146h0.05V469.8a5.07,5.07,0,0,0-.1-1.748A0.992,0.992,0,0,0,1250.84,467.464Zm3.51,0.243a0.389,0.389,0,0,1-.11.194h-0.05l-0.15.437V473c0,0.8-.09,1.728.56,1.9a1.012,1.012,0,0,0,.66.1v-0.049l0.25-.048c0.09-.1.17-0.194,0.26-0.291h0.05c0.02-.082.03-0.162,0.05-0.243h0.05a8.379,8.379,0,0,0,.05-1.9v-4.129l-0.15-.437h-0.05a0.379,0.379,0,0,1-.1-0.194,1.286,1.286,0,0,0-.82-0.243C1254.68,467.517,1254.53,467.66,1254.35,467.707Zm4.51-.243v0.048l-0.3.049c-0.02.032-.03,0.065-0.05,0.1h-0.1v0.049c-0.05.032-.1,0.065-0.16,0.1v0.1c-0.03.016-.06,0.032-0.1,0.049a6.049,6.049,0,0,0-.1,1.943v4.371h0.05v0.146h0.05a1.4,1.4,0,0,1,.05.195c0.09,0.064.17,0.129,0.26,0.194a0.448,0.448,0,0,0,.05.1,0.523,0.523,0,0,1,.2.1,6,6,0,0,0,.71-0.049V474.9l0.15-.049,0.06-.1,0.15-.1c0.03-.1.06-0.194,0.1-0.291h0.05V469.8a8.029,8.029,0,0,0-.05-1.8,0.945,0.945,0,0,1-.1-0.048A0.926,0.926,0,0,0,1258.86,467.464Z" transform="translate(-1242 -456)"/>
</svg>
