<?xml version="1.0" encoding="UTF-8" standalone="no"?>
<!DOCTYPE svg  PUBLIC '-//W3C//DTD SVG 1.1//EN'  'http://www.w3.org/Graphics/SVG/1.1/DTD/svg11.dtd'>
<svg xmlns="http://www.w3.org/2000/svg">
<defs>
<font id="PTSans-NarrowBold" horiz-adv-x="444">
<font-face underline-position="-50" font-weight="700" descent="-200" panose-1="2 11 7 6 2 2 3 2 2 4" units-per-em="1000" unicode-range="U+0020-F6D4" font-stretch="condensed" bbox="-209 -230 1011 874" x-height="500" underline-thickness="50" font-family="PTSans" ascent="800" cap-height="700"/>
<missing-glyph horiz-adv-x="1000"/>
<glyph glyph-name=".notdef" horiz-adv-x="1000"/>
<glyph glyph-name=".null" horiz-adv-x="0"/>
<glyph glyph-name="nonmarkingreturn" horiz-adv-x="1000"/>
<glyph glyph-name="space" horiz-adv-x="205" unicode=" "/>
<glyph glyph-name="exclam" horiz-adv-x="251" unicode="!" d="M72 65q0 37 19.5 56t51.5 19q35 0 54 -19t19 -56q0 -36 -19.5 -56t-53.5 -20q-33 0 -52 20t-19 56zM83 700h123v-329l-24 -163h-75l-24 163v329z"/>
<glyph glyph-name="quotedbl" horiz-adv-x="351" unicode='&quot;' d="M207 700h103l-31 -216h-72v216zM73 700h103l-31 -216h-72v216z"/>
<glyph glyph-name="numbersign" horiz-adv-x="478" unicode="#" d="M192 300h69l21 110h-69zM242 205h-69l-30 -154h-97l30 154h-61l21 95h58l22 110h-60l21 95h57l29 144h98l-29 -144h69l29 144h97l-29 -144h59l-22 -95h-55l-22 -110h58l-22 -95h-54l-30 -154h-98z"/>
<glyph glyph-name="dollar" horiz-adv-x="478" unicode="$" d="M236 605q-36 -4 -49.5 -25.5t-13.5 -46.5q0 -31 18 -52.5t45 -40.5v165zM248 96q32 6 48 29.5t16 57.5t-18 56.5t-46 41.5v-185zM194 -13q-48 2 -82 11.5t-54 22.5l33 107q15 -11 41.5 -20t61.5 -13v220q-26 15 -51 33t-44.5 42.5t-32 57t-12.5 77.5q0 78 38 123.5 t102 59.5v92h95v-88q35 -2 62 -9.5t51 -19.5l-33 -104q-15 8 -35 14.5t-45 9.5v-197q26 -16 51.5 -34.5t46 -43.5t33.5 -57t13 -75q0 -86 -39 -136t-105 -66v-94h-95v87z"/>
<glyph glyph-name="percent" horiz-adv-x="720" unicode="%" d="M147 542q0 -48 10.5 -67.5t33.5 -19.5q12 0 20.5 3.5t14 13.5t8 27t2.5 43q0 51 -11 69t-34 18t-33.5 -18t-10.5 -69zM41 542q0 46 11 78t31 52.5t47.5 30t60.5 9.5t60.5 -8.5t47.5 -28.5t31.5 -52.5t11.5 -80.5t-11.5 -80.5t-31.5 -52.5t-47.5 -28.5t-60.5 -8.5 t-60.5 8.5t-47.5 28.5t-31 52.5t-11 80.5zM495 171q0 -48 10.5 -67.5t33.5 -19.5q12 0 20.5 3.5t14 13.5t8 27t2.5 43q0 51 -11 69t-34 18t-33.5 -18t-10.5 -69zM389 171q0 46 11 78t31 52.5t47.5 30t60.5 9.5t60.5 -8.5t47.5 -28.5t31.5 -52.5t11.5 -80.5t-11.5 -80.5 t-31.5 -52.5t-47.5 -28.5t-60.5 -8.5t-60.5 8.5t-47.5 28.5t-31 52.5t-11 80.5zM575 714l70 -58l-494 -670l-71 59z"/>
<glyph glyph-name="ampersand" horiz-adv-x="671" unicode="&amp;" d="M280 566q0 -44 29 -90q29 25 42 47.5t13 42.5q0 23 -10.5 37.5t-32.5 14.5q-20 0 -30.5 -14.5t-10.5 -37.5zM392 148q-40 53 -72.5 103.5t-55.5 98.5q-35 -35 -55 -68.5t-20 -78.5q0 -51 28.5 -79.5t74.5 -28.5q32 0 59 16.5t41 36.5zM70 194q0 38 10.5 72t29.5 64 t44.5 55.5t54.5 45.5q-21 33 -34.5 68t-13.5 73q0 25 8 50.5t26 46t46.5 33t69.5 12.5q39 0 67 -10.5t45.5 -28t25.5 -40.5t8 -48q0 -42 -25 -86.5t-82 -86.5q25 -47 53.5 -94.5t63.5 -91.5q19 25 32 59.5t24 71.5l89 -41q-5 -18 -14 -41t-20 -45.5t-22 -43t-21 -34.5 q25 -29 46.5 -46.5t42.5 -30.5l-61 -91q-27 13 -52.5 34t-49.5 49q-30 -34 -73.5 -58.5t-108.5 -24.5q-45 0 -83.5 13.5t-66.5 40t-43.5 65.5t-15.5 89z"/>
<glyph glyph-name="quotesingle" horiz-adv-x="217" unicode="&apos;" d="M73 700h103l-31 -216h-72v216z"/>
<glyph glyph-name="parenleft" horiz-adv-x="278" unicode="(" d="M186 -220q-38 48 -64 105.5t-42.5 118t-24 122t-7.5 117.5q0 55 7.5 116t24 122.5t43 120.5t65.5 110l80 -45q-27 -47 -46 -99.5t-31.5 -107.5t-18 -110.5t-5.5 -106.5q0 -48 6 -103t18 -110.5t31.5 -107.5t46.5 -94z"/>
<glyph glyph-name="parenright" horiz-adv-x="278" unicode=")" d="M92 712q38 -48 64 -105.5t42.5 -118t24 -122t7.5 -117.5q0 -55 -7.5 -116t-24 -122.5t-43 -120.5t-65.5 -110l-81 46q30 50 49.5 103t31 107t16.5 108t5 105q0 48 -6 103.5t-19 111t-32 107.5t-45 95z"/>
<glyph glyph-name="asterisk" horiz-adv-x="323" unicode="*" d="M123 724l24 -43l13 -56l11 52l26 47l59 -34l-27 -49l-42 -40l55 15h52v-70h-50l-52 16l45 -45l22 -40l-60 -35l-24 43l-16 61l-10 -55l-26 -47l-60 35l27 48l39 34l-47 -15h-53v71h54l50 -16l-45 41l-25 47z"/>
<glyph glyph-name="plus" d="M38 393h129v146h110v-146h129v-106h-129v-147h-110v147h-129v106z" unicode="+"/>
<glyph glyph-name="comma" horiz-adv-x="216" unicode="," d="M33 65q0 34 20 53.5t50 19.5q38 0 58.5 -27t20.5 -75q0 -44 -12.5 -76t-30.5 -53.5t-38.5 -34.5t-35.5 -19l-37 48q23 12 41 38.5t20 53.5h-2q-21 1 -37 17q-18 18 -17 55z"/>
<glyph glyph-name="hyphen" horiz-adv-x="298" unicode="-" d="M45 344h208v-114h-208v114z"/>
<glyph glyph-name="period" horiz-adv-x="212" unicode="." d="M34 65q0 37 19.5 56t51.5 19q35 0 54 -19t19 -56q0 -36 -19.5 -56t-53.5 -20q-33 0 -52 20t-19 56z"/>
<glyph glyph-name="slash" horiz-adv-x="349" unicode="/" d="M276 712l91 -35l-293 -817l-92 35z"/>
<glyph glyph-name="zero" horiz-adv-x="478" unicode="0" d="M154 351q0 -134 20 -196.5t66 -62.5q22 0 38.5 14t26.5 45t15 80t5 120q0 133 -19.5 195t-66.5 62q-23 0 -39 -14t-26 -45t-15 -80t-5 -118zM35 351q0 98 13.5 167t39.5 112.5t64 63.5t87 20q52 0 90.5 -20t64 -63.5t38 -112.5t12.5 -167q0 -99 -14 -168.5t-40 -113 t-64 -63.5t-87 -20q-52 0 -90.5 20.5t-63.5 65t-37.5 113.5t-12.5 166z"/>
<glyph glyph-name="one" horiz-adv-x="478" unicode="1" d="M87 106h114v393l13 68l-41 -59l-66 -51l-55 67l193 188h70v-606h112v-106h-340v106z"/>
<glyph glyph-name="two" horiz-adv-x="478" unicode="2" d="M402 532q0 -52 -15 -106.5t-38.5 -106.5t-51.5 -99t-55 -83l-44 -41v-5l60 15h155v-106h-351v69q21 26 45.5 59.5t49 71t47.5 78t40.5 81t27 76.5t9.5 65v11v8q0 37 -19 61.5t-62 24.5q-25 0 -51 -11.5t-44 -27.5l-46 87q33 28 75 44.5t99 16.5q36 0 67 -11.5t53.5 -34.5 t35.5 -57t13 -79z"/>
<glyph glyph-name="three" horiz-adv-x="478" unicode="3" d="M200 92q49 0 74.5 33t25.5 84q0 113 -112 113h-59v68l99 168l48 45l-66 -9h-137v106h320v-71l-116 -189l-37 -27v-5l37 6q28 -2 54 -15t45.5 -37t31 -60t11.5 -85q0 -59 -16.5 -102t-45 -72t-67 -43t-82.5 -14q-37 0 -78 8t-65 23l32 100q21 -11 46 -18t57 -7z"/>
<glyph glyph-name="four" horiz-adv-x="478" unicode="4" d="M264 452l11 90h-4l-30 -81l-79 -134l-40 -38l51 8h91v155zM465 195h-88v-195h-113v195h-247v74l256 436h104v-408h88v-102z"/>
<glyph glyph-name="five" horiz-adv-x="478" unicode="5" d="M183 95q54 0 82 35t28 90q0 63 -33 91t-95 28l-65 -4v365h291v-116h-189v-143l33 4q81 -3 129 -60t48 -160q0 -59 -17 -104t-46.5 -75t-70.5 -45t-89 -15q-36 0 -72.5 7.5t-59.5 19.5l31 101q37 -19 95 -19z"/>
<glyph glyph-name="six" horiz-adv-x="478" unicode="6" d="M323 210q0 61 -20.5 88.5t-62.5 27.5q-30 0 -51 -17t-30 -40q-1 -11 -1 -22.5v-22.5q0 -26 5 -49.5t15.5 -42t26 -29.5t37.5 -11q36 0 58.5 30.5t22.5 87.5zM438 217q0 -53 -14.5 -96t-40 -73t-61 -46t-77.5 -16q-44 0 -81 15.5t-64 47.5t-42 82.5t-15 119.5 q0 102 24.5 182.5t66 138.5t95 93.5t112.5 48.5l30 -97q-39 -10 -73 -32t-61 -53t-45.5 -70.5t-27.5 -83.5q17 24 43 39t64 15q36 0 66.5 -13t53 -40t35 -67.5t12.5 -94.5z"/>
<glyph glyph-name="seven" horiz-adv-x="478" unicode="7" d="M88 0l189 547l36 49l-50 -10h-211v114h379v-38l-227 -662h-116z"/>
<glyph glyph-name="eight" horiz-adv-x="478" unicode="8" d="M179 527q0 -23 6.5 -40.5t17.5 -31.5t25.5 -25.5t30.5 -21.5q23 27 34.5 53.5t11.5 60.5q0 41 -18.5 63.5t-44.5 22.5q-33 0 -48 -24.5t-15 -56.5zM313 179q0 25 -8 45t-21.5 35.5t-30 28.5t-32.5 25q-35 -27 -48.5 -58.5t-13.5 -63.5q0 -42 21 -70.5t59 -28.5 q34 0 54 21.5t20 65.5zM50 168q0 36 8 64.5t22 51t31.5 40.5t37.5 33q-39 31 -61.5 71.5t-22.5 100.5q0 85 47.5 135t130.5 50q76 0 123 -44t47 -125q0 -59 -22 -100t-63 -76q50 -35 75 -79t25 -111q0 -45 -14.5 -81t-40 -61t-60.5 -38t-76 -13q-42 0 -76 12.5t-59 35.5 t-38.5 57t-13.5 77z"/>
<glyph glyph-name="nine" horiz-adv-x="478" unicode="9" d="M152 488q0 -57 24.5 -86.5t62.5 -29.5q29 0 49 10.5t31 29.5q2 11 2.5 23t0.5 23q0 31 -5 58.5t-16 47.5t-28 32t-41 12q-38 0 -59 -32t-21 -88zM37 481q0 106 50.5 169.5t145.5 63.5q93 0 148.5 -66t55.5 -198q0 -116 -25 -200.5t-67 -140.5t-97 -86t-114 -37l-28 100 q90 18 140 78.5t64 146.5q-19 -25 -41 -35t-57 -10q-31 0 -62.5 12.5t-56.5 39t-40.5 67t-15.5 96.5z"/>
<glyph glyph-name="colon" horiz-adv-x="251" unicode=":" d="M77 427q0 37 19.5 56t51.5 19q35 0 54 -19t19 -56q0 -36 -19.5 -56t-53.5 -20q-33 0 -52 20t-19 56zM77 65q0 37 19.5 56t51.5 19q35 0 54 -19t19 -56q0 -36 -19.5 -56t-53.5 -20q-33 0 -52 20t-19 56z"/>
<glyph glyph-name="semicolon" horiz-adv-x="251" unicode=";" d="M72 65q0 34 20 53.5t50 19.5q38 0 58.5 -27t20.5 -75q0 -44 -12.5 -76t-30.5 -53.5t-38.5 -34.5t-35.5 -19l-37 48q23 12 41 38.5t20 53.5h-2q-21 1 -37 17q-18 18 -17 55zM73 427q0 37 19.5 56t51.5 19q35 0 54 -19t19 -56q0 -36 -19.5 -56t-53.5 -20q-33 0 -52 20 t-19 56z"/>
<glyph glyph-name="less" d="M35 285v70l311 222l60 -81l-186 -139l-75 -35l74 -31l191 -137l-60 -81z" unicode="&lt;"/>
<glyph glyph-name="equal" d="M38 489h368v-106h-368v106zM38 298h368v-106h-368v106z" unicode="="/>
<glyph glyph-name="greater" d="M409 365v-70l-309 -220l-62 80l187 138l74 36l-74 30l-191 138l62 79z" unicode="&gt;"/>
<glyph glyph-name="question" horiz-adv-x="382" unicode="?" d="M97 65q0 37 19.5 56t51.5 19q35 0 54 -19t19 -56q0 -36 -19.5 -56t-53.5 -20q-33 0 -52 20t-19 56zM113 208q-1 15 -1 29q0 28 6.5 57t20.5 55.5t32 47.5t34 41.5t26.5 43t10.5 50.5q0 35 -16.5 55.5t-54.5 20.5q-26 0 -55 -10.5t-50 -28.5l-47 90q31 23 73 39t102 16 q80 0 125.5 -43.5t45.5 -122.5q0 -47 -11 -79.5t-28 -57t-36.5 -44.5t-36 -42t-28 -50t-11.5 -67h-101z"/>
<glyph glyph-name="at" horiz-adv-x="881" unicode="@" d="M505 369q-18 21 -47 21q-23 0 -42 -16.5t-33 -44t-22 -63t-8 -73.5q0 -35 11.5 -54t35.5 -19q22 0 44.5 24.5t37.5 54.5zM558 484h66l-39 -273q-3 -21 -3 -37q0 -54 32 -54q20 0 39.5 12t35 37t25 64t9.5 93q0 69 -19.5 118.5t-54.5 81t-83 46.5t-105 15 q-64 0 -119.5 -25.5t-96 -71.5t-64 -110t-23.5 -142q0 -153 76 -233t213 -80q26 0 57.5 7t56.5 20l29 -87q-32 -17 -70 -25.5t-86 -8.5q-79 0 -147.5 24t-119.5 73.5t-80.5 126t-29.5 181.5t33.5 188t89.5 140t129 87t153 30q76 0 142.5 -22.5t115 -67t76.5 -111t28 -154.5 q0 -66 -19.5 -122.5t-52.5 -97t-77.5 -63.5t-94.5 -23q-41 0 -68.5 20.5t-27.5 66.5v7h-3q-23 -38 -55.5 -66t-79.5 -28q-43 0 -73 38t-30 106q0 67 16.5 126t44.5 103.5t65 70.5t79 26q28 0 48 -10t37 -27z"/>
<glyph glyph-name="A" horiz-adv-x="501" unicode="A" d="M190 262h116l-40 163l-16 110h-4l-17 -111zM328 158h-165l-41 -158h-125l203 705h99l204 -705h-132z"/>
<glyph glyph-name="B" horiz-adv-x="490" unicode="B" d="M200 403q11 0 25.5 1.5t23.5 3.5q29 11 49.5 36t20.5 65q0 26 -7 44t-19 28.5t-28.5 15t-35.5 4.5q-41 0 -58 -4v-194h29zM234 99q42 0 69 27t27 79q0 33 -9 52.5t-24 30t-34.5 13.5t-40.5 3h-51v-199q8 -3 27.5 -4.5t35.5 -1.5zM445 538q0 -26 -5.5 -51.5t-17.5 -48 t-31.5 -39.5t-46.5 -26v-6q24 -6 45.5 -18t37.5 -32.5t25.5 -50t9.5 -69.5q0 -54 -18.5 -93.5t-50 -64.5t-73.5 -37t-89 -12h-36t-47.5 1.5t-52.5 4.5t-50 9v690q33 6 81.5 10.5t96.5 4.5q44 0 84.5 -7t71 -26t48.5 -52.5t18 -86.5z"/>
<glyph glyph-name="C" horiz-adv-x="457" unicode="C" d="M442 28q-26 -22 -69.5 -32t-86.5 -10q-54 0 -100.5 18.5t-81.5 61.5t-55 113t-20 172q0 106 22.5 176t59 111.5t83.5 58.5t95 17q49 0 85.5 -8t59.5 -18l-25 -111q-19 10 -44.5 15.5t-60.5 5.5q-69 0 -106 -60t-37 -188q0 -55 8.5 -100.5t27 -78.5t47 -51t68.5 -18 q35 0 60 9.5t45 22.5z"/>
<glyph glyph-name="D" horiz-adv-x="535" unicode="D" d="M229 594q-16 0 -32.5 -0.5t-25.5 -2.5v-482q3 -1 10.5 -1.5t16 -1t16 -1t10.5 -0.5q45 0 74 21t45.5 56t23 80.5t6.5 95.5q0 46 -5.5 89t-21 75.5t-44 52t-73.5 19.5zM45 700q18 3 40.5 4.5t46 3t45.5 2t39 0.5q83 0 138.5 -25.5t89 -72t47.5 -111.5t14 -145 q0 -73 -13.5 -139.5t-47.5 -117t-92 -80.5t-146 -30q-13 0 -35 1t-46 2.5t-46 3t-34 3.5v701z"/>
<glyph glyph-name="E" horiz-adv-x="430" unicode="E" d="M45 700h350v-116h-224v-172h203v-116h-203v-180h228v-116h-354v700z"/>
<glyph glyph-name="F" horiz-adv-x="419" unicode="F" d="M45 700h350v-116h-224v-182h206v-116h-206v-286h-126v700z"/>
<glyph glyph-name="G" horiz-adv-x="502" unicode="G" d="M257 362h216v-310q-37 -35 -86.5 -50.5t-98.5 -15.5q-59 0 -107 21t-81.5 65.5t-52 113t-18.5 164.5q0 100 22 169t58.5 112.5t85 63t102.5 19.5q48 0 87.5 -8.5t65.5 -19.5l-26 -109q-20 9 -46.5 15t-64.5 6q-35 0 -63.5 -14t-48 -44t-30 -77.5t-10.5 -113.5 q0 -127 38.5 -187t101.5 -60q20 0 38.5 6t32.5 19v143l-115 16v76z"/>
<glyph glyph-name="H" horiz-adv-x="533" unicode="H" d="M362 296h-191v-296h-126v700h126v-288h191v288h126v-700h-126v296z"/>
<glyph glyph-name="I" horiz-adv-x="238" unicode="I" d="M56 700h126v-700h-126v700z"/>
<glyph glyph-name="J" horiz-adv-x="289" unicode="J" d="M113 700h126v-509q0 -46 -7.5 -83.5t-24.5 -64t-45 -41t-70 -14.5q-29 0 -57.5 6t-51.5 17l29 106q21 -13 49 -13q35 0 43.5 29.5t8.5 84.5v482z"/>
<glyph glyph-name="K" horiz-adv-x="519" unicode="K" d="M198 300h-27v-300h-126v700h126v-311l25 12l147 299h142l-160 -295l-47 -37l48 -38l185 -330h-154z"/>
<glyph glyph-name="L" horiz-adv-x="424" unicode="L" d="M417 0h-372v700h126v-584h246v-116z"/>
<glyph glyph-name="M" horiz-adv-x="664" unicode="M" d="M493 361l14 134h-5l-37 -120l-114 -246h-42l-121 247l-37 121h-6l19 -135v-362h-119v700h121l146 -303l24 -87h4l23 89l137 301h119v-700h-126v361z"/>
<glyph glyph-name="N" horiz-adv-x="540" unicode="N" d="M199 344l-46 123h-5l16 -121v-346h-119v705h97l201 -352l43 -121h6l-16 119v349h119v-705h-97z"/>
<glyph glyph-name="O" horiz-adv-x="553" unicode="O" d="M161 350q0 -53 6 -98.5t20 -78.5t35.5 -52t53.5 -19q58 0 87 59t29 189q0 51 -6 96.5t-19.5 79t-35.5 53t-55 19.5q-115 0 -115 -248zM29 350q0 178 61 271t186 93q65 0 112 -25.5t77 -73t44.5 -115t14.5 -150.5q0 -178 -62.5 -271t-185.5 -93q-66 0 -112.5 25.5 t-76.5 73t-44 115t-14 150.5z"/>
<glyph glyph-name="P" horiz-adv-x="477" unicode="P" d="M171 354q6 -2 22.5 -3.5t22.5 -1.5q22 0 42 6t35.5 20.5t24.5 40t9 64.5q0 33 -8.5 56t-23 36.5t-33.5 19.5t-40 6q-31 0 -51 -5v-239zM45 693q36 8 79 12.5t86 4.5q46 0 90.5 -8.5t79.5 -33.5t57 -70.5t22 -118.5q0 -66 -18.5 -112t-49.5 -75t-71.5 -42t-83.5 -13h-13 t-19 0.5t-19.5 1.5t-13.5 2v-241h-126v693z"/>
<glyph glyph-name="Q" horiz-adv-x="553" unicode="Q" d="M161 350q0 -53 6 -98.5t20 -78.5t35.5 -52t53.5 -19q58 0 87 59t29 189q0 51 -6 96.5t-19.5 79t-35.5 53t-55 19.5q-115 0 -115 -248zM29 350q0 178 61 271t186 93q65 0 112 -25.5t77 -73t44.5 -115t14.5 -150.5q0 -178 -62.5 -271t-185.5 -93q-66 0 -112.5 25.5 t-76.5 73t-44 115t-14 150.5zM579 -196q-20 -7 -40.5 -10t-40.5 -3q-42 0 -81.5 10t-76.5 22.5t-71.5 22.5t-65.5 10q-10 0 -19.5 -1t-18.5 -4v112q24 6 48 6q34 0 68.5 -10t70 -21.5t73 -21.5t78.5 -10q18 0 37 2.5t39 8.5v-113z"/>
<glyph glyph-name="R" horiz-adv-x="503" unicode="R" d="M171 375h43q47 0 71 28.5t24 88.5q0 45 -20 73.5t-63 28.5q-16 0 -31 -1t-24 -4v-214zM45 693q41 9 88 13t81 4q43 0 84 -8.5t72.5 -31t51 -61t19.5 -97.5q0 -85 -31.5 -138.5t-86.5 -73.5l40 -32l129 -268h-145l-122 276l-54 13v-289h-126v693z"/>
<glyph glyph-name="S" horiz-adv-x="439" unicode="S" d="M290 180q0 32 -19 54.5t-47.5 42.5t-62 41t-62 49t-47.5 66t-19 93q0 51 15.5 86.5t42.5 58t64 33t79 10.5q51 0 95 -10t73 -27l-39 -111q-17 12 -50.5 22t-72.5 10t-60 -16t-21 -47q0 -28 19 -49.5t47.5 -41.5t62 -41.5t62 -50t47.5 -67t19 -91.5t-15.5 -92t-44 -64.5 t-68.5 -38.5t-89 -13q-62 0 -108.5 12t-71.5 27l41 113q20 -12 55 -24t75 -12q100 0 100 78z"/>
<glyph glyph-name="T" horiz-adv-x="474" unicode="T" d="M466 584h-166v-584h-126v584h-166v116h458v-116z"/>
<glyph glyph-name="U" horiz-adv-x="515" unicode="U" d="M354 700h119v-454q0 -136 -55.5 -197t-153.5 -61q-115 0 -168.5 59.5t-53.5 181.5v471h126v-449q0 -82 22 -114.5t73 -32.5q49 0 70 34.5t21 112.5v449z"/>
<glyph glyph-name="V" horiz-adv-x="503" unicode="V" d="M243 289l14 -120h4l16 121l102 410h133l-212 -705h-96l-214 705h149z"/>
<glyph glyph-name="W" horiz-adv-x="717" unicode="W" d="M205 315l10 -126h4l11 128l94 383h88l91 -385l11 -126h4l11 128l62 383h128l-157 -705h-89l-98 386l-13 109h-5l-12 -110l-98 -385h-93l-156 705h139z"/>
<glyph glyph-name="X" horiz-adv-x="528" unicode="X" d="M177 356l-155 344h152l81 -200l19 -76l18 76l85 200h136l-160 -337l168 -363h-147l-94 215l-21 78l-20 -78l-94 -215h-139z"/>
<glyph glyph-name="Y" horiz-adv-x="495" unicode="Y" d="M184 260l-188 440h150l97 -265l10 -76h5l11 78l95 263h135l-189 -439v-261h-126v260z"/>
<glyph glyph-name="Z" horiz-adv-x="445" unicode="Z" d="M21 116l234 427l42 41h-276v116h403v-116l-235 -430l-41 -38h276v-116h-403v116z"/>
<glyph glyph-name="bracketleft" horiz-adv-x="276" unicode="[" d="M45 700h208v-103h-93v-724h93v-103h-208v930z"/>
<glyph glyph-name="backslash" horiz-adv-x="362" unicode="\" d="M373 -103l-93 -37l-298 816l94 35z"/>
<glyph glyph-name="bracketright" horiz-adv-x="276" unicode="]" d="M231 -230h-208v103h93v724h-93v103h208v-930z"/>
<glyph glyph-name="asciicircum" horiz-adv-x="428" unicode="^" d="M181 705h68l155 -292h-119l-56 122l-17 73l-21 -74l-59 -121h-114z"/>
<glyph glyph-name="underscore" horiz-adv-x="374" unicode="_" d="M0 -122h374v-102h-374v102z"/>
<glyph glyph-name="grave" horiz-adv-x="290" unicode="`" d="M230 566h-66l-104 124v30h121z"/>
<glyph glyph-name="a" horiz-adv-x="413" unicode="a" d="M187 95q27 0 44 13.5t25 29.5v83q-14 2 -27 2q-9 0 -17 -1q-21 -2 -37 -9t-25.5 -20.5t-9.5 -34.5q0 -31 12.5 -47t34.5 -16zM44 470q30 18 75 29t102 11q85 0 118.5 -44t33.5 -125q0 -47 -3 -93q-2 -44 -3 -88v-25q-1 -29 1 -59q2 -40 14 -77h-97l-19 61h-4 q-16 -29 -45 -48t-73 -19q-59 0 -93 39.5t-34 105.5q0 90 64 128q55 33 144 33q14 0 29 -1q1 17 1 31q-1 35 -9 53q-12 26 -53 26q-30 0 -62 -7t-57 -20z"/>
<glyph glyph-name="b" horiz-adv-x="443" unicode="b" d="M162 108q21 -11 55 -11q38 0 58 36.5t20 122.5q0 76 -16 111.5t-50 35.5q-50 0 -67 -52v-243zM43 700h119v-232h3q36 44 103 44q71 0 110.5 -59t39.5 -190q0 -142 -56 -208.5t-153 -66.5q-53 0 -97.5 10t-68.5 22v680z"/>
<glyph glyph-name="c" horiz-adv-x="350" unicode="c" d="M338 27q-25 -20 -60 -30t-70 -10q-51 0 -85.5 18.5t-56.5 53t-31.5 83t-9.5 108.5q0 131 47 197t138 66q45 0 73.5 -8t50.5 -20l-28 -99q-18 9 -34.5 13.5t-39.5 4.5q-42 0 -63 -36.5t-21 -117.5q0 -68 21.5 -111t68.5 -43q25 0 42.5 6.5t32.5 16.5z"/>
<glyph glyph-name="d" horiz-adv-x="445" unicode="d" d="M216 96q27 0 43 13.5t24 39.5v236q-10 9 -22.5 13t-32.5 4q-40 0 -60 -36t-20 -128q0 -69 16.5 -105.5t51.5 -36.5zM402 176q0 -42 1 -84t8 -93h-84l-16 58h-4q-34 -70 -119 -70q-76 0 -119.5 60t-43.5 195q0 132 47 200.5t140 68.5q24 0 40 -3t31 -10v202h119v-524z"/>
<glyph glyph-name="e" horiz-adv-x="428" unicode="e" d="M225 412q-38 0 -57 -30.5t-22 -85.5h138v18q0 44 -12 68q-15 30 -47 30zM381 37q-25 -22 -68 -36t-90 -14q-52 0 -89.5 18t-61.5 52t-35.5 82.5t-11.5 110.5q0 135 53.5 199.5t148.5 64.5q32 0 62 -9.5t53.5 -32t38 -60t14.5 -94.5q0 -22 -2.5 -47t-7.5 -54h-243 q2 -62 26 -95t77 -33q32 0 58.5 10t40.5 21z"/>
<glyph glyph-name="f" horiz-adv-x="267" unicode="f" d="M8 500h54v28q0 95 35.5 137.5t101.5 42.5t110 -18l-22 -101q-18 7 -32 8.5t-29 1.5q-29 0 -37 -22.5t-8 -76.5h85v-106h-85v-394h-119v394h-54v106z"/>
<glyph glyph-name="g" horiz-adv-x="443" unicode="g" d="M216 94q27 0 42.5 13t23.5 37v250q-11 5 -24.5 8t-31.5 3q-37 0 -57.5 -36t-20.5 -124q0 -151 68 -151zM401 0q0 -109 -50 -160.5t-139 -51.5q-62 0 -97 9.5t-54 20.5l25 101q22 -9 47.5 -17t60.5 -8q51 0 70.5 27.5t19.5 83.5v27h-3q-14 -20 -37.5 -30t-60.5 -10 q-79 0 -118.5 59.5t-39.5 188.5q0 139 54.5 205t155.5 66q54 0 97 -8.5t69 -20.5v-482z"/>
<glyph glyph-name="h" horiz-adv-x="449" unicode="h" d="M291 0v302q0 54 -12.5 78t-45.5 24q-24 0 -44 -17t-27 -43v-344h-119v700h119v-245h3q20 26 48.5 42t71.5 16q31 0 54 -9t39 -30t24 -56.5t8 -89.5v-328h-119z"/>
<glyph glyph-name="i" horiz-adv-x="225" unicode="i" d="M53 500h119v-500h-119v500zM39 641q0 30 19 49.5t54 19.5t56 -19t21 -50t-21 -49t-56 -18t-54 18.5t-19 48.5z"/>
<glyph glyph-name="j" horiz-adv-x="225" unicode="j" d="M54 500h119v-521q0 -91 -31.5 -139t-100.5 -48q-28 0 -57 7v106h10q34 1 46 25q14 28 14 84v486zM39 641q0 30 19 49.5t54 19.5t56 -19t21 -50t-21 -49t-56 -18t-54 18.5t-19 48.5z"/>
<glyph glyph-name="k" horiz-adv-x="412" unicode="k" d="M190 207h-28v-207h-119v700h119v-413l24 14l83 199h129l-92 -198l-43 -34l47 -34l102 -234h-134z"/>
<glyph glyph-name="l" horiz-adv-x="243" unicode="l" d="M164 162q0 -35 7 -50t23 -15q9 0 18.5 2t21.5 7l11 -96q-12 -8 -41 -15t-59 -7q-50 0 -75 25t-25 85v602h119v-538z"/>
<glyph glyph-name="m" horiz-adv-x="663" unicode="m" d="M274 0v291q0 63 -10 87.5t-39 24.5q-24 0 -39.5 -15.5t-23.5 -37.5v-350h-119v500h92l15 -60h3q19 31 47.5 51.5t75.5 20.5q39 0 63.5 -17t38.5 -60q19 36 50 56.5t73 20.5q33 0 56.5 -8.5t38 -29.5t21.5 -57.5t7 -92.5v-324h-119v304q0 51 -9 75t-40 24 q-25 0 -40.5 -14.5t-22.5 -39.5v-349h-119z"/>
<glyph glyph-name="n" horiz-adv-x="449" unicode="n" d="M291 0v304q0 55 -13 77t-44 22q-26 0 -45 -16t-27 -40v-347h-119v500h95l14 -58h3q18 29 49 49.5t81 20.5q30 0 53.5 -9t39.5 -29.5t24 -55t8 -85.5v-333h-119z"/>
<glyph glyph-name="o" horiz-adv-x="445" unicode="o" d="M148 250q0 -75 17 -116t57 -41q38 0 56.5 35.5t18.5 121.5q0 77 -17 117t-58 40q-35 0 -54.5 -35.5t-19.5 -121.5zM25 250q0 133 52 198t145 65q100 0 149 -66t49 -197q0 -134 -52 -198.5t-146 -64.5q-197 0 -197 263z"/>
<glyph glyph-name="p" horiz-adv-x="447" unicode="p" d="M162 112q10 -10 22.5 -15t32.5 -5q40 0 61 39.5t21 134.5q0 71 -16 105.5t-53 34.5q-50 0 -68 -59v-235zM43 500h89l12 -57h3q23 36 51.5 52.5t70.5 16.5q76 0 114.5 -57.5t38.5 -191.5t-48 -205.5t-139 -71.5q-24 0 -41 4t-32 13v-203h-119v700z"/>
<glyph glyph-name="q" horiz-adv-x="443" unicode="q" d="M282 393q-21 12 -56 12q-39 0 -58.5 -37.5t-19.5 -122.5q0 -153 68 -153q27 0 42.5 13.5t23.5 38.5v249zM401 -200h-119v235h-4q-14 -22 -36.5 -35.5t-60.5 -13.5q-74 0 -115 63t-41 191q0 134 57 202.5t162 68.5q45 0 88.5 -9t68.5 -20v-682z"/>
<glyph glyph-name="r" horiz-adv-x="293" unicode="r" d="M279 382q-24 9 -44 9q-27 0 -46.5 -15t-26.5 -42v-334h-119v500h91l14 -60h4q13 33 37.5 51.5t56.5 18.5q24 0 47 -10z"/>
<glyph glyph-name="s" horiz-adv-x="350" unicode="s" d="M211 133q0 21 -13.5 35.5t-34.5 27t-44.5 25.5t-44.5 32t-34.5 46t-13.5 68q0 70 38 108t112 38q44 0 83 -9.5t62 -23.5l-28 -92q-19 8 -46 15.5t-53 7.5q-49 0 -49 -41q0 -19 13.5 -31.5t34.5 -24.5t44.5 -25t44.5 -32.5t34.5 -47.5t13.5 -69q0 -69 -42 -111t-125 -42 q-41 0 -80.5 10t-63.5 26l33 96q21 -12 48.5 -21t57.5 -9q23 0 38 10.5t15 33.5z"/>
<glyph glyph-name="t" horiz-adv-x="291" unicode="t" d="M4 500h55v94l119 37v-131h97v-106h-97v-218q0 -43 8.5 -61t30.5 -18q15 0 27 3t26 9l15 -95q-22 -11 -51 -18.5t-61 -7.5q-57 0 -85.5 33t-28.5 111v262h-55v106z"/>
<glyph glyph-name="u" horiz-adv-x="446" unicode="u" d="M158 500v-299q0 -59 11 -82t40 -23q28 0 47 20.5t27 49.5v334h119v-348q0 -41 3 -80.5t11 -71.5h-90l-21 68h-3q-19 -35 -51.5 -58t-80.5 -23q-31 0 -55 8.5t-41 29.5t-26 57.5t-9 92.5v325h119z"/>
<glyph glyph-name="v" horiz-adv-x="399" unicode="v" d="M195 239l12 -79h4l11 80l62 260h128l-168 -505h-80l-177 505h139z"/>
<glyph glyph-name="w" horiz-adv-x="596" unicode="w" d="M352 500l70 -256l12 -83h4l10 84l47 255h108l-123 -505h-94l-75 279l-8 64h-6l-7 -66l-72 -277h-97l-128 505h129l54 -251l9 -89h4l13 90l61 250h89z"/>
<glyph glyph-name="x" horiz-adv-x="439" unicode="x" d="M133 256l-119 244h140l51 -118l19 -64l21 64l52 118h129l-120 -240l128 -260h-135l-61 130l-22 71l-23 -71l-61 -130h-128z"/>
<glyph glyph-name="y" horiz-adv-x="400" unicode="y" d="M203 219l13 -78h5l9 79l58 280h122l-125 -451q-17 -59 -32 -106t-32 -80t-38.5 -50.5t-51.5 -17.5q-21 0 -40.5 3.5t-33.5 11.5l20 102q13 -5 26.5 -4.5t25 10t20.5 29.5t15 53l-174 500h143z"/>
<glyph glyph-name="z" horiz-adv-x="381" unicode="z" d="M24 106l162 245l44 43h-206v106h331v-106l-160 -249l-43 -39h203v-106h-331v106z"/>
<glyph glyph-name="braceleft" horiz-adv-x="313" unicode="{" d="M98 98q0 51 -17 70t-49 19v96q32 0 49 20.5t17 64.5v214q0 53 20.5 86t70.5 33h107v-102h-41q-23 0 -33 -14t-10 -46v-203q0 -44 -17 -66.5t-40 -27.5v-10q23 -4 40 -30t17 -68v-202q0 -31 9.5 -45.5t34.5 -14.5h40v-102h-107q-91 0 -91 118v210z"/>
<glyph glyph-name="bar" horiz-adv-x="188" unicode="|" d="M45 700h98v-830h-98v830z"/>
<glyph glyph-name="braceright" horiz-adv-x="313" unicode="}" d="M223 373q0 -51 17 -70t49 -19v-96q-32 0 -49 -20.5t-17 -64.5v-215q0 -54 -21.5 -86t-72.5 -32h-104v102h41q23 0 33 14t10 46v203q0 44 17 66.5t40 27.5v10q-23 4 -40 30t-17 68v202q0 31 -9.5 45.5t-34.5 14.5h-40v102h107q91 0 91 -117v-211z"/>
<glyph glyph-name="asciitilde" d="M23 378q39 38 71 52.5t59 14.5q24 0 45 -8t40 -18t37.5 -18t38.5 -8q15 0 30.5 6.5t32.5 21.5l44 -103q-30 -27 -55 -37.5t-47 -10.5q-23 0 -43.5 8.5t-40 19t-39 19.5t-40.5 9q-20 0 -42.5 -10.5t-49.5 -37.5z" unicode="~"/>
<glyph glyph-name="uni00A0" horiz-adv-x="205" unicode=" "/>
<glyph glyph-name="exclamdown" horiz-adv-x="251" unicode="¡" d="M35 433q0 38 19.5 57t51.5 19q35 0 54 -19t19 -57q0 -35 -19.5 -55t-53.5 -20q-33 0 -52 20t-19 55zM169 -202h-123v329l23 163h76l24 -163v-329z"/>
<glyph glyph-name="cent" horiz-adv-x="478" unicode="¢" d="M252 401q-32 -11 -48.5 -47.5t-16.5 -103.5q0 -58 15.5 -97t49.5 -53v301zM414 28q-14 -11 -33.5 -19.5t-41.5 -13.5v-95h-112v90q-43 7 -73 28.5t-48.5 55.5t-27 78.5t-8.5 97.5q0 110 40.5 176.5t116.5 82.5v91h112v-91q43 -7 70 -24l-25 -96q-12 5 -26.5 8.5 t-28.5 5.5v-307q20 3 35 9t26 13z"/>
<glyph glyph-name="sterling" horiz-adv-x="478" unicode="£" d="M44 392h60q-12 26 -21 58t-9 78q0 48 14 83t38.5 58t58.5 34t75 11q51 0 92.5 -10t73.5 -27l-38 -103q-17 10 -44.5 18.5t-65.5 8.5t-59.5 -23t-21.5 -71q0 -35 10.5 -61.5t24.5 -53.5h117v-100h-83q2 -10 3 -19.5t1 -20.5q0 -29 -9 -63t-26 -55l-45 -35v-6l66 16h183 v-109h-395v109h2q25 1 45 12t33 29t20 41t7 48q0 29 -6 53h-101v100z"/>
<glyph glyph-name="currency" horiz-adv-x="478" unicode="¤" d="M165 357q0 -33 20.5 -55t53.5 -22t53.5 22t20.5 55q0 32 -20.5 55t-53.5 23t-53.5 -23t-20.5 -55zM56 607l71 -70l17 -33q18 14 42.5 20.5t51.5 6.5q26 0 52 -7t44 -19l17 32l70 70l70 -73l-69 -70l-34 -15q25 -37 25 -93q0 -27 -6.5 -50.5t-18.5 -40.5l34 -14l69 -71 l-70 -72l-70 69l-16 33q-17 -12 -44 -19t-53 -7q-27 0 -51.5 6.5t-42.5 19.5l-17 -33l-71 -69l-69 72l69 71l33 16q-11 18 -17 40t-6 49t6.5 50t18.5 43l-35 15l-69 70z"/>
<glyph glyph-name="yen" horiz-adv-x="478" unicode="¥" d="M66 336h77l-155 364h150l97 -265l10 -76h5l11 78l95 263h135l-157 -364h78v-79h-110v-58h110v-79h-110v-120h-126v120h-110v79h110v58h-110v79z"/>
<glyph glyph-name="brokenbar" horiz-adv-x="188" unicode="¦" d="M143 357h-98v343h98v-343zM45 213h98v-343h-98v343z"/>
<glyph glyph-name="section" d="M248 269q17 12 28 32.5t11 43.5q0 34 -24.5 50.5t-67.5 33.5q-17 -12 -27.5 -30.5t-10.5 -43.5q0 -33 24.5 -51.5t66.5 -34.5zM121 481q-23 17 -38 41t-15 66q0 54 36.5 90t114.5 36q48 0 93 -9.5t67 -21.5l-30 -99q-21 10 -51 17t-56 7q-30 0 -42.5 -11.5t-12.5 -26.5 q0 -19 16 -30t40.5 -20t53 -19.5t53 -29t40.5 -48t16 -76.5q0 -31 -12.5 -61.5t-34.5 -53.5l-37 -14q23 -16 38 -40.5t15 -65.5q0 -61 -41 -93.5t-114 -32.5q-56 0 -95.5 11t-65.5 27l31 96q20 -11 47.5 -19.5t61.5 -8.5q30 0 43.5 10t13.5 31q0 19 -16 29.5t-40.5 20 t-52.5 20.5t-52.5 29.5t-40.5 47t-16 73.5q0 31 12.5 61t35.5 53z" unicode="§"/>
<glyph glyph-name="dieresis" horiz-adv-x="432" unicode="¨" d="M246 651q0 32 17 50t46 18t46 -18t17 -50q0 -30 -17 -47.5t-46 -17.5t-46 17.5t-17 47.5zM60 651q0 32 17.5 50t46.5 18q28 0 45 -18t17 -50q0 -30 -17 -47.5t-45 -17.5q-29 0 -46.5 17.5t-17.5 47.5z"/>
<glyph glyph-name="copyright" horiz-adv-x="725" unicode="©" d="M471 161q-19 -12 -48 -19.5t-62 -7.5q-69 0 -106 44.5t-37 119.5q0 78 39 121t104 43q32 0 56.5 -7.5t47.5 -20.5l-28 -77q-15 8 -28 10.5t-24 2.5q-25 0 -38.5 -17t-13.5 -55q0 -72 58 -72q29 0 54 13zM137 298q0 -54 16.5 -96.5t46.5 -72.5t71.5 -46t91.5 -16 q49 0 90.5 16t71.5 46t46.5 72.5t16.5 96.5t-16.5 96.5t-46.5 72.5t-71.5 46t-90.5 16q-50 0 -91.5 -16t-71.5 -46t-46.5 -72.5t-16.5 -96.5zM51 298q0 72 24 129.5t66 98t99 62t123 21.5q65 0 122 -21.5t99 -62t66 -98t24 -129.5t-24 -129.5t-66 -98t-99 -62t-122 -21.5 q-72 0 -130 21.5t-98.5 62t-62 98t-21.5 129.5z"/>
<glyph glyph-name="ordfeminine" horiz-adv-x="347" unicode="ª" d="M210 526q-11 1 -22 1q-19 0 -37.5 -6t-18.5 -33q0 -16 8.5 -25.5t21.5 -9.5q23 0 33 9t15 19v45zM45 675q22 14 62 23.5t91 9.5q66 0 90.5 -27.5t24.5 -84.5q0 -34 -1 -66.5t-1 -62.5q0 -24 1 -45.5t5 -41.5h-88l-13 44h-3q-10 -17 -30.5 -32.5t-55.5 -15.5 q-46 0 -72 27.5t-26 71.5q0 33 14.5 55t39.5 35t53 17t52 4q11 0 22 -1v10q0 18 -6.5 29t-34.5 11q-32 0 -58 -7t-44 -15z"/>
<glyph glyph-name="guillemotleft" horiz-adv-x="405" unicode="«" d="M22 259l131 230l76 -51l-76 -137l-39 -41l39 -36l80 -135l-75 -51zM184 261l125 216l68 -45l-69 -133l-38 -39l38 -35l74 -131l-68 -46z"/>
<glyph glyph-name="logicalnot" d="M40 409h368v-223h-112v117h-256v106z" unicode="¬"/>
<glyph glyph-name="uni00AD" horiz-adv-x="298" unicode="­" d="M45 344h208v-114h-208v114z"/>
<glyph glyph-name="registered" horiz-adv-x="595" unicode="®" d="M286 565q-10 0 -18.5 -0.5t-13.5 -3.5v-60h29q26 0 39 7.5t13 26.5q0 30 -49 30zM209 595q14 4 39 6.5t47 2.5q36 0 62 -15t26 -52q0 -27 -17.5 -42t-43.5 -17l24 -12l56 -94h-53l-54 90l-41 13v-103h-45v223zM136 483q0 -42 13 -73t35.5 -51.5t51.5 -30.5t62 -10 q34 0 63.5 10t51.5 30t34 51.5t12 73.5t-13 73t-35 51.5t-51 31t-62 10.5q-73 0 -117.5 -44t-44.5 -122zM54 483q0 58 19.5 103.5t53 76.5t77.5 47t94 16q51 0 95 -16t77 -47t52 -76.5t19 -103.5t-19.5 -103.5t-52.5 -76.5t-77.5 -47t-93.5 -16q-51 0 -95.5 16t-77.5 47 t-52 76.5t-19 103.5z"/>
<glyph glyph-name="macron" horiz-adv-x="392" unicode="¯" d="M60 658h272v-91h-272v91z"/>
<glyph glyph-name="degree" horiz-adv-x="364" unicode="°" d="M134 548q0 -33 14 -55.5t38 -22.5q23 0 37.5 22.5t14.5 55.5q0 34 -14.5 57t-37.5 23q-24 0 -38 -22.5t-14 -57.5zM44 548q0 37 10.5 68t29 52.5t44.5 33.5t57 12q64 0 103.5 -43t39.5 -123q0 -78 -39.5 -121t-103.5 -43q-63 0 -102 43t-39 121z"/>
<glyph glyph-name="plusminus" d="M38 252h368v-106h-368v106zM38 500h129v143h110v-143h129v-106h-129v-94h-110v94h-129v106z" unicode="±"/>
<glyph glyph-name="twosuperior" horiz-adv-x="353" unicode="²" d="M299 684q0 -30 -7.5 -56.5t-19.5 -50t-28 -44.5t-33 -40l-39 -25l48 7h90v-95h-265v67q23 18 49.5 43.5t49 54t37 58t14.5 57.5q0 51 -46 51q-22 0 -41 -6.5t-34 -15.5l-29 83q29 20 63 27.5t63 7.5q60 0 94 -31.5t34 -91.5z"/>
<glyph glyph-name="threesuperior" horiz-adv-x="353" unicode="³" d="M144 464q36 0 50.5 15t14.5 39q0 23 -15.5 36.5t-55.5 13.5h-39v38l60 81l38 28l-50 -6h-93v91h240v-60l-70 -94l-30 -19l26 -1q43 -2 67.5 -31.5t24.5 -83.5q0 -36 -12.5 -62t-33.5 -43t-48 -25t-58 -8q-32 0 -61 6.5t-50 17.5l21 86q37 -19 74 -19z"/>
<glyph glyph-name="acute" horiz-adv-x="281" unicode="´" d="M102 720h119v-30l-94 -124h-67z"/>
<glyph glyph-name="mu" horiz-adv-x="476" unicode="µ" d="M159 500v-287q0 -60 17 -89.5t55 -29.5q35 0 55 17.5t30 47.5v341h119v-337q0 -41 2.5 -82.5t10.5 -80.5h-89l-28 64h-4q-12 -32 -37 -54t-66 -22q-30 0 -47 13t-31 33h-4l17 -101v-133h-119v700h119z"/>
<glyph glyph-name="mu" horiz-adv-x="476" unicode="μ" d="M159 500v-287q0 -60 17 -89.5t55 -29.5q35 0 55 17.5t30 47.5v341h119v-337q0 -41 2.5 -82.5t10.5 -80.5h-89l-28 64h-4q-12 -32 -37 -54t-66 -22q-30 0 -47 13t-31 33h-4l17 -101v-133h-119v700h119z"/>
<glyph glyph-name="paragraph" horiz-adv-x="448" unicode="¶" d="M147 294q-28 0 -51.5 15.5t-40 42.5t-25.5 64t-9 81t11 81t31.5 64t49.5 42.5t64 15.5h67v-830h-97v424zM306 700h97v-830h-97v830z"/>
<glyph glyph-name="periodcentered" horiz-adv-x="212" unicode="·" d="M34 315q0 37 19.5 56t51.5 19q35 0 54 -19t19 -56q0 -36 -19.5 -56t-53.5 -20q-33 0 -52 20t-19 56z"/>
<glyph glyph-name="cedilla" horiz-adv-x="305" unicode="¸" d="M191 0l-20 -43q34 -4 54 -21.5t20 -53.5q0 -23 -10.5 -40t-28.5 -28.5t-42 -17.5t-50 -6q-27 0 -54 6l7 48q12 -1 22 -1q24 0 35.5 8t11.5 22q0 28 -70 32l49 95h76z"/>
<glyph glyph-name="onesuperior" horiz-adv-x="353" unicode="¹" d="M63 475h78v168l9 46l-26 -32l-46 -31l-44 69l131 112h82v-332h70v-95h-254v95z"/>
<glyph glyph-name="ordmasculine" horiz-adv-x="350" unicode="º" d="M131 542q0 -48 10.5 -67.5t33.5 -19.5q12 0 20.5 3.5t14 13.5t8 27t2.5 43q0 51 -11 69t-34 18t-33.5 -18t-10.5 -69zM25 542q0 46 11 78t31 52.5t47.5 30t60.5 9.5t60.5 -8.5t47.5 -28.5t31.5 -52.5t11.5 -80.5t-11.5 -80.5t-31.5 -52.5t-47.5 -28.5t-60.5 -8.5 t-60.5 8.5t-47.5 28.5t-31 52.5t-11 80.5z"/>
<glyph glyph-name="guillemotright" horiz-adv-x="405" unicode="»" d="M383 268l-131 -230l-76 49l74 139l40 41l-40 36l-79 135l75 51zM220 266l-125 -216l-68 43l70 135l37 39l-37 35l-74 132l67 45z"/>
<glyph glyph-name="onequarter" horiz-adv-x="749" unicode="¼" d="M557 250l7 55h-5l-19 -51l-38 -65l-30 -30l43 7h42v84zM713 80h-61v-80h-95v80h-172v64l178 281h89v-259h61v-86zM503 715l81 -39l-342 -690l-83 41zM139 544l8 46l-26 -33l-44 -31l-45 70l131 111h81v-427h-105v264z"/>
<glyph glyph-name="onehalf" horiz-adv-x="770" unicode="½" d="M503 715l81 -39l-342 -690l-83 41zM721 304q0 -30 -7.5 -56.5t-19.5 -50t-28 -44.5t-33 -40l-39 -25l48 7h90v-95h-265v67q23 18 49.5 43.5t49 54t37 58t14.5 57.5q0 51 -46 51q-22 0 -41 -6.5t-34 -15.5l-29 83q29 20 63 27.5t63 7.5q60 0 94 -31.5t34 -91.5zM138 544 l8 46l-26 -33l-44 -31l-45 70l131 111h81v-427h-105v264z"/>
<glyph glyph-name="threequarters" horiz-adv-x="766" unicode="¾" d="M521 715l81 -39l-342 -690l-83 41zM133 364q36 0 50.5 15t14.5 39q0 23 -15.5 36.5t-55.5 13.5h-39v38l60 81l38 28l-50 -6h-93v91h240v-60l-70 -94l-30 -19l26 -1q43 -2 67.5 -31.5t24.5 -83.5q0 -36 -12.5 -62t-33.5 -43t-48 -25t-58 -8q-32 0 -61 6.5t-50 17.5l21 86 q37 -19 74 -19zM574 250l7 55h-5l-19 -51l-38 -65l-30 -30l43 7h42v84zM730 80h-61v-80h-95v80h-172v64l178 281h89v-259h61v-86z"/>
<glyph glyph-name="questiondown" horiz-adv-x="382" unicode="¿" d="M287 433q0 -37 -19.5 -56t-51.5 -19q-35 0 -54 19t-19 56q0 36 19.5 56t53.5 20q33 0 52 -20t19 -56zM271 290q1 -15 1 -29q0 -28 -6.5 -57t-20.5 -55.5t-32 -47.5t-34 -41.5t-26.5 -43t-10.5 -50.5q0 -35 16.5 -55.5t54.5 -20.5q26 0 55 10.5t50 28.5l47 -90 q-31 -23 -73 -39t-102 -16q-80 0 -125.5 43.5t-45.5 122.5q0 47 11 79.5t28 57t36.5 44.5t36 42t28 49.5t11.5 67.5h101z"/>
<glyph glyph-name="Agrave" horiz-adv-x="501" unicode="À" d="M190 262h116l-40 163l-16 110h-4l-17 -111zM328 158h-165l-41 -158h-125l203 705h99l204 -705h-132zM334 752h-94l-130 88v30h142z"/>
<glyph glyph-name="Aacute" horiz-adv-x="501" unicode="Á" d="M190 262h116l-40 163l-16 110h-4l-17 -111zM328 158h-165l-41 -158h-125l203 705h99l204 -705h-132zM249 870h143v-30l-132 -88h-93z"/>
<glyph glyph-name="Acircumflex" horiz-adv-x="501" unicode="Â" d="M190 262h116l-40 163l-16 110h-4l-17 -111zM328 158h-165l-41 -158h-125l203 705h99l204 -705h-132zM209 870h87l104 -93v-39h-85l-47 41l-17 34l-18 -33l-50 -42h-83v40z"/>
<glyph glyph-name="Atilde" horiz-adv-x="501" unicode="Ã" d="M190 262h116l-40 163l-16 110h-4l-17 -111zM328 158h-165l-41 -158h-125l203 705h99l204 -705h-132zM82 796q29 37 56 50.5t53 13.5q19 0 38 -5.5t37 -11.5l34.5 -11.5t32.5 -5.5q14 0 27 5.5t25 19.5l27 -63q-26 -29 -49.5 -39.5t-46.5 -10.5q-19 0 -37.5 5.5t-36 11.5 t-34.5 11.5t-34 5.5t-33 -7t-33 -27z"/>
<glyph glyph-name="Adieresis" horiz-adv-x="501" unicode="Ä" d="M190 262h116l-40 163l-16 110h-4l-17 -111zM328 158h-165l-41 -158h-125l203 705h99l204 -705h-132zM274 798q0 26 15.5 42t51.5 16q37 0 52.5 -16t15.5 -42t-15.5 -41.5t-52.5 -15.5q-36 0 -51.5 15.5t-15.5 41.5zM92 798q0 26 15.5 42t53.5 16q35 0 50.5 -16t15.5 -42 t-15.5 -41.5t-50.5 -15.5q-38 0 -53.5 15.5t-15.5 41.5z"/>
<glyph glyph-name="Aring" horiz-adv-x="501" unicode="Å" d="M214 771q0 -31 36 -31q21 0 29 7.5t8 23.5q0 17 -8.5 25.5t-28.5 8.5q-36 0 -36 -34zM190 262h116l-40 163l-16 110h-4l-17 -111zM-3 0l199 691q-31 10 -44 30.5t-13 49.5q0 18 5 34.5t18 29t34 19.5t54 7q61 0 86.5 -24t25.5 -66q0 -27 -13.5 -49t-45.5 -32l200 -690 h-132l-43 158h-165l-41 -158h-125z"/>
<glyph glyph-name="AE" horiz-adv-x="717" unicode="Æ" d="M331 173h-144l-79 -173h-132l350 700h355v-116h-224v-172h203v-116h-203v-180h228v-116h-354v173zM326 522l-26 -97l-65 -148h96v245h-5z"/>
<glyph glyph-name="Ccedilla" horiz-adv-x="457" unicode="Ç" d="M442 28q-22 -18 -55 -27.5t-68 -12.5l-14 -31q34 -4 54 -21.5t20 -53.5q0 -23 -10.5 -40t-28.5 -28.5t-42 -17.5t-50 -6q-27 0 -54 6l7 48q12 -1 22 -1q24 0 35.5 8t11.5 22q0 28 -70 32l43 84q-46 6 -85 29t-67.5 66t-45 109t-16.5 158q0 106 22.5 176t59 111.5 t83.5 58.5t95 17q49 0 85.5 -8t59.5 -18l-25 -111q-19 10 -44.5 15.5t-60.5 5.5q-69 0 -106 -60t-37 -188q0 -55 8.5 -100.5t27 -78.5t47 -51t68.5 -18q35 0 60 9.5t45 22.5z"/>
<glyph glyph-name="Egrave" horiz-adv-x="430" unicode="È" d="M45 700h350v-116h-224v-172h203v-116h-203v-180h228v-116h-354v700zM297 752h-94l-130 88v30h142z"/>
<glyph glyph-name="Eacute" horiz-adv-x="430" unicode="É" d="M45 700h350v-116h-224v-172h203v-116h-203v-180h228v-116h-354v700zM234 870h143v-30l-132 -88h-93z"/>
<glyph glyph-name="Ecircumflex" horiz-adv-x="430" unicode="Ê" d="M45 700h350v-116h-224v-172h203v-116h-203v-180h228v-116h-354v700zM176 870h87l104 -93v-39h-85l-47 41l-17 34l-18 -33l-50 -42h-83v40z"/>
<glyph glyph-name="Edieresis" horiz-adv-x="430" unicode="Ë" d="M45 700h350v-116h-224v-172h203v-116h-203v-180h228v-116h-354v700zM242 798q0 26 15.5 42t51.5 16q37 0 52.5 -16t15.5 -42t-15.5 -41.5t-52.5 -15.5q-36 0 -51.5 15.5t-15.5 41.5zM60 798q0 26 15.5 42t53.5 16q35 0 50.5 -16t15.5 -42t-15.5 -41.5t-50.5 -15.5 q-38 0 -53.5 15.5t-15.5 41.5z"/>
<glyph glyph-name="Igrave" horiz-adv-x="238" unicode="Ì" d="M56 700h126v-700h-126v700zM203 752h-94l-130 88v30h142z"/>
<glyph glyph-name="Iacute" horiz-adv-x="238" unicode="Í" d="M56 700h126v-700h-126v700zM119 870h143v-30l-132 -88h-93z"/>
<glyph glyph-name="Icircumflex" horiz-adv-x="238" unicode="Î" d="M56 700h126v-700h-126v700zM79 870h87l104 -93v-39h-85l-47 41l-17 34l-18 -33l-50 -42h-83v40z"/>
<glyph glyph-name="Idieresis" horiz-adv-x="238" unicode="Ï" d="M56 700h126v-700h-126v700zM144 798q0 26 15.5 42t51.5 16q37 0 52.5 -16t15.5 -42t-15.5 -41.5t-52.5 -15.5q-36 0 -51.5 15.5t-15.5 41.5zM-38 798q0 26 15.5 42t53.5 16q35 0 50.5 -16t15.5 -42t-15.5 -41.5t-50.5 -15.5q-38 0 -53.5 15.5t-15.5 41.5z"/>
<glyph glyph-name="Eth" horiz-adv-x="555" unicode="Ð" d="M191 401h108v-79h-108v-213q3 -1 10.5 -1.5t16 -1t16 -1t10.5 -0.5q45 0 74 21t45.5 56t23 80.5t6.5 95.5q0 46 -5.5 89t-21 75.5t-44 52t-73.5 19.5q-16 0 -32.5 -0.5t-25.5 -2.5v-190zM-3 401h68v299q18 3 40.5 4.5t46 3t45.5 2t39 0.5q83 0 138.5 -25.5t89 -72 t47.5 -111.5t14 -145q0 -73 -13.5 -139.5t-47.5 -117t-92 -80.5t-146 -30q-13 0 -35 1t-46 2.5t-46 3t-34 3.5v323h-68v79z"/>
<glyph glyph-name="Ntilde" horiz-adv-x="540" unicode="Ñ" d="M199 344l-46 123h-5l16 -121v-346h-119v705h97l201 -352l43 -121h6l-16 119v349h119v-705h-97zM104 796q29 37 56 50.5t53 13.5q19 0 38 -5.5t37 -11.5l34.5 -11.5t32.5 -5.5q14 0 27 5.5t25 19.5l27 -63q-26 -29 -49.5 -39.5t-46.5 -10.5q-19 0 -37.5 5.5t-36 11.5 t-34.5 11.5t-34 5.5t-33 -7t-33 -27z"/>
<glyph glyph-name="Ograve" horiz-adv-x="553" unicode="Ò" d="M161 350q0 -53 6 -98.5t20 -78.5t35.5 -52t53.5 -19q58 0 87 59t29 189q0 51 -6 96.5t-19.5 79t-35.5 53t-55 19.5q-115 0 -115 -248zM29 350q0 178 61 271t186 93q65 0 112 -25.5t77 -73t44.5 -115t14.5 -150.5q0 -178 -62.5 -271t-185.5 -93q-66 0 -112.5 25.5 t-76.5 73t-44 115t-14 150.5zM344 752h-94l-130 88v30h142z"/>
<glyph glyph-name="Oacute" horiz-adv-x="553" unicode="Ó" d="M161 350q0 -53 6 -98.5t20 -78.5t35.5 -52t53.5 -19q58 0 87 59t29 189q0 51 -6 96.5t-19.5 79t-35.5 53t-55 19.5q-115 0 -115 -248zM29 350q0 178 61 271t186 93q65 0 112 -25.5t77 -73t44.5 -115t14.5 -150.5q0 -178 -62.5 -271t-185.5 -93q-66 0 -112.5 25.5 t-76.5 73t-44 115t-14 150.5zM301 870h143v-30l-132 -88h-93z"/>
<glyph glyph-name="Ocircumflex" horiz-adv-x="553" unicode="Ô" d="M161 350q0 -53 6 -98.5t20 -78.5t35.5 -52t53.5 -19q58 0 87 59t29 189q0 51 -6 96.5t-19.5 79t-35.5 53t-55 19.5q-115 0 -115 -248zM29 350q0 178 61 271t186 93q65 0 112 -25.5t77 -73t44.5 -115t14.5 -150.5q0 -178 -62.5 -271t-185.5 -93q-66 0 -112.5 25.5 t-76.5 73t-44 115t-14 150.5zM234 870h87l104 -93v-39h-85l-47 41l-17 34l-18 -33l-50 -42h-83v40z"/>
<glyph glyph-name="Otilde" horiz-adv-x="553" unicode="Õ" d="M161 350q0 -53 6 -98.5t20 -78.5t35.5 -52t53.5 -19q58 0 87 59t29 189q0 51 -6 96.5t-19.5 79t-35.5 53t-55 19.5q-115 0 -115 -248zM29 350q0 178 61 271t186 93q65 0 112 -25.5t77 -73t44.5 -115t14.5 -150.5q0 -178 -62.5 -271t-185.5 -93q-66 0 -112.5 25.5 t-76.5 73t-44 115t-14 150.5zM110 796q29 37 56 50.5t53 13.5q19 0 38 -5.5t37 -11.5l34.5 -11.5t32.5 -5.5q14 0 27 5.5t25 19.5l27 -63q-26 -29 -49.5 -39.5t-46.5 -10.5q-19 0 -37.5 5.5t-36 11.5t-34.5 11.5t-34 5.5t-33 -7t-33 -27z"/>
<glyph glyph-name="Odieresis" horiz-adv-x="553" unicode="Ö" d="M161 350q0 -53 6 -98.5t20 -78.5t35.5 -52t53.5 -19q58 0 87 59t29 189q0 51 -6 96.5t-19.5 79t-35.5 53t-55 19.5q-115 0 -115 -248zM29 350q0 178 61 271t186 93q65 0 112 -25.5t77 -73t44.5 -115t14.5 -150.5q0 -178 -62.5 -271t-185.5 -93q-66 0 -112.5 25.5 t-76.5 73t-44 115t-14 150.5zM300 798q0 26 15.5 42t51.5 16q37 0 52.5 -16t15.5 -42t-15.5 -41.5t-52.5 -15.5q-36 0 -51.5 15.5t-15.5 41.5zM118 798q0 26 15.5 42t53.5 16q35 0 50.5 -16t15.5 -42t-15.5 -41.5t-50.5 -15.5q-38 0 -53.5 15.5t-15.5 41.5z"/>
<glyph glyph-name="multiply" d="M112 541l111 -124l111 124l76 -73l-115 -129l115 -131l-76 -73l-111 124l-112 -125l-77 72l118 133l-116 129z" unicode="×"/>
<glyph glyph-name="Oslash" horiz-adv-x="553" unicode="Ø" d="M213 129q25 -27 63 -27q58 0 87 59t29 189q0 29 -2 55.5t-6 51.5zM342 567q-26 31 -66 31q-115 0 -115 -248q0 -31 2 -59t6 -54zM88 83q-31 48 -45 115t-14 152q0 178 61 271t186 93q72 0 125 -33l18 34l79 -41l-32 -61q30 -48 44 -114t14 -149q0 -178 -62.5 -271 t-185.5 -93q-36 0 -66 8t-55 22l-16 -30l-79 43z"/>
<glyph glyph-name="Ugrave" horiz-adv-x="515" unicode="Ù" d="M354 700h119v-454q0 -136 -55.5 -197t-153.5 -61q-115 0 -168.5 59.5t-53.5 181.5v471h126v-449q0 -82 22 -114.5t73 -32.5q49 0 70 34.5t21 112.5v449zM326 752h-94l-130 88v30h142z"/>
<glyph glyph-name="Uacute" horiz-adv-x="515" unicode="Ú" d="M354 700h119v-454q0 -136 -55.5 -197t-153.5 -61q-115 0 -168.5 59.5t-53.5 181.5v471h126v-449q0 -82 22 -114.5t73 -32.5q49 0 70 34.5t21 112.5v449zM296 870h143v-30l-132 -88h-93z"/>
<glyph glyph-name="Ucircumflex" horiz-adv-x="515" unicode="Û" d="M354 700h119v-454q0 -136 -55.5 -197t-153.5 -61q-115 0 -168.5 59.5t-53.5 181.5v471h126v-449q0 -82 22 -114.5t73 -32.5q49 0 70 34.5t21 112.5v449zM220 870h87l104 -93v-39h-85l-47 41l-17 34l-18 -33l-50 -42h-83v40z"/>
<glyph glyph-name="Udieresis" horiz-adv-x="515" unicode="Ü" d="M354 700h119v-454q0 -136 -55.5 -197t-153.5 -61q-115 0 -168.5 59.5t-53.5 181.5v471h126v-449q0 -82 22 -114.5t73 -32.5q49 0 70 34.5t21 112.5v449zM283 798q0 26 15.5 42t51.5 16q37 0 52.5 -16t15.5 -42t-15.5 -41.5t-52.5 -15.5q-36 0 -51.5 15.5t-15.5 41.5z M101 798q0 26 15.5 42t53.5 16q35 0 50.5 -16t15.5 -42t-15.5 -41.5t-50.5 -15.5q-38 0 -53.5 15.5t-15.5 41.5z"/>
<glyph glyph-name="Yacute" horiz-adv-x="495" unicode="Ý" d="M184 260l-188 440h150l97 -265l10 -76h5l11 78l95 263h135l-189 -439v-261h-126v260zM265 870h143v-30l-132 -88h-93z"/>
<glyph glyph-name="Thorn" horiz-adv-x="477" unicode="Þ" d="M222 516q-31 0 -51 -5v-238q6 -2 22.5 -3.5t22.5 -1.5q22 0 42 5.5t35 20.5t24 40t9 64q0 34 -8.5 56.5t-22.5 36t-33 19.5t-40 6zM45 700h126v-73q19 1 39 1q46 0 90.5 -8.5t79.5 -33.5t57 -70.5t22 -118.5q0 -65 -18.5 -111t-49.5 -75t-71.5 -42.5t-83.5 -13.5h-13 q-9 0 -19 0.5t-19.5 1.5t-13.5 2v-159h-126v700z"/>
<glyph glyph-name="germandbls" horiz-adv-x="535" unicode="ß" d="M63 394h-54v106h54v11q0 54 14 92t39 61t59 33.5t75 10.5q42 0 78 -9.5t62.5 -29t41.5 -48t15 -66.5q0 -35 -15 -58.5t-33.5 -42.5t-33.5 -36t-15 -38q0 -19 12 -32t30.5 -25t40 -25t40 -32t30.5 -45.5t12 -65.5q0 -33 -10 -63.5t-30.5 -53.5t-51 -37t-71.5 -14 q-38 0 -73 9.5t-59 24.5l31 94q20 -11 39.5 -18.5t47.5 -7.5q26 0 42 18t16 44q0 23 -12 38t-30.5 28t-40 25.5t-40 29t-30.5 40.5t-12 59q0 36 15 59t33 41t33 34.5t15 38.5q0 26 -22 42.5t-48 16.5q-36 0 -55.5 -22.5t-19.5 -85.5v-495h-119v394z"/>
<glyph glyph-name="agrave" horiz-adv-x="413" unicode="à" d="M187 95q27 0 44 13.5t25 29.5v83q-14 2 -27 2q-9 0 -17 -1q-21 -2 -37 -9t-25.5 -20.5t-9.5 -34.5q0 -31 12.5 -47t34.5 -16zM44 470q30 18 75 29t102 11q85 0 118.5 -44t33.5 -125q0 -47 -3 -93q-2 -44 -3 -88v-25q-1 -29 1 -59q2 -40 14 -77h-97l-19 61h-4 q-16 -29 -45 -48t-73 -19q-59 0 -93 39.5t-34 105.5q0 90 64 128q55 33 144 33q14 0 29 -1q1 17 1 31q-1 35 -9 53q-12 26 -53 26q-30 0 -62 -7t-57 -20zM259 566h-66l-104 124v30h121z"/>
<glyph glyph-name="aacute" horiz-adv-x="413" unicode="á" d="M187 95q27 0 44 13.5t25 29.5v83q-14 2 -27 2q-9 0 -17 -1q-21 -2 -37 -9t-25.5 -20.5t-9.5 -34.5q0 -31 12.5 -47t34.5 -16zM44 470q30 18 75 29t102 11q85 0 118.5 -44t33.5 -125q0 -47 -3 -93q-2 -44 -3 -88v-25q-1 -29 1 -59q2 -40 14 -77h-97l-19 61h-4 q-16 -29 -45 -48t-73 -19q-59 0 -93 39.5t-34 105.5q0 90 64 128q55 33 144 33q14 0 29 -1q1 17 1 31q-1 35 -9 53q-12 26 -53 26q-30 0 -62 -7t-57 -20zM196 720h119v-30l-94 -124h-67z"/>
<glyph glyph-name="acircumflex" horiz-adv-x="413" unicode="â" d="M187 95q27 0 44 13.5t25 29.5v83q-14 2 -27 2q-9 0 -17 -1q-21 -2 -37 -9t-25.5 -20.5t-9.5 -34.5q0 -31 12.5 -47t34.5 -16zM44 470q30 18 75 29t102 11q85 0 118.5 -44t33.5 -125q0 -47 -3 -93q-2 -44 -3 -88v-25q-1 -29 1 -59q2 -40 14 -77h-97l-19 61h-4 q-16 -29 -45 -48t-73 -19q-59 0 -93 39.5t-34 105.5q0 90 64 128q55 33 144 33q14 0 29 -1q1 17 1 31q-1 35 -9 53q-12 26 -53 26q-30 0 -62 -7t-57 -20zM174 732h85l91 -182h-93l-32 66l-13 49l-13 -49l-37 -66h-89z"/>
<glyph glyph-name="atilde" horiz-adv-x="413" unicode="ã" d="M187 95q27 0 44 13.5t25 29.5v83q-14 2 -27 2q-9 0 -17 -1q-21 -2 -37 -9t-25.5 -20.5t-9.5 -34.5q0 -31 12.5 -47t34.5 -16zM44 470q30 18 75 29t102 11q85 0 118.5 -44t33.5 -125q0 -47 -3 -93q-2 -44 -3 -88v-25q-1 -29 1 -59q2 -40 14 -77h-97l-19 61h-4 q-16 -29 -45 -48t-73 -19q-59 0 -93 39.5t-34 105.5q0 90 64 128q55 33 144 33q14 0 29 -1q1 17 1 31q-1 35 -9 53q-12 26 -53 26q-30 0 -62 -7t-57 -20zM60 656q29 37 54 50.5t46 13.5q18 0 33.5 -6.5t30.5 -15t30 -15t30 -6.5q11 0 23 5t26 18l22 -61q-27 -32 -50.5 -44 t-43.5 -12q-18 0 -33.5 6t-30.5 13.5t-30 14t-30 6.5q-13 0 -26 -5.5t-27 -19.5z"/>
<glyph glyph-name="adieresis" horiz-adv-x="413" unicode="ä" d="M187 95q27 0 44 13.5t25 29.5v83q-14 2 -27 2q-9 0 -17 -1q-21 -2 -37 -9t-25.5 -20.5t-9.5 -34.5q0 -31 12.5 -47t34.5 -16zM44 470q30 18 75 29t102 11q85 0 118.5 -44t33.5 -125q0 -47 -3 -93q-2 -44 -3 -88v-25q-1 -29 1 -59q2 -40 14 -77h-97l-19 61h-4 q-16 -29 -45 -48t-73 -19q-59 0 -93 39.5t-34 105.5q0 90 64 128q55 33 144 33q14 0 29 -1q1 17 1 31q-1 35 -9 53q-12 26 -53 26q-30 0 -62 -7t-57 -20zM242 651q0 32 17 50t46 18t46 -18t17 -50q0 -30 -17 -47.5t-46 -17.5t-46 17.5t-17 47.5zM56 651q0 32 17.5 50 t46.5 18q28 0 45 -18t17 -50q0 -30 -17 -47.5t-45 -17.5q-29 0 -46.5 17.5t-17.5 47.5z"/>
<glyph glyph-name="aring" horiz-adv-x="413" unicode="å" d="M187 95q27 0 44 13.5t25 29.5v83q-14 2 -27 2q-9 0 -17 -1q-21 -2 -37 -9t-25.5 -20.5t-9.5 -34.5q0 -31 12.5 -47t34.5 -16zM44 470q30 18 75 29t102 11q85 0 118.5 -44t33.5 -125q0 -47 -3 -93q-2 -44 -3 -88v-25q-1 -29 1 -59q2 -40 14 -77h-97l-19 61h-4 q-16 -29 -45 -48t-73 -19q-59 0 -93 39.5t-34 105.5q0 90 64 128q55 33 144 33q14 0 29 -1q1 17 1 31q-1 35 -9 53q-12 26 -53 26q-30 0 -62 -7t-57 -20zM181 647q0 -17 8.5 -25.5t21.5 -8.5q31 0 31 34q0 19 -8.5 27.5t-22.5 8.5q-13 0 -21.5 -8t-8.5 -28zM114 647 q0 45 24.5 70t72.5 25q46 0 72 -23.5t26 -71.5q0 -42 -25.5 -67.5t-72.5 -25.5t-72 25t-25 68z"/>
<glyph glyph-name="ae" horiz-adv-x="653" unicode="æ" d="M510 295v17q0 42 -12 68q-15 32 -48 32q-38 0 -56 -30t-21 -87h137zM287 68q-21 -34 -53.5 -55t-87.5 -21q-60 0 -94.5 41t-34.5 106q0 46 16.5 77.5t47 51t74.5 27.5q32 6 69 6q14 0 29 -1q1 9 1 16.5v15.5q0 39 -13 56.5t-47 17.5q-31 0 -63 -9t-57 -23l-31 90 q32 21 78 33.5t96 12.5q42 0 68.5 -13t43.5 -41q20 29 52 43.5t72 14.5q32 0 62.5 -9.5t54 -32.5t37.5 -61t14 -95q0 -22 -2.5 -47t-7.5 -53h-241q2 -66 25 -96.5t75 -30.5q31 0 57.5 9.5t40.5 20.5l39 -83q-25 -20 -67 -34.5t-93 -14.5q-109 0 -155 81h-5zM257 223 q-13 1 -26 1h-18q-21 -2 -37.5 -9.5t-26 -21t-9.5 -35.5q0 -28 12 -44t35 -16q28 0 45 13.5t25 31.5v80z"/>
<glyph glyph-name="ccedilla" horiz-adv-x="350" unicode="ç" d="M338 27q-18 -15 -41 -23.5t-49 -13.5l-15 -33q34 -4 54 -21.5t20 -53.5q0 -23 -10.5 -40t-28.5 -28.5t-42 -17.5t-50 -6q-27 0 -54 6l7 48q12 -1 22 -1q24 0 35.5 8t11.5 22q0 28 -70 32l43 85q-80 13 -113 82t-33 178q0 131 47 197t138 66q45 0 73.5 -8t50.5 -20 l-28 -99q-18 9 -34.5 13.5t-39.5 4.5q-42 0 -63 -36.5t-21 -117.5q0 -68 21.5 -111t68.5 -43q25 0 42.5 6.5t32.5 16.5z"/>
<glyph glyph-name="egrave" horiz-adv-x="428" unicode="è" d="M225 412q-38 0 -57 -30.5t-22 -85.5h138v18q0 44 -12 68q-15 30 -47 30zM381 37q-25 -22 -68 -36t-90 -14q-52 0 -89.5 18t-61.5 52t-35.5 82.5t-11.5 110.5q0 135 53.5 199.5t148.5 64.5q32 0 62 -9.5t53.5 -32t38 -60t14.5 -94.5q0 -22 -2.5 -47t-7.5 -54h-243 q2 -62 26 -95t77 -33q32 0 58.5 10t40.5 21zM271 566h-66l-104 124v30h121z"/>
<glyph glyph-name="eacute" horiz-adv-x="428" unicode="é" d="M225 412q-38 0 -57 -30.5t-22 -85.5h138v18q0 44 -12 68q-15 30 -47 30zM381 37q-25 -22 -68 -36t-90 -14q-52 0 -89.5 18t-61.5 52t-35.5 82.5t-11.5 110.5q0 135 53.5 199.5t148.5 64.5q32 0 62 -9.5t53.5 -32t38 -60t14.5 -94.5q0 -22 -2.5 -47t-7.5 -54h-243 q2 -62 26 -95t77 -33q32 0 58.5 10t40.5 21zM223 720h119v-30l-94 -124h-67z"/>
<glyph glyph-name="ecircumflex" horiz-adv-x="428" unicode="ê" d="M225 412q-38 0 -57 -30.5t-22 -85.5h138v18q0 44 -12 68q-15 30 -47 30zM381 37q-25 -22 -68 -36t-90 -14q-52 0 -89.5 18t-61.5 52t-35.5 82.5t-11.5 110.5q0 135 53.5 199.5t148.5 64.5q32 0 62 -9.5t53.5 -32t38 -60t14.5 -94.5q0 -22 -2.5 -47t-7.5 -54h-243 q2 -62 26 -95t77 -33q32 0 58.5 10t40.5 21zM179 732h85l91 -182h-93l-32 66l-13 49l-13 -49l-37 -66h-89z"/>
<glyph glyph-name="edieresis" horiz-adv-x="428" unicode="ë" d="M225 412q-38 0 -57 -30.5t-22 -85.5h138v18q0 44 -12 68q-15 30 -47 30zM381 37q-25 -22 -68 -36t-90 -14q-52 0 -89.5 18t-61.5 52t-35.5 82.5t-11.5 110.5q0 135 53.5 199.5t148.5 64.5q32 0 62 -9.5t53.5 -32t38 -60t14.5 -94.5q0 -22 -2.5 -47t-7.5 -54h-243 q2 -62 26 -95t77 -33q32 0 58.5 10t40.5 21zM251 651q0 32 17 50t46 18t46 -18t17 -50q0 -30 -17 -47.5t-46 -17.5t-46 17.5t-17 47.5zM65 651q0 32 17.5 50t46.5 18q28 0 45 -18t17 -50q0 -30 -17 -47.5t-45 -17.5q-29 0 -46.5 17.5t-17.5 47.5z"/>
<glyph glyph-name="igrave" horiz-adv-x="225" unicode="ì" d="M53 500h119v-500h-119v500zM165 566h-66l-104 124v30h121z"/>
<glyph glyph-name="iacute" horiz-adv-x="225" unicode="í" d="M53 500h119v-500h-119v500zM101 720h119v-30l-94 -124h-67z"/>
<glyph glyph-name="icircumflex" horiz-adv-x="225" unicode="î" d="M53 500h119v-500h-119v500zM74 732h85l91 -182h-93l-32 66l-13 49l-13 -49l-37 -66h-89z"/>
<glyph glyph-name="idieresis" horiz-adv-x="225" unicode="ï" d="M53 500h119v-500h-119v500zM143 651q0 32 17 50t46 18t46 -18t17 -50q0 -30 -17 -47.5t-46 -17.5t-46 17.5t-17 47.5zM-43 651q0 32 17.5 50t46.5 18q28 0 45 -18t17 -50q0 -30 -17 -47.5t-45 -17.5q-29 0 -46.5 17.5t-17.5 47.5z"/>
<glyph glyph-name="eth" horiz-adv-x="458" unicode="ð" d="M149 580l48 37q-30 18 -62 29l48 68q21 -7 47 -19q20 -9 40 -22l47 36l40 -50l-37 -29q9 -9 18 -20q27 -30 47.5 -73t33 -99.5t12.5 -129.5q0 -86 -14.5 -147t-41.5 -100t-65.5 -57t-86.5 -18q-97 0 -146.5 67.5t-49.5 191.5q0 61 14 108t39 79.5t59.5 49.5t75.5 17 q29 0 54.5 -9t41.5 -28q-18 70 -63 114l-58 -45zM142 244q0 -81 24.5 -116.5t64.5 -35.5q19 0 34.5 10t27 32.5t18 58t6.5 87.5q0 6 -0.5 17l-1 22t-1.5 22t-2 17q-13 18 -35.5 26.5t-45.5 8.5q-44 0 -66.5 -39t-22.5 -110z"/>
<glyph glyph-name="ntilde" horiz-adv-x="449" unicode="ñ" d="M291 0v304q0 55 -13 77t-44 22q-26 0 -45 -16t-27 -40v-347h-119v500h95l14 -58h3q18 29 49 49.5t81 20.5q30 0 53.5 -9t39.5 -29.5t24 -55t8 -85.5v-333h-119zM77 656q29 37 54 50.5t46 13.5q18 0 33.5 -6.5t30.5 -15t30 -15t30 -6.5q11 0 23 5t26 18l22 -61 q-27 -32 -50.5 -44t-43.5 -12q-18 0 -33.5 6t-30.5 13.5t-30 14t-30 6.5q-13 0 -26 -5.5t-27 -19.5z"/>
<glyph glyph-name="ograve" horiz-adv-x="445" unicode="ò" d="M148 250q0 -75 17 -116t57 -41q38 0 56.5 35.5t18.5 121.5q0 77 -17 117t-58 40q-35 0 -54.5 -35.5t-19.5 -121.5zM25 250q0 133 52 198t145 65q100 0 149 -66t49 -197q0 -134 -52 -198.5t-146 -64.5q-197 0 -197 263zM271 566h-66l-104 124v30h121z"/>
<glyph glyph-name="oacute" horiz-adv-x="445" unicode="ó" d="M148 250q0 -75 17 -116t57 -41q38 0 56.5 35.5t18.5 121.5q0 77 -17 117t-58 40q-35 0 -54.5 -35.5t-19.5 -121.5zM25 250q0 133 52 198t145 65q100 0 149 -66t49 -197q0 -134 -52 -198.5t-146 -64.5q-197 0 -197 263zM224 720h119v-30l-94 -124h-67z"/>
<glyph glyph-name="ocircumflex" horiz-adv-x="445" unicode="ô" d="M148 250q0 -75 17 -116t57 -41q38 0 56.5 35.5t18.5 121.5q0 77 -17 117t-58 40q-35 0 -54.5 -35.5t-19.5 -121.5zM25 250q0 133 52 198t145 65q100 0 149 -66t49 -197q0 -134 -52 -198.5t-146 -64.5q-197 0 -197 263zM186 732h85l91 -182h-93l-32 66l-13 49l-13 -49 l-37 -66h-89z"/>
<glyph glyph-name="otilde" horiz-adv-x="445" unicode="õ" d="M148 250q0 -75 17 -116t57 -41q38 0 56.5 35.5t18.5 121.5q0 77 -17 117t-58 40q-35 0 -54.5 -35.5t-19.5 -121.5zM25 250q0 133 52 198t145 65q100 0 149 -66t49 -197q0 -134 -52 -198.5t-146 -64.5q-197 0 -197 263zM73 656q29 37 54 50.5t46 13.5q18 0 33.5 -6.5 t30.5 -15t30 -15t30 -6.5q11 0 23 5t26 18l22 -61q-27 -32 -50.5 -44t-43.5 -12q-18 0 -33.5 6t-30.5 13.5t-30 14t-30 6.5q-13 0 -26 -5.5t-27 -19.5z"/>
<glyph glyph-name="odieresis" horiz-adv-x="445" unicode="ö" d="M148 250q0 -75 17 -116t57 -41q38 0 56.5 35.5t18.5 121.5q0 77 -17 117t-58 40q-35 0 -54.5 -35.5t-19.5 -121.5zM25 250q0 133 52 198t145 65q100 0 149 -66t49 -197q0 -134 -52 -198.5t-146 -64.5q-197 0 -197 263zM252 651q0 32 17 50t46 18t46 -18t17 -50 q0 -30 -17 -47.5t-46 -17.5t-46 17.5t-17 47.5zM66 651q0 32 17.5 50t46.5 18q28 0 45 -18t17 -50q0 -30 -17 -47.5t-45 -17.5q-29 0 -46.5 17.5t-17.5 47.5z"/>
<glyph glyph-name="divide" d="M151 523q0 37 19.5 56t51.5 19q35 0 54 -19t19 -56q0 -36 -19.5 -56t-53.5 -20q-33 0 -52 20t-19 56zM151 158q0 37 19.5 56t51.5 19q35 0 54 -19t19 -56q0 -36 -19.5 -56t-53.5 -20q-33 0 -52 20t-19 56zM38 393h368v-106h-368v106z" unicode="÷"/>
<glyph glyph-name="oslash" horiz-adv-x="448" unicode="ø" d="M269 390q-17 18 -43 18q-37 0 -57 -36t-20 -122q0 -33 3 -60zM179 114q18 -22 47 -22q38 0 57 35t19 123q0 19 -1 35.5t-3 31.5zM62 78q-34 64 -34 172q0 134 52 199t146 65q49 0 87 -18l18 30l79 -49l-27 -46q40 -65 40 -181q0 -134 -51.5 -199t-145.5 -65 q-28 0 -51 5.5t-43 15.5l-19 -31l-81 51z"/>
<glyph glyph-name="ugrave" horiz-adv-x="446" unicode="ù" d="M158 500v-299q0 -59 11 -82t40 -23q28 0 47 20.5t27 49.5v334h119v-348q0 -41 3 -80.5t11 -71.5h-90l-21 68h-3q-19 -35 -51.5 -58t-80.5 -23q-31 0 -55 8.5t-41 29.5t-26 57.5t-9 92.5v325h119zM265 566h-66l-104 124v30h121z"/>
<glyph glyph-name="uacute" horiz-adv-x="446" unicode="ú" d="M158 500v-299q0 -59 11 -82t40 -23q28 0 47 20.5t27 49.5v334h119v-348q0 -41 3 -80.5t11 -71.5h-90l-21 68h-3q-19 -35 -51.5 -58t-80.5 -23q-31 0 -55 8.5t-41 29.5t-26 57.5t-9 92.5v325h119zM212 720h119v-30l-94 -124h-67z"/>
<glyph glyph-name="ucircumflex" horiz-adv-x="446" unicode="û" d="M158 500v-299q0 -59 11 -82t40 -23q28 0 47 20.5t27 49.5v334h119v-348q0 -41 3 -80.5t11 -71.5h-90l-21 68h-3q-19 -35 -51.5 -58t-80.5 -23q-31 0 -55 8.5t-41 29.5t-26 57.5t-9 92.5v325h119zM184 732h85l91 -182h-93l-32 66l-13 49l-13 -49l-37 -66h-89z"/>
<glyph glyph-name="udieresis" horiz-adv-x="446" unicode="ü" d="M158 500v-299q0 -59 11 -82t40 -23q28 0 47 20.5t27 49.5v334h119v-348q0 -41 3 -80.5t11 -71.5h-90l-21 68h-3q-19 -35 -51.5 -58t-80.5 -23q-31 0 -55 8.5t-41 29.5t-26 57.5t-9 92.5v325h119zM249 651q0 32 17 50t46 18t46 -18t17 -50q0 -30 -17 -47.5t-46 -17.5 t-46 17.5t-17 47.5zM63 651q0 32 17.5 50t46.5 18q28 0 45 -18t17 -50q0 -30 -17 -47.5t-45 -17.5q-29 0 -46.5 17.5t-17.5 47.5z"/>
<glyph glyph-name="yacute" horiz-adv-x="400" unicode="ý" d="M203 219l13 -78h5l9 79l58 280h122l-125 -451q-17 -59 -32 -106t-32 -80t-38.5 -50.5t-51.5 -17.5q-21 0 -40.5 3.5t-33.5 11.5l20 102q13 -5 26.5 -4.5t25 10t20.5 29.5t15 53l-174 500h143zM205 720h119v-30l-94 -124h-67z"/>
<glyph glyph-name="thorn" horiz-adv-x="446" unicode="þ" d="M230 408q-26 0 -42.5 -15t-25.5 -42v-240q10 -9 22.5 -14t33.5 -5q40 0 60 39.5t20 134.5q0 70 -15.5 106t-52.5 36zM43 700h119v-237h3q17 23 41.5 37t62.5 14q76 0 114 -59.5t38 -191.5q0 -64 -12 -115.5t-35.5 -87.5t-58.5 -55t-81 -19q-24 0 -41 4t-31 12v-202h-119 v900z"/>
<glyph glyph-name="dotlessi" horiz-adv-x="225" unicode="ı" d="M53 500h119v-500h-119v500z"/>
<glyph glyph-name="OE" horiz-adv-x="753" unicode="Œ" d="M368 0q-16 -6 -43.5 -10t-52.5 -4q-64 0 -110 26t-75.5 73.5t-43.5 114.5t-14 150q0 177 61 270.5t182 93.5q30 0 54.5 -4.5t41.5 -9.5h349v-116h-223v-172h202v-116h-202v-180h227v-116h-353zM368 573q-16 11 -39 18t-52 7q-57 0 -86.5 -60.5t-29.5 -187.5 q0 -53 6.5 -98.5t21 -78.5t37.5 -52t57 -19q23 0 43 4t42 15v452z"/>
<glyph glyph-name="oe" horiz-adv-x="697" unicode="œ" d="M494 414q-40 0 -58 -33.5t-21 -84.5h138q1 12 1 22q0 39 -13 67.5t-47 28.5zM355 55q-20 -32 -52.5 -50.5t-82.5 -18.5q-99 0 -147 68t-48 196q0 130 51.5 197t145.5 67q56 0 88 -21t50 -47q19 26 50.5 47t85.5 21q32 0 62.5 -9.5t54 -32t37.5 -60.5t14 -94 q0 -23 -2.5 -47.5t-7.5 -53.5h-242q2 -64 25.5 -97.5t74.5 -33.5q34 0 60.5 12t40.5 24l39 -83q-25 -23 -69.5 -38t-92.5 -15q-45 0 -80 18.5t-55 50.5zM148 250q0 -72 17.5 -115t56.5 -43q38 0 56 37t18 121q0 75 -16.5 116.5t-57.5 41.5q-35 0 -54.5 -36t-19.5 -122z"/>
<glyph glyph-name="Scaron" horiz-adv-x="439" unicode="Š" d="M290 180q0 32 -19 54.5t-47.5 42.5t-62 41t-62 49t-47.5 66t-19 93q0 51 15.5 86.5t42.5 58t64 33t79 10.5q51 0 95 -10t73 -27l-39 -111q-17 12 -50.5 22t-72.5 10t-60 -16t-21 -47q0 -28 19 -49.5t47.5 -41.5t62 -41.5t62 -50t47.5 -67t19 -91.5t-15.5 -92t-44 -64.5 t-68.5 -38.5t-89 -13q-62 0 -108.5 12t-71.5 27l41 113q20 -12 55 -24t75 -12q100 0 100 78zM275 737h-87l-104 94v39h91l42 -45l17 -30l17 29l45 46h88v-40z"/>
<glyph glyph-name="scaron" horiz-adv-x="350" unicode="š" d="M211 133q0 21 -13.5 35.5t-34.5 27t-44.5 25.5t-44.5 32t-34.5 46t-13.5 68q0 70 38 108t112 38q44 0 83 -9.5t62 -23.5l-28 -92q-19 8 -46 15.5t-53 7.5q-49 0 -49 -41q0 -19 13.5 -31.5t34.5 -24.5t44.5 -25t44.5 -32.5t34.5 -47.5t13.5 -69q0 -69 -42 -111t-125 -42 q-41 0 -80.5 10t-63.5 26l33 96q21 -12 48.5 -21t57.5 -9q23 0 38 10.5t15 33.5zM218 550h-88l-95 182h98l32 -66l13 -49l13 49l37 66h91z"/>
<glyph glyph-name="Ydieresis" horiz-adv-x="495" unicode="Ÿ" d="M184 260l-188 440h150l97 -265l10 -76h5l11 78l95 263h135l-189 -439v-261h-126v260zM275 798q0 26 15.5 42t51.5 16q37 0 52.5 -16t15.5 -42t-15.5 -41.5t-52.5 -15.5q-36 0 -51.5 15.5t-15.5 41.5zM93 798q0 26 15.5 42t53.5 16q35 0 50.5 -16t15.5 -42t-15.5 -41.5 t-50.5 -15.5q-38 0 -53.5 15.5t-15.5 41.5z"/>
<glyph glyph-name="uni0237" horiz-adv-x="225" unicode="ȷ" d="M54 500h119v-521q0 -91 -31.5 -139t-100.5 -48q-28 0 -57 7v106h10q34 1 46 25q14 28 14 84v486z"/>
<glyph glyph-name="circumflex" horiz-adv-x="397" unicode="ˆ" d="M161 732h85l91 -182h-93l-32 66l-13 49l-13 -49l-37 -66h-89z"/>
<glyph glyph-name="caron" horiz-adv-x="404" unicode="ˇ" d="M243 550h-88l-95 182h98l32 -66l13 -49l13 49l37 66h91z"/>
<glyph glyph-name="dotaccent" horiz-adv-x="270" unicode="˙" d="M60 641q0 30 19 49.5t54 19.5t56 -19t21 -50t-21 -49t-56 -18t-54 18.5t-19 48.5z"/>
<glyph glyph-name="ring" horiz-adv-x="315" unicode="˚" d="M127 647q0 -17 8.5 -25.5t21.5 -8.5q31 0 31 34q0 19 -8.5 27.5t-22.5 8.5q-13 0 -21.5 -8t-8.5 -28zM60 647q0 45 24.5 70t72.5 25q46 0 72 -23.5t26 -71.5q0 -42 -25.5 -67.5t-72.5 -25.5t-72 25t-25 68z"/>
<glyph glyph-name="tilde" horiz-adv-x="415" unicode="˜" d="M60 656q29 37 54 50.5t46 13.5q18 0 33.5 -6.5t30.5 -15t30 -15t30 -6.5q11 0 23 5t26 18l22 -61q-27 -32 -50.5 -44t-43.5 -12q-18 0 -33.5 6t-30.5 13.5t-30 14t-30 6.5q-13 0 -26 -5.5t-27 -19.5z"/>
<glyph glyph-name="hungarumlaut" horiz-adv-x="417" unicode="˝" d="M243 700h114v-16l-99 -113h-75zM89 700h108v-16l-64 -113h-73z"/>
<glyph glyph-name="pi" horiz-adv-x="578" unicode="π" d="M475 152q0 -28 7 -40t19 -12q8 0 18 2t18 4l18 -88q-18 -8 -45 -16t-66 -8q-50 0 -69 30t-19 82v288h-104v-394h-119v394h-11q-33 0 -50 -37l-61 59q17 42 50.5 63t78.5 21h403v-106h-68v-242z"/>
<glyph glyph-name="afii10023" horiz-adv-x="430" unicode="Ё" d="M45 700h350v-116h-224v-172h203v-116h-203v-180h228v-116h-354v700zM242 798q0 26 15.5 42t51.5 16q37 0 52.5 -16t15.5 -42t-15.5 -41.5t-52.5 -15.5q-36 0 -51.5 15.5t-15.5 41.5zM60 798q0 26 15.5 42t53.5 16q35 0 50.5 -16t15.5 -42t-15.5 -41.5t-50.5 -15.5 q-38 0 -53.5 15.5t-15.5 41.5z"/>
<glyph glyph-name="afii10051" horiz-adv-x="615" unicode="Ђ" d="M299 0h-126v584h-165v116h456v-116h-165v-150q14 7 43 15t72 8q32 0 63 -10t55 -35t38.5 -69t14.5 -111q0 -58 -10.5 -102.5t-33.5 -75t-60.5 -46t-92.5 -15.5q-41 0 -52 4v110q7 -1 18.5 -1.5t23.5 -0.5q38 0 56.5 28.5t18.5 91.5q0 36 -6.5 58.5t-17.5 35t-27.5 17.5 t-35.5 5t-38 -7t-29 -13v-321z"/>
<glyph glyph-name="afii10052" horiz-adv-x="381" unicode="Ѓ" d="M388 584h-217v-584h-126v700h343v-116zM237 870h143v-30l-132 -88h-93z"/>
<glyph glyph-name="afii10053" horiz-adv-x="475" unicode="Є" d="M446 28q-13 -11 -31.5 -19t-40 -13t-44.5 -7.5t-44 -2.5q-54 0 -100.5 18.5t-81.5 61.5t-55 113t-20 172q0 106 22.5 176t59 111.5t83.5 58.5t95 17q49 0 87.5 -8t61.5 -18l-25 -111q-19 10 -46.5 15.5t-62.5 5.5q-60 0 -96.5 -45t-45.5 -141h223v-104h-224q3 -46 14 -84 t29.5 -65t45.5 -42t63 -15q35 0 61.5 9.5t46.5 22.5z"/>
<glyph glyph-name="afii10054" horiz-adv-x="439" unicode="Ѕ" d="M290 180q0 32 -19 54.5t-47.5 42.5t-62 41t-62 49t-47.5 66t-19 93q0 51 15.5 86.5t42.5 58t64 33t79 10.5q51 0 95 -10t73 -27l-39 -111q-17 12 -50.5 22t-72.5 10t-60 -16t-21 -47q0 -28 19 -49.5t47.5 -41.5t62 -41.5t62 -50t47.5 -67t19 -91.5t-15.5 -92t-44 -64.5 t-68.5 -38.5t-89 -13q-62 0 -108.5 12t-71.5 27l41 113q20 -12 55 -24t75 -12q100 0 100 78z"/>
<glyph glyph-name="afii10055" horiz-adv-x="238" unicode="І" d="M56 700h126v-700h-126v700z"/>
<glyph glyph-name="afii10056" horiz-adv-x="245" unicode="Ї" d="M59 700h126v-700h-126v700zM132 792q0 64 52 64q53 0 53 -64q0 -62 -53 -62q-52 0 -52 62zM8 792q0 64 53 64t53 -64q0 -62 -53 -62t-53 62z"/>
<glyph glyph-name="afii10057" horiz-adv-x="289" unicode="Ј" d="M113 700h126v-509q0 -46 -7.5 -83.5t-24.5 -64t-45 -41t-70 -14.5q-29 0 -57.5 6t-51.5 17l29 106q21 -13 49 -13q35 0 43.5 29.5t8.5 84.5v482z"/>
<glyph glyph-name="afii10058" horiz-adv-x="775" unicode="Љ" d="M471 112q9 -3 23.5 -4.5t28.5 -1.5q47 0 74.5 27t27.5 94q0 35 -8 57.5t-21.5 35t-32 17t-40.5 4.5q-11 0 -28.5 -3t-23.5 -6v-220zM345 584h-106q-7 -190 -19 -317.5t-46 -194.5q-12 -24 -27.5 -39.5t-31 -24t-31.5 -12t-29 -3.5q-21 0 -37 3.5t-30 10.5l14 114 q9 -4 19 -4l17 5q18 5 30 31q12 22 21 64.5t15.5 109.5t10 159t5.5 214h351v-252q6 1 15.5 3t20.5 3t23 2t21 1q42 0 79.5 -10t65.5 -35t44.5 -68.5t16.5 -110.5q0 -120 -58 -181.5t-183 -61.5q-11 0 -31.5 0.5t-44.5 2t-49 5t-46 8.5v578z"/>
<glyph glyph-name="afii10059" horiz-adv-x="792" unicode="Њ" d="M488 111q8 -2 23 -3.5t29 -1.5q49 0 75.5 25.5t26.5 87.5q0 32 -7 52t-20.5 31.5t-32 16t-41.5 4.5q-12 0 -30 -3t-23 -5v-204zM171 700v-276h191v276h126v-269q4 1 13 2.5t20.5 2.5t23.5 2t21 1q42 0 79.5 -8.5t66 -32t45.5 -65.5t17 -108q0 -121 -59.5 -178t-181.5 -57 q-11 0 -31.5 0.5t-45 2t-49.5 4t-45 6.5v305h-191v-308h-126v700h126z"/>
<glyph glyph-name="afii10060" horiz-adv-x="631" unicode="Ћ" d="M299 0h-126v584h-165v116h456v-116h-165v-182q21 14 57 27t86 13q36 0 64.5 -10.5t49 -34t31.5 -60t11 -88.5v-249h-126v211q0 62 -18 90t-60 28q-29 0 -54.5 -9t-40.5 -24v-296z"/>
<glyph glyph-name="afii10061" horiz-adv-x="519" unicode="Ќ" d="M198 300h-27v-300h-126v700h126v-311l25 12l147 299h142l-160 -295l-47 -37l48 -38l185 -330h-154zM263 870h143v-30l-132 -88h-93z"/>
<glyph glyph-name="afii10062" horiz-adv-x="475" unicode="Ў" d="M246 395l15 -93h5l13 96l79 302h130l-156 -484q-18 -57 -34 -98.5t-35 -69.5t-42.5 -41.5t-57.5 -13.5q-27 0 -46.5 5t-40.5 19l31 106q14 -8 25 -10.5t23 -3.5q37 0 51 76l-216 515h149zM200 874q6 -61 56 -61t56 60l102 -15q-8 -65 -49 -94t-110 -29q-35 0 -64 6 t-51 20t-36 37t-18 58z"/>
<glyph glyph-name="afii10145" horiz-adv-x="524" unicode="Џ" d="M45 0v700h126v-584h182v584h126v-700h-163l-12 -175h-82l-16 175h-161z"/>
<glyph glyph-name="afii10017" horiz-adv-x="501" unicode="А" d="M190 262h116l-40 163l-16 110h-4l-17 -111zM328 158h-165l-41 -158h-125l203 705h99l204 -705h-132z"/>
<glyph glyph-name="afii10018" horiz-adv-x="476" unicode="Б" d="M230 102q42 0 67.5 26t25.5 88q0 37 -8 59t-21.5 34t-32 16t-40.5 4q-11 0 -27.5 -2.5t-22.5 -4.5v-215q9 -2 26 -3.5t33 -1.5zM45 700h367v-116h-241v-152q15 3 36 6t41 3q48 0 86 -11.5t65 -37t41.5 -66.5t14.5 -100q0 -118 -59 -177t-175 -59q-14 0 -36 1t-47 2.5 t-49.5 4.5t-43.5 8v694z"/>
<glyph glyph-name="afii10019" horiz-adv-x="490" unicode="В" d="M200 403q11 0 25.5 1.5t23.5 3.5q29 11 49.5 36t20.5 65q0 26 -7 44t-19 28.5t-28.5 15t-35.5 4.5q-41 0 -58 -4v-194h29zM234 99q42 0 69 27t27 79q0 33 -9 52.5t-24 30t-34.5 13.5t-40.5 3h-51v-199q8 -3 27.5 -4.5t35.5 -1.5zM445 538q0 -26 -5.5 -51.5t-17.5 -48 t-31.5 -39.5t-46.5 -26v-6q24 -6 45.5 -18t37.5 -32.5t25.5 -50t9.5 -69.5q0 -54 -18.5 -93.5t-50 -64.5t-73.5 -37t-89 -12h-36t-47.5 1.5t-52.5 4.5t-50 9v690q33 6 81.5 10.5t96.5 4.5q44 0 84.5 -7t71 -26t48.5 -52.5t18 -86.5z"/>
<glyph glyph-name="afii10020" horiz-adv-x="381" unicode="Г" d="M388 584h-217v-584h-126v700h343v-116z"/>
<glyph glyph-name="afii10021" horiz-adv-x="576" unicode="Д" d="M364 116v468h-111q-5 -177 -23.5 -297t-37.5 -171h172zM562 -125h-89l-12 125h-360l-12 -125h-89v241h61q6 11 18.5 50t25.5 110t21 170.5t8 223.5v30h356v-584h72v-241z"/>
<glyph glyph-name="afii10022" horiz-adv-x="430" unicode="Е" d="M45 700h350v-116h-224v-172h203v-116h-203v-180h228v-116h-354v700z"/>
<glyph glyph-name="afii10024" horiz-adv-x="701" unicode="Ж" d="M287 700h119v-313l29 14l105 299h141l-125 -308l-40 -33l49 -41l141 -318h-152l-117 305h-31v-305h-119v317l-28 -14l-118 -303h-146l140 308l46 38l-45 36l-130 318h146l104 -301h31v301z"/>
<glyph glyph-name="afii10025" horiz-adv-x="435" unicode="З" d="M98 313v102h24q15 0 37 1t35 6q27 8 46 30t19 57q0 49 -23.5 68t-65.5 19q-34 0 -63.5 -10.5t-46.5 -21.5l-32 109q10 6 28 13t40.5 13t48 9.5t51.5 3.5q38 0 73.5 -7.5t62.5 -27t43 -53.5t16 -87q0 -51 -21.5 -95t-69.5 -65v-6q52 -14 80.5 -56t28.5 -114 q0 -57 -18.5 -98t-50 -67t-72.5 -38t-85 -12q-54 0 -99 9.5t-72 25.5l33 112q19 -11 52.5 -21t78.5 -10q41 0 71 26.5t30 83.5q0 49 -27.5 73.5t-96.5 26.5q-11 0 -15 0.5t-17 0.5h-23z"/>
<glyph glyph-name="afii10026" horiz-adv-x="547" unicode="И" d="M376 373l10 99h-5l-38 -106l-199 -366h-99v700h126v-366l-11 -102h5l40 109l199 359h98v-700h-126v373z"/>
<glyph glyph-name="afii10027" horiz-adv-x="547" unicode="Й" d="M376 373l10 99h-5l-38 -106l-199 -366h-99v700h126v-366l-11 -102h5l40 109l199 359h98v-700h-126v373zM232 874q6 -61 56 -61t56 60l102 -15q-8 -65 -49 -94t-110 -29q-35 0 -64 6t-51 20t-36 37t-18 58z"/>
<glyph glyph-name="afii10028" horiz-adv-x="519" unicode="К" d="M198 300h-27v-300h-126v700h126v-311l25 12l147 299h142l-160 -295l-47 -37l48 -38l185 -330h-154z"/>
<glyph glyph-name="afii10029" horiz-adv-x="517" unicode="Л" d="M345 584h-106q-7 -190 -19 -317.5t-46 -194.5q-12 -24 -27.5 -39.5t-31 -24t-31.5 -12t-29 -3.5q-21 0 -37 3.5t-30 10.5l14 114q9 -4 19 -4l17 5q18 5 30 31q12 22 21 64.5t15.5 109.5t10 159t5.5 214h351v-700h-126v584z"/>
<glyph glyph-name="afii10030" horiz-adv-x="664" unicode="М" d="M493 361l14 134h-5l-37 -120l-114 -246h-42l-121 247l-37 121h-6l19 -135v-362h-119v700h121l146 -303l24 -87h4l23 89l137 301h119v-700h-126v361z"/>
<glyph glyph-name="afii10031" horiz-adv-x="533" unicode="Н" d="M362 296h-191v-296h-126v700h126v-288h191v288h126v-700h-126v296z"/>
<glyph glyph-name="afii10032" horiz-adv-x="553" unicode="О" d="M161 350q0 -53 6 -98.5t20 -78.5t35.5 -52t53.5 -19q58 0 87 59t29 189q0 51 -6 96.5t-19.5 79t-35.5 53t-55 19.5q-115 0 -115 -248zM29 350q0 178 61 271t186 93q65 0 112 -25.5t77 -73t44.5 -115t14.5 -150.5q0 -178 -62.5 -271t-185.5 -93q-66 0 -112.5 25.5 t-76.5 73t-44 115t-14 150.5z"/>
<glyph glyph-name="afii10033" horiz-adv-x="524" unicode="П" d="M353 584h-182v-584h-126v700h434v-700h-126v584z"/>
<glyph glyph-name="afii10034" horiz-adv-x="477" unicode="Р" d="M171 354q6 -2 22.5 -3.5t22.5 -1.5q22 0 42 6t35.5 20.5t24.5 40t9 64.5q0 33 -8.5 56t-23 36.5t-33.5 19.5t-40 6q-31 0 -51 -5v-239zM45 693q36 8 79 12.5t86 4.5q46 0 90.5 -8.5t79.5 -33.5t57 -70.5t22 -118.5q0 -66 -18.5 -112t-49.5 -75t-71.5 -42t-83.5 -13h-13 t-19 0.5t-19.5 1.5t-13.5 2v-241h-126v693z"/>
<glyph glyph-name="afii10035" horiz-adv-x="457" unicode="С" d="M442 28q-26 -22 -69.5 -32t-86.5 -10q-54 0 -100.5 18.5t-81.5 61.5t-55 113t-20 172q0 106 22.5 176t59 111.5t83.5 58.5t95 17q49 0 85.5 -8t59.5 -18l-25 -111q-19 10 -44.5 15.5t-60.5 5.5q-69 0 -106 -60t-37 -188q0 -55 8.5 -100.5t27 -78.5t47 -51t68.5 -18 q35 0 60 9.5t45 22.5z"/>
<glyph glyph-name="afii10036" horiz-adv-x="474" unicode="Т" d="M466 584h-166v-584h-126v584h-166v116h458v-116z"/>
<glyph glyph-name="afii10037" horiz-adv-x="475" unicode="У" d="M246 395l15 -93h5l13 96l79 302h130l-156 -484q-18 -57 -34 -98.5t-35 -69.5t-42.5 -41.5t-57.5 -13.5q-27 0 -46.5 5t-40.5 19l31 106q14 -8 25 -10.5t23 -3.5q37 0 51 76l-216 515h149z"/>
<glyph glyph-name="afii10038" horiz-adv-x="670" unicode="Ф" d="M237 180q7 0 19.5 0.5t21.5 3.5v345q-8 1 -18 1.5t-19 0.5q-43 0 -69.5 -42.5t-26.5 -137.5q0 -83 24 -127t68 -44zM436 531q-8 0 -22 -1t-22 -4v-344q6 -2 16 -2h20q43 0 70 42.5t27 136.5q0 81 -22.5 126.5t-66.5 45.5zM272 76q-16 -3 -32.5 -4t-36.5 -1 q-40 0 -73.5 16t-58 50t-38.5 86.5t-14 126.5q0 140 54 215t146 75q10 0 26.5 -1t26.5 -4v85h126v-88q15 5 36 6.5t34 1.5q40 0 73.5 -17t58 -51.5t38 -87.5t13.5 -124q0 -73 -15.5 -127t-41.5 -90t-62 -54t-76 -18q-15 0 -30.5 1.5t-27.5 5.5v-98h-126v96z"/>
<glyph glyph-name="afii10039" horiz-adv-x="528" unicode="Х" d="M177 356l-155 344h152l81 -200l19 -76l18 76l85 200h136l-160 -337l168 -363h-147l-94 215l-21 78l-20 -78l-94 -215h-139z"/>
<glyph glyph-name="afii10040" horiz-adv-x="563" unicode="Ц" d="M550 -125h-89l-13 125h-403v700h126v-584h180v584h126v-584h73v-241z"/>
<glyph glyph-name="afii10041" horiz-adv-x="503" unicode="Ч" d="M160 700v-230q0 -62 18 -88.5t59 -26.5q29 0 54.5 9t40.5 26v310h126v-700h-126v282q-20 -14 -55.5 -26.5t-83.5 -12.5q-33 0 -62 9.5t-50.5 31t-34 57t-12.5 88.5v271h126z"/>
<glyph glyph-name="afii10042" horiz-adv-x="706" unicode="Ш" d="M45 0v700h126v-584h119v584h126v-584h119v584h126v-700h-616z"/>
<glyph glyph-name="afii10043" horiz-adv-x="752" unicode="Щ" d="M45 0v700h126v-584h120v584h126v-584h120v584h126v-584h76v-241h-89l-13 125h-592z"/>
<glyph glyph-name="afii10044" horiz-adv-x="556" unicode="Ъ" d="M253 112q8 -3 22.5 -4.5t28.5 -1.5q46 0 74.5 26.5t28.5 94.5q0 35 -8 57.5t-22 35t-32.5 17t-39.5 4.5q-11 0 -28.5 -3t-23.5 -6v-220zM127 584h-131v116h257v-252q11 3 35.5 6t44.5 3q42 0 79 -10t65.5 -35t45 -68.5t16.5 -110.5q0 -121 -58.5 -182t-182.5 -61 q-12 0 -32.5 0.5t-44.5 2t-48.5 5t-45.5 8.5v578z"/>
<glyph glyph-name="afii10045" horiz-adv-x="668" unicode="Ы" d="M171 112q8 -3 20 -4.5t25 -1.5q45 0 70 27.5t25 94.5q0 34 -7 56t-19 35t-29.5 17.5t-38.5 4.5q-10 0 -25 -3t-21 -6v-220zM45 700h126v-251q9 2 30 5t41 3q42 0 78.5 -9.5t63.5 -34.5t43 -68.5t16 -110.5q0 -123 -56 -183.5t-180 -60.5q-12 0 -31 0.5t-41.5 2t-46 5 t-43.5 8.5v694zM497 700h126v-700h-126v700z"/>
<glyph glyph-name="afii10046" horiz-adv-x="475" unicode="Ь" d="M171 112q9 -3 23.5 -4.5t28.5 -1.5q47 0 74.5 27t27.5 94q0 35 -8 57.5t-21.5 35t-32 17t-40.5 4.5q-11 0 -28.5 -3t-23.5 -6v-220zM45 700h126v-252q6 1 15.5 3t20.5 3t23 2t21 1q42 0 79.5 -10t65.5 -35t44.5 -68.5t16.5 -110.5q0 -120 -58 -181.5t-183 -61.5 q-11 0 -31.5 0.5t-44.5 2t-49 5t-46 8.5v694z"/>
<glyph glyph-name="afii10047" horiz-adv-x="477" unicode="Э" d="M105 407h211q-2 42 -10.5 77t-26 60.5t-43 39.5t-61.5 14q-43 0 -75.5 -10.5t-55.5 -24.5l-29 109q32 19 78 30.5t89 11.5q60 0 109.5 -19.5t84 -62.5t53.5 -112.5t19 -168.5q0 -106 -22 -176.5t-60.5 -112.5t-89 -59t-107.5 -17q-49 0 -90.5 10t-64.5 22l33 112 q20 -10 53 -19t74 -9q66 0 102 48.5t41 152.5h-212v104z"/>
<glyph glyph-name="afii10048" horiz-adv-x="743" unicode="Ю" d="M368 350q0 -54 5 -99.5t17.5 -78.5t33 -51.5t51.5 -18.5q58 0 82.5 58.5t24.5 189.5q0 52 -4.5 97.5t-16.5 79t-32.5 52.5t-53.5 19q-57 0 -82 -60.5t-25 -187.5zM171 412h71q8 143 64.5 222.5t169.5 79.5q65 0 110.5 -26t74 -74t41 -115t12.5 -149q0 -175 -58 -269.5 t-181 -94.5q-57 0 -99 21.5t-70.5 62t-44 98t-19.5 128.5h-71v-296h-126v700h126v-288z"/>
<glyph glyph-name="afii10049" horiz-adv-x="486" unicode="Я" d="M315 589q-9 3 -18 4t-22 1q-20 0 -38 -5.5t-31 -19t-20.5 -35.5t-7.5 -55q0 -63 27.5 -90.5t71.5 -27.5h38v228zM441 0h-126v279l-54 -19l-111 -260h-145l114 238l50 40q-53 15 -88 65.5t-35 141.5q0 64 18 107t51 69t79 37.5t101 11.5q13 0 32.5 -1t39.5 -3t39.5 -5.5 t34.5 -7.5v-693z"/>
<glyph glyph-name="afii10065" horiz-adv-x="413" unicode="а" d="M187 95q27 0 44 13.5t25 29.5v83q-14 2 -27 2q-9 0 -17 -1q-21 -2 -37 -9t-25.5 -20.5t-9.5 -34.5q0 -31 12.5 -47t34.5 -16zM44 470q30 18 75 29t102 11q85 0 118.5 -44t33.5 -125q0 -47 -3 -93q-2 -44 -3 -88v-25q-1 -29 1 -59q2 -40 14 -77h-97l-19 61h-4 q-16 -29 -45 -48t-73 -19q-59 0 -93 39.5t-34 105.5q0 90 64 128q55 33 144 33q14 0 29 -1q1 17 1 31q-1 35 -9 53q-12 26 -53 26q-30 0 -62 -7t-57 -20z"/>
<glyph glyph-name="afii10066" horiz-adv-x="445" unicode="б" d="M148 244q0 -72 18 -112t56 -40q40 0 57.5 36t17.5 116q0 69 -16 105t-54 36q-41 0 -60 -36t-19 -105zM123 410q23 43 55.5 62t77.5 19q74 0 119 -54.5t45 -175.5q0 -140 -50.5 -207.5t-144.5 -67.5q-48 0 -85.5 18t-63 56t-38.5 98.5t-13 144.5q0 86 8.5 147t24 103 t37 67t47.5 39.5t56 20.5t63 10q43 5 76 12.5t48 24.5l2 -112q-16 -17 -47.5 -24.5t-82.5 -11.5q-31 -3 -54.5 -11.5t-40 -27t-27 -50t-15.5 -80.5h3z"/>
<glyph glyph-name="afii10067" horiz-adv-x="418" unicode="в" d="M208 296q24 0 39.5 15t15.5 40q0 29 -12.5 42.5t-46.5 13.5q-17 0 -27 -0.5t-18 -1.5v-109h49zM159 96q10 -2 19 -2.5t22 -0.5q39 0 56.5 15.5t17.5 48.5q0 27 -15 43.5t-51 16.5h-49v-121zM43 499q28 3 71.5 5.5t90.5 2.5q94 0 133 -31t39 -94q0 -36 -17 -68.5 t-52 -47.5v-4q85 -23 85 -120q0 -75 -48 -112t-156 -37q-35 0 -76.5 2t-69.5 6v498z"/>
<glyph glyph-name="afii10068" horiz-adv-x="309" unicode="г" d="M314 391h-152v-391h-119v500h271v-109z"/>
<glyph glyph-name="afii10069" horiz-adv-x="476" unicode="д" d="M287 103v291h-76q-2 -36 -5.5 -78t-9.5 -81.5t-13.5 -74.5t-17.5 -57h122zM466 -114h-88l-13 114h-267l-13 -114h-87v223h48q6 11 16 38.5t19.5 74.5t16.5 116t7 162h301v-391h60v-223z"/>
<glyph glyph-name="afii10070" horiz-adv-x="428" unicode="е" d="M225 412q-38 0 -57 -30.5t-22 -85.5h138v18q0 44 -12 68q-15 30 -47 30zM381 37q-25 -22 -68 -36t-90 -14q-52 0 -89.5 18t-61.5 52t-35.5 82.5t-11.5 110.5q0 135 53.5 199.5t148.5 64.5q32 0 62 -9.5t53.5 -32t38 -60t14.5 -94.5q0 -22 -2.5 -47t-7.5 -54h-243 q2 -62 26 -95t77 -33q32 0 58.5 10t40.5 21z"/>
<glyph glyph-name="afii10072" horiz-adv-x="582" unicode="ж" d="M201 203l-73 -203h-132l100 229l29 30l-42 38l-78 203h126l67 -203h34v203h113v-213l30 14l67 199h126l-83 -203l-33 -32l42 -40l92 -225h-135l-73 207h-33v-207h-113v217z"/>
<glyph glyph-name="afii10073" horiz-adv-x="354" unicode="з" d="M85 208v89h48q27 0 44 16t17 39q0 50 -62 50q-30 0 -53 -8t-37 -17l-27 95q26 15 68 25.5t87 10.5q143 0 143 -124q0 -37 -16 -69.5t-48 -46.5v-4q42 -12 61 -42t19 -81q0 -32 -10.5 -59.5t-32.5 -47.5t-55.5 -32t-79.5 -12q-45 0 -79.5 9.5t-57.5 23.5l24 97 q19 -11 44.5 -17.5t54.5 -6.5q73 0 73 59q0 25 -18.5 39t-68.5 14h-38z"/>
<glyph glyph-name="afii10074" horiz-adv-x="450" unicode="и" d="M288 218l9 81h-3l-37 -85l-134 -214h-80v500h119v-227l-9 -78h3l36 83l135 222h80v-500h-119v218z"/>
<glyph glyph-name="afii10075" horiz-adv-x="450" unicode="й" d="M288 218l9 81h-3l-37 -85l-134 -214h-80v500h119v-227l-9 -78h3l36 83l135 222h80v-500h-119v218zM186 704q3 -38 16 -55t33 -17q21 0 33.5 16.5t17.5 54.5l90 -22q-11 -68 -50.5 -99.5t-93.5 -31.5q-26 0 -51 7t-45 22.5t-33.5 40.5t-17.5 62z"/>
<glyph glyph-name="afii10076" horiz-adv-x="409" unicode="к" d="M189 207h-27v-207h-119v500h119v-213l24 14l84 199h128l-91 -192l-44 -39l48 -39l101 -230h-134z"/>
<glyph glyph-name="afii10077" horiz-adv-x="433" unicode="л" d="M271 391h-72q-4 -87 -11 -160t-22 -125.5t-40.5 -82t-66.5 -29.5q-25 0 -43 3.5t-31 11.5l14 104q11 -4 21 -4q11 0 23.5 7t23.5 47.5t17.5 120.5t9.5 216h296v-500h-119v391z"/>
<glyph glyph-name="afii10078" horiz-adv-x="555" unicode="м" d="M399 230l7 103h-5l-30 -93l-73 -150h-45l-80 150l-31 93h-6l13 -103v-230h-106v500h125l91 -184l20 -67h4l21 69l84 182h124v-500h-113v230z"/>
<glyph glyph-name="afii10079" d="M282 199h-120v-199h-119v500h119v-192h120v192h119v-500h-119v199z" unicode="н"/>
<glyph glyph-name="afii10080" horiz-adv-x="445" unicode="о" d="M148 250q0 -75 17 -116t57 -41q38 0 56.5 35.5t18.5 121.5q0 77 -17 117t-58 40q-35 0 -54.5 -35.5t-19.5 -121.5zM25 250q0 133 52 198t145 65q100 0 149 -66t49 -197q0 -134 -52 -198.5t-146 -64.5q-197 0 -197 263z"/>
<glyph glyph-name="afii10081" horiz-adv-x="440" unicode="п" d="M278 391h-116v-391h-119v500h354v-500h-119v391z"/>
<glyph glyph-name="afii10082" horiz-adv-x="447" unicode="р" d="M162 112q10 -10 22.5 -15t32.5 -5q40 0 61 39.5t21 134.5q0 71 -16 105.5t-53 34.5q-50 0 -68 -59v-235zM43 500h89l12 -57h3q23 36 51.5 52.5t70.5 16.5q76 0 114.5 -57.5t38.5 -191.5t-48 -205.5t-139 -71.5q-24 0 -41 4t-32 13v-203h-119v700z"/>
<glyph glyph-name="afii10083" horiz-adv-x="350" unicode="с" d="M338 27q-25 -20 -60 -30t-70 -10q-51 0 -85.5 18.5t-56.5 53t-31.5 83t-9.5 108.5q0 131 47 197t138 66q45 0 73.5 -8t50.5 -20l-28 -99q-18 9 -34.5 13.5t-39.5 4.5q-42 0 -63 -36.5t-21 -117.5q0 -68 21.5 -111t68.5 -43q25 0 42.5 6.5t32.5 16.5z"/>
<glyph glyph-name="afii10084" horiz-adv-x="345" unicode="т" d="M344 391h-110v-391h-119v391h-114v109h343v-109z"/>
<glyph glyph-name="afii10085" horiz-adv-x="400" unicode="у" d="M203 219l13 -78h5l9 79l58 280h122l-125 -451q-17 -59 -32 -106t-32 -80t-38.5 -50.5t-51.5 -17.5q-21 0 -40.5 3.5t-33.5 11.5l20 102q13 -5 26.5 -4.5t25 10t20.5 29.5t15 53l-174 500h143z"/>
<glyph glyph-name="afii10086" horiz-adv-x="585" unicode="ф" d="M208 86q8 0 15 1.5t15 3.5v315q-13 4 -28 4q-17 0 -30 -7.5t-22 -26t-13.5 -49.5t-4.5 -77q0 -85 16.5 -124.5t51.5 -39.5zM373 410q-8 0 -13.5 -1.5t-13.5 -3.5v-316q12 -3 31 -3q17 0 30 8.5t21.5 29t12.5 53.5t4 83q0 42 -4 71t-13 46.5t-22.5 25t-32.5 7.5zM233 -6 q-14 -6 -29.5 -7t-27.5 -1q-75 0 -115 64t-40 200q0 131 44 195.5t128 64.5q11 0 21 -1t19 -3v194h119v-195q15 3 26 4t22 1q41 0 71.5 -13.5t51 -43.5t31 -77.5t10.5 -115.5q0 -131 -43 -202.5t-124 -71.5q-8 0 -22.5 1.5t-22.5 5.5v-193h-119v194z"/>
<glyph glyph-name="afii10087" horiz-adv-x="439" unicode="х" d="M133 256l-119 244h140l51 -118l19 -64l21 64l52 118h129l-120 -240l128 -260h-135l-61 130l-22 71l-23 -71l-61 -130h-128z"/>
<glyph glyph-name="afii10088" horiz-adv-x="464" unicode="ц" d="M454 -114h-87l-13 114h-311v500h119v-391h113v391h119v-391h60v-223z"/>
<glyph glyph-name="afii10089" horiz-adv-x="419" unicode="ч" d="M143 500v-134q0 -53 9.5 -76.5t41.5 -23.5q22 0 37.5 6.5t25.5 14.5v213h119v-500h-119v194q-12 -10 -37 -22t-67 -12q-30 0 -54 7.5t-40.5 26.5t-25.5 50t-9 78v178h119z"/>
<glyph glyph-name="afii10090" horiz-adv-x="627" unicode="ш" d="M43 0v500h119v-391h92v391h119v-391h92v391h119v-500h-541z"/>
<glyph glyph-name="afii10091" horiz-adv-x="653" unicode="щ" d="M643 -114h-88l-12 114h-500v500h119v-391h92v391h119v-391h92v391h119v-391h59v-223z"/>
<glyph glyph-name="afii10092" horiz-adv-x="454" unicode="ъ" d="M204 322q20 4 40 5.5t37 1.5q42 0 72 -11.5t49 -32t27.5 -49t8.5 -62.5q0 -45 -10.5 -79t-34.5 -56.5t-63.5 -34t-97.5 -11.5q-47 0 -82.5 2t-64.5 5v391h-90v109h209v-178zM204 105q21 -6 43 -6q36 0 52 16t16 54q0 70 -66 70q-24 0 -45 -6v-128z"/>
<glyph glyph-name="afii10093" horiz-adv-x="591" unicode="ы" d="M430 500h119v-500h-119v500zM162 322q20 4 41 5.5t38 1.5q41 0 69 -11.5t45 -32.5t24.5 -49.5t7.5 -61.5q0 -45 -10 -79t-33 -56.5t-60 -34t-92 -11.5q-48 0 -84.5 2t-64.5 5v500h119v-178zM162 105q21 -6 43 -6q32 0 45.5 16.5t13.5 54.5q0 35 -13 52t-45 17 q-23 0 -44 -6v-128z"/>
<glyph glyph-name="afii10094" horiz-adv-x="411" unicode="ь" d="M162 322q20 4 41 5.5t38 1.5q42 0 71.5 -11.5t48 -32.5t26.5 -49.5t8 -61.5q0 -45 -10.5 -79t-33.5 -56.5t-61 -34t-93 -11.5q-52 0 -89 2t-65 5v500h119v-178zM162 105q21 -6 44 -6q35 0 50.5 16t15.5 54q0 34 -15 52t-49 18q-26 0 -46 -7v-127z"/>
<glyph glyph-name="afii10095" horiz-adv-x="377" unicode="э" d="M85 298h144q-3 54 -22.5 82t-63.5 28q-31 0 -54 -6.5t-40 -17.5l-32 90q54 40 149 40q92 0 139 -65t47 -199t-51.5 -198.5t-145.5 -64.5q-37 0 -76.5 7.5t-63.5 21.5l28 99q41 -22 94 -22q49 0 69.5 27.5t22.5 87.5h-144v90z"/>
<glyph glyph-name="afii10096" horiz-adv-x="611" unicode="ю" d="M332 250q0 -77 15 -116.5t53 -39.5q16 0 28 7t20 25t11.5 48t3.5 76q0 82 -14 119t-51 37q-34 0 -50 -34.5t-16 -121.5zM400 -12q-93 0 -133.5 56t-47.5 160h-57v-204h-119v500h119v-190h58q9 100 51.5 151t130.5 51q96 0 140 -68.5t44 -193.5q0 -262 -186 -262z"/>
<glyph glyph-name="afii10097" horiz-adv-x="421" unicode="я" d="M262 256v144q-15 7 -37 7q-70 0 -70 -77q0 -74 79 -76zM262 189l-45 -12l-71 -177h-139l76 161l39 32q-40 10 -65 48t-25 96q0 91 49.5 133.5t154.5 42.5h5q42 0 78.5 -4t61.5 -10v-499h-119v189z"/>
<glyph glyph-name="afii10071" horiz-adv-x="428" unicode="ё" d="M225 412q-38 0 -57 -30.5t-22 -85.5h138v18q0 44 -12 68q-15 30 -47 30zM381 37q-25 -22 -68 -36t-90 -14q-52 0 -89.5 18t-61.5 52t-35.5 82.5t-11.5 110.5q0 135 53.5 199.5t148.5 64.5q32 0 62 -9.5t53.5 -32t38 -60t14.5 -94.5q0 -22 -2.5 -47t-7.5 -54h-243 q2 -62 26 -95t77 -33q32 0 58.5 10t40.5 21zM250 632q0 32 17 50t46 18t46 -18t17 -50q0 -30 -17 -47.5t-46 -17.5t-46 17.5t-17 47.5zM64 632q0 32 17.5 50t46.5 18q28 0 45 -18t17 -50q0 -30 -17 -47.5t-45 -17.5q-29 0 -46.5 17.5t-17.5 47.5z"/>
<glyph glyph-name="afii10099" horiz-adv-x="457" unicode="ђ" d="M51 700h119v-100h133v-79h-133v-124h4q18 29 47 46t74 17q30 0 53 -9t38.5 -29.5t23.5 -54.5t8 -84v-314q0 -84 -31 -129.5t-100 -45.5q-13 0 -27.5 1.5t-30.5 5.5v102q6 -1 11 -1q34 0 46.5 25t12.5 76v250q0 55 -12.5 76.5t-44.5 21.5q-24 0 -44 -15.5t-28 -40.5v-295 h-119v521h-59v79h59v100z"/>
<glyph glyph-name="afii10100" horiz-adv-x="309" unicode="ѓ" d="M314 391h-152v-391h-119v500h271v-109zM172 720h119v-30l-94 -124h-67z"/>
<glyph glyph-name="afii10101" horiz-adv-x="371" unicode="є" d="M356 25q-23 -18 -61 -27.5t-74 -9.5q-50 0 -86.5 18.5t-60.5 53t-35.5 83t-11.5 107.5q0 127 53.5 194.5t145.5 67.5q45 0 74.5 -7t51.5 -19l-29 -101q-19 10 -38 14t-41 4q-35 0 -60 -25.5t-33 -81.5h151v-86h-152q6 -51 30.5 -82t69.5 -31q25 0 45 6t36 16z"/>
<glyph glyph-name="afii10102" horiz-adv-x="350" unicode="ѕ" d="M211 133q0 21 -13.5 35.5t-34.5 27t-44.5 25.5t-44.5 32t-34.5 46t-13.5 68q0 70 38 108t112 38q44 0 83 -9.5t62 -23.5l-28 -92q-19 8 -46 15.5t-53 7.5q-49 0 -49 -41q0 -19 13.5 -31.5t34.5 -24.5t44.5 -25t44.5 -32.5t34.5 -47.5t13.5 -69q0 -69 -42 -111t-125 -42 q-41 0 -80.5 10t-63.5 26l33 96q21 -12 48.5 -21t57.5 -9q23 0 38 10.5t15 33.5z"/>
<glyph glyph-name="afii10103" horiz-adv-x="225" unicode="і" d="M53 500h119v-500h-119v500zM38 641q0 30 19 49.5t54 19.5t56 -19t21 -50t-21 -49t-56 -18t-54 18.5t-19 48.5z"/>
<glyph glyph-name="afii10104" horiz-adv-x="274" unicode="ї" d="M75 500h119v-500h-119v500zM147 641q0 32 13 50t42 18q30 0 43.5 -18t13.5 -50q0 -29 -13.5 -47.5t-43.5 -18.5q-29 0 -42 18.5t-13 47.5zM16 641q0 32 13.5 50t42.5 18t42 -18t13 -50q0 -29 -13 -47.5t-42 -18.5t-42.5 18.5t-13.5 47.5z"/>
<glyph glyph-name="afii10105" horiz-adv-x="225" unicode="ј" d="M54 500h119v-521q0 -91 -31.5 -139t-100.5 -48q-28 0 -57 7v106h10q34 1 46 25q14 28 14 84v486zM38 641q0 30 19 49.5t54 19.5t56 -19t21 -50t-21 -49t-56 -18t-54 18.5t-19 48.5z"/>
<glyph glyph-name="afii10106" horiz-adv-x="639" unicode="љ" d="M390 105q21 -6 44 -6q35 0 50.5 16t15.5 54q0 34 -15 52t-49 18q-26 0 -46 -7v-127zM390 500v-178q20 4 41 5.5t38 1.5q42 0 71.5 -11.5t48 -32.5t26.5 -49.5t8 -61.5q0 -45 -10.5 -79t-33.5 -56.5t-61 -34t-93 -11.5q-52 0 -89 2t-65 5v391h-71q-4 -87 -11 -160 t-22.5 -125.5t-41 -82t-66.5 -29.5q-25 0 -43 3.5t-31 11.5l14 104q11 -4 21 -4q11 0 23.5 7t23.5 47.5t17.5 120.5t9.5 216h296z"/>
<glyph glyph-name="afii10107" horiz-adv-x="651" unicode="њ" d="M401 320q20 3 41 4.5t38 1.5q42 0 71.5 -11.5t48 -31.5t27 -48t8.5 -61q0 -45 -10.5 -79t-34 -56.5t-61.5 -34t-93 -11.5q-52 0 -89 2t-65 5v203h-120v-203h-119v500h119v-188h120v188h119v-180zM401 105q21 -6 44 -6q35 0 51 16.5t16 54.5q0 35 -15.5 50t-49.5 15 q-25 0 -46 -6v-124z"/>
<glyph glyph-name="afii10108" horiz-adv-x="457" unicode="ћ" d="M-8 600h59v100h119v-100h133v-79h-133v-122h4q18 27 47 44t74 17q30 0 53 -9t38.5 -30t23.5 -55t8 -84v-282h-119v255q0 51 -12.5 73.5t-44.5 22.5q-24 0 -44 -16t-28 -42v-293h-119v521h-59v79z"/>
<glyph glyph-name="afii10109" horiz-adv-x="409" unicode="ќ" d="M189 207h-27v-207h-119v500h119v-213l24 14l84 199h128l-91 -192l-44 -39l48 -39l101 -230h-134zM201 720h119v-30l-94 -124h-67z"/>
<glyph glyph-name="afii10110" horiz-adv-x="400" unicode="ў" d="M203 219l13 -78h5l9 79l58 280h122l-125 -451q-17 -59 -32 -106t-32 -80t-38.5 -50.5t-51.5 -17.5q-21 0 -40.5 3.5t-33.5 11.5l20 102q13 -5 26.5 -4.5t25 10t20.5 29.5t15 53l-174 500h143zM163 704q3 -38 16 -55t33 -17q21 0 33.5 16.5t17.5 54.5l90 -22 q-11 -68 -50.5 -99.5t-93.5 -31.5q-26 0 -51 7t-45 22.5t-33.5 40.5t-17.5 62z"/>
<glyph glyph-name="afii10193" horiz-adv-x="438" unicode="џ" d="M43 0v500h119v-391h115v391h119v-500h-122l-12 -175h-82l-16 175h-121z"/>
<glyph glyph-name="afii10146" horiz-adv-x="545" unicode="Ѣ" d="M241 112q9 -3 23.5 -4.5t28.5 -1.5q46 0 74 27t28 94q0 35 -8 57t-21.5 34.5t-32 17t-39.5 4.5q-11 0 -28.5 -2.5t-24.5 -5.5v-220zM0 645h115v80h126v-80h163v-109h-163v-95q4 1 13.5 2.5t20.5 2.5t22.5 2t21.5 1q42 0 80 -9.5t66.5 -33.5t45 -66t16.5 -108 q0 -120 -58 -181t-183 -61q-11 0 -31.5 0.5t-44.5 2t-49 5t-46 8.5v530h-115v109z"/>
<glyph glyph-name="afii10194" horiz-adv-x="454" unicode="ѣ" d="M204 105q21 -6 43 -6q36 0 52 18t16 54q0 32 -15.5 49.5t-49.5 17.5q-25 0 -46 -6v-127zM-5 500h90v200h119v-200h132v-91h-132v-87q20 4 41 5.5t38 1.5q42 0 71.5 -11.5t48 -32.5t27 -49.5t8.5 -61.5q0 -45 -10.5 -79t-34.5 -56.5t-63.5 -34t-96.5 -11.5q-48 0 -83.5 2 t-64.5 5v409h-90v91z"/>
<glyph glyph-name="afii10147" horiz-adv-x="552" unicode="Ѳ" d="M391 405q-3 42 -10.5 77t-21.5 61t-34.5 40.5t-48.5 14.5q-103 0 -115 -193h230zM276 102q52 0 81.5 47t34.5 150h-231q3 -44 10.5 -80t21.5 -62t34.5 -40.5t48.5 -14.5zM29 350q0 178 61 271t186 93q65 0 112 -25.5t77 -73t44 -115t14 -150.5q0 -178 -62 -271t-185 -93 q-66 0 -112.5 25.5t-76.5 73t-44 115t-14 150.5z"/>
<glyph glyph-name="afii10195" horiz-adv-x="445" unicode="ѳ" d="M148 208q3 -61 24 -88.5t50 -27.5t50 24.5t25 91.5h-149zM297 289q-5 66 -24 92.5t-50 26.5q-29 0 -50 -25.5t-25 -93.5h149zM25 250q0 129 51.5 196.5t145.5 67.5q50 0 87 -18.5t62 -53t37 -83t12 -109.5q0 -130 -52 -197t-146 -67q-50 0 -87 18.5t-61.5 53t-36.5 83 t-12 109.5z"/>
<glyph glyph-name="afii10148" horiz-adv-x="528" unicode="Ѵ" d="M297 -5h-96l-213 705h148l104 -411l14 -120h4l13 121l55 229q13 55 27 92t31.5 58.5t40.5 30.5t53 9q32 0 53 -6t39 -16l-26 -112q-14 8 -24.5 10.5t-21.5 2.5q-20 0 -32 -21t-22 -59z"/>
<glyph glyph-name="afii10196" horiz-adv-x="436" unicode="ѵ" d="M130 500l68 -255l13 -84h4l10 85l18 71q12 52 24.5 88.5t28 59.5t35.5 33.5t47 10.5q21 0 40.5 -4.5t33.5 -12.5l-17 -103q-16 7 -26 7q-14 0 -27 -14t-26 -53l-110 -334h-76l-179 505h139z"/>
<glyph glyph-name="uni048A" horiz-adv-x="589" unicode="Ҋ" d="M221 874q6 -61 56 -61t56 60l102 -15q-8 -65 -49 -94t-110 -29q-35 0 -64 6t-51 20t-36 37t-18 58zM376 373l10 99h-5l-38 -106l-199 -366h-99v700h126v-366l-11 -102h5l40 109l199 359h98v-591h92v-31l-80 -208h-88l37 130h-87v373z"/>
<glyph glyph-name="uni048B" horiz-adv-x="491" unicode="ҋ" d="M188 704q3 -38 16 -55t33 -17q21 0 33.5 16.5t17.5 54.5l90 -22q-11 -68 -50.5 -99.5t-93.5 -31.5q-26 0 -51 7t-45 22.5t-33.5 40.5t-17.5 62zM288 218l9 81h-3l-37 -85l-134 -214h-80v500h119v-227l-9 -78h3l36 83l135 222h80v-391h86v-31l-80 -192h-88l37 114h-74v218 z"/>
<glyph glyph-name="uni048C" horiz-adv-x="545" unicode="Ҍ" d="M241 112q9 -3 23.5 -4.5t28.5 -1.5q46 0 74 27t28 94q0 35 -8 57t-21.5 34.5t-32 17t-39.5 4.5q-11 0 -28.5 -2.5t-24.5 -5.5v-220zM0 645h115v80h126v-80h163v-109h-163v-95q4 1 13.5 2.5t20.5 2.5t22.5 2t21.5 1q42 0 80 -9.5t66.5 -33.5t45 -66t16.5 -108 q0 -120 -58 -181t-183 -61q-11 0 -31.5 0.5t-44.5 2t-49 5t-46 8.5v530h-115v109z"/>
<glyph glyph-name="uni048D" horiz-adv-x="454" unicode="ҍ" d="M204 105q21 -6 43 -6q36 0 52 18t16 54q0 32 -15.5 49.5t-49.5 17.5q-25 0 -46 -6v-127zM-5 500h90v200h119v-200h132v-91h-132v-87q20 4 41 5.5t38 1.5q42 0 71.5 -11.5t48 -32.5t27 -49.5t8.5 -61.5q0 -45 -10.5 -79t-34.5 -56.5t-63.5 -34t-96.5 -11.5q-48 0 -83.5 2 t-64.5 5v409h-90v91z"/>
<glyph glyph-name="uni048E" horiz-adv-x="477" unicode="Ҏ" d="M247 481l60 -88q9 15 14.5 36.5t5.5 50.5q0 33 -8.5 56t-23 36.5t-33.5 19.5t-40 6q-31 0 -51 -5v-239q6 -2 22.5 -3.5t22.5 -1.5q23 0 44 6l-49 72zM45 693q36 8 79 12.5t86 4.5q46 0 90.5 -8.5t79.5 -33.5t57 -70.5t22 -118.5q0 -65 -18 -110t-48 -74l51 -75l-75 -63 l-65 89q-33 -9 -68 -9h-13t-19 0.5t-19.5 1.5t-13.5 2v-241h-126v693z"/>
<glyph glyph-name="uni048F" horiz-adv-x="447" unicode="ҏ" d="M238 193l44 -54q8 21 12.5 52t4.5 75q0 71 -16 105.5t-53 34.5q-50 0 -68 -59v-235q10 -10 22.5 -15t32.5 -5q17 0 31 6l-42 54zM43 500h89l12 -57h3q23 36 51.5 52.5t70.5 16.5q76 0 114.5 -57.5t38.5 -191.5q0 -137 -50 -208l39 -52l-71 -65l-47 57q-26 -9 -58 -9 q-24 0 -41 4t-32 13v-203h-119v700z"/>
<glyph glyph-name="afii10050" horiz-adv-x="381" unicode="Ґ" d="M388 584h-217v-584h-126v700h245l17 152h81v-268z"/>
<glyph glyph-name="afii10098" horiz-adv-x="309" unicode="ґ" d="M314 391h-152v-391h-119v500h173l17 152h81v-261z"/>
<glyph glyph-name="uni0492" horiz-adv-x="424" unicode="Ғ" d="M423 584h-217v-200h181v-87h-181v-297h-126v297h-79v87h79v316h343v-116z"/>
<glyph glyph-name="uni0493" horiz-adv-x="338" unicode="ғ" d="M334 391h-152v-117h134v-79h-134v-195h-119v195h-63v79h63v226h271v-109z"/>
<glyph glyph-name="uni0494" horiz-adv-x="485" unicode="Ҕ" d="M171 0h-126v700h343v-116h-217v-209q14 6 42.5 14t65.5 8q36 0 68 -11t56.5 -39.5t39 -78t14.5 -125.5q0 -67 -10.5 -117.5t-33.5 -84.5t-61 -51t-93 -17q-40 0 -51 4v111q6 -2 18 -2h25q38 0 56 35.5t18 116.5q0 43 -6 70.5t-17.5 43.5t-27.5 22.5t-36 6.5 q-18 0 -37 -6.5t-30 -12.5v-262z"/>
<glyph glyph-name="uni0495" horiz-adv-x="443" unicode="ҕ" d="M162 0h-119v500h268v-109h-149v-132q14 6 39 13.5t63 7.5q31 0 59 -10t49 -36.5t33.5 -72.5t12.5 -119q0 -63 -9.5 -110.5t-31 -79t-57.5 -47.5t-89 -16q-22 0 -34 1.5t-18 3.5v106q5 -1 17 -1.5t25 -0.5q37 0 54 32.5t17 110.5q0 38 -5 63t-14 40t-22.5 21t-29.5 6 q-18 0 -34.5 -5t-24.5 -10v-156z"/>
<glyph glyph-name="uni0496" horiz-adv-x="726" unicode="Җ" d="M287 700h119v-313l29 14l105 299h141l-125 -308l-40 -33l49 -41l89 -202h69v-241h-89l-13 125h-67l-117 305h-31v-305h-119v317l-28 -14l-118 -303h-146l140 308l46 38l-45 36l-130 318h146l104 -301h31v301z"/>
<glyph glyph-name="uni0497" horiz-adv-x="612" unicode="җ" d="M378 207h-33v-207h-113v217l-31 -14l-73 -203h-132l100 229l29 30l-42 38l-78 203h126l67 -203h34v203h113v-213l30 14l67 199h126l-83 -203l-33 -32l42 -40l47 -116h68v-223h-88l-13 114h-57z"/>
<glyph glyph-name="uni0498" horiz-adv-x="435" unicode="Ҙ" d="M98 313v102h24q15 0 37 1t35 6q27 8 46 30t19 57q0 49 -23.5 68t-65.5 19q-34 0 -63.5 -10.5t-46.5 -21.5l-32 109q10 6 28 13t40.5 13t48 9.5t51.5 3.5q38 0 73.5 -7.5t62.5 -27t43 -53.5t16 -87q0 -51 -21.5 -95t-69.5 -65v-6q52 -14 80.5 -56t28.5 -114q0 -49 -14 -86 t-38 -62.5t-56 -41t-68 -21.5l-11 -165h-82l-15 164q-35 5 -64 13t-49 19l33 112q19 -11 52.5 -21t78.5 -10q41 0 71 26.5t30 83.5q0 49 -27.5 73.5t-96.5 26.5q-11 0 -15 0.5t-17 0.5h-23z"/>
<glyph glyph-name="uni0499" horiz-adv-x="354" unicode="ҙ" d="M85 208v89h48q27 0 44 16t17 39q0 50 -62 50q-30 0 -53 -8t-37 -17l-27 95q26 15 68 25.5t87 10.5q143 0 143 -124q0 -37 -16 -69.5t-48 -46.5v-4q42 -12 61 -42t19 -81t-27.5 -90.5t-87.5 -53.5l-12 -172h-82l-16 168q-29 4 -51 11.5t-39 18.5l24 97q19 -11 44.5 -17.5 t54.5 -6.5q73 0 73 59q0 25 -18.5 39t-68.5 14h-38z"/>
<glyph glyph-name="uni049A" horiz-adv-x="534" unicode="Қ" d="M198 300h-27v-300h-126v700h126v-311l25 12l147 299h142l-160 -295l-47 -37l48 -38l120 -214h83v-241h-89l-12 125h-71z"/>
<glyph glyph-name="uni049B" horiz-adv-x="440" unicode="қ" d="M189 207h-27v-207h-119v500h119v-213l24 14l84 199h128l-91 -192l-44 -39l48 -39l53 -121h70v-223h-88l-13 114h-55z"/>
<glyph glyph-name="uni049C" horiz-adv-x="604" unicode="Ҝ" d="M216 527h83v-125l19 2l120 296h135l-130 -294l-47 -38l47 -39l153 -329h-145l-130 299h-22v-127h-83v127h-45v-299h-126v700h126v-310l45 4v133z"/>
<glyph glyph-name="uni049D" horiz-adv-x="491" unicode="ҝ" d="M195 411h65v-112l18 2l65 199h125l-72 -193l-45 -38l47 -38l83 -231h-130l-69 207h-22v-118h-65v118h-33v-207h-119v500h119v-213l33 4v120z"/>
<glyph glyph-name="uni049E" horiz-adv-x="579" unicode="Ҟ" d="M1 640h105v60h126v-60h73v-85h-73v-166l44 14l132 297h138l-144 -294l-58 -38l53 -39l174 -329h-153l-148 300h-38v-300h-126v544h-105v96z"/>
<glyph glyph-name="uni049F" horiz-adv-x="419" unicode="ҟ" d="M-15 626h66v74h119v-74h126v-79h-126v-260l24 14l83 199h129l-92 -198l-43 -34l47 -34l102 -234h-134l-88 207h-28v-207h-119v547h-66v79z"/>
<glyph glyph-name="uni04A0" horiz-adv-x="604" unicode="Ҡ" d="M131 584h-131v116h257v-311l25 12l147 299h142l-160 -295l-47 -37l47 -38l185 -330h-153l-159 300h-27v-300h-126v563v21z"/>
<glyph glyph-name="uni04A1" horiz-adv-x="453" unicode="ҡ" d="M204 287l25 13l84 200h127l-90 -190l-45 -38l47 -39l102 -233h-134l-88 207h-28v-207h-119v391h-90v109h209v-213z"/>
<glyph glyph-name="uni04A2" horiz-adv-x="575" unicode="Ң" d="M362 296h-191v-296h-126v700h126v-288h191v288h126v-584h73v-241h-89l-12 125h-98v296z"/>
<glyph glyph-name="uni04A3" horiz-adv-x="472" unicode="ң" d="M282 199h-120v-199h-119v500h119v-192h120v192h119v-391h64v-223h-88l-13 114h-82v199z"/>
<glyph glyph-name="uni04A4" horiz-adv-x="697" unicode="Ҥ" d="M705 584h-217v-584h-126v296h-191v-296h-126v700h126v-288h191v288h343v-116z"/>
<glyph glyph-name="uni04A5" horiz-adv-x="546" unicode="ҥ" d="M551 391h-150v-391h-119v199h-120v-199h-119v500h119v-192h120v192h269v-109z"/>
<glyph glyph-name="uni04A6" horiz-adv-x="791" unicode="Ҧ" d="M479 233v-233h-126v584h-182v-584h-126v700h434v-325q14 6 42 14t65 8q36 0 68 -11t57 -39.5t39.5 -78t14.5 -125.5q0 -65 -10 -115t-33 -84.5t-61 -52.5t-94 -18q-41 0 -52 4v111q6 -2 18 -2h25q38 0 56.5 36.5t18.5 115.5q0 41 -6 68.5t-17.5 44t-28 23.5t-36.5 7 q-17 0 -37 -6.5t-29 -12.5v-29z"/>
<glyph glyph-name="uni04A7" horiz-adv-x="677" unicode="ҧ" d="M397 0h-119v391h-116v-391h-119v500h354v-240q14 6 39 13t63 7q30 0 57.5 -10t49 -36.5t34 -72t12.5 -116.5q0 -65 -9.5 -113t-31.5 -79.5t-58 -47.5t-90 -16q-21 0 -32 1.5t-18 3.5v106q6 -1 18 -1.5t25 -0.5q37 0 55 33.5t18 108.5q0 38 -5 63t-15 40t-23.5 21.5 t-29.5 6.5q-17 0 -33.5 -5t-25.5 -10v-156z"/>
<glyph glyph-name="uni04A8" horiz-adv-x="742" unicode="Ҩ" d="M399 371q0 -31 5 -63.5t14.5 -62t24 -55t34.5 -43.5q17 16 31.5 41t25.5 56.5t17 69t6 78.5q0 36 -3.5 67.5t-12 55t-23.5 36.5t-37 13q-38 0 -60 -47.5t-22 -145.5zM295 598q-64 0 -99 -58.5t-35 -183.5q0 -61 13 -108.5t34.5 -79.5t49.5 -49t57 -17q10 0 21 1t17 4 q-35 31 -60.5 99t-25.5 161q0 156 57 234.5t159 78.5q55 0 94 -21t64 -58.5t36.5 -89.5t11.5 -113q0 -57 -10.5 -105t-27 -86t-36 -64.5t-37.5 -39.5q5 -1 11 -1h11q22 0 44 7.5t37 20.5l39 -101q-43 -43 -126 -43q-34 0 -71 11.5t-60 36.5q-29 -23 -64 -35.5t-84 -12.5 q-140 0 -213 95.5t-73 269.5q0 181 65 272t201 91v-116z"/>
<glyph glyph-name="uni04A9" horiz-adv-x="598" unicode="ҩ" d="M341 268q0 -45 12.5 -83.5t35.5 -62.5q24 21 38 65t14 98q0 51 -11.5 80t-35.5 29q-32 0 -42.5 -34t-10.5 -92zM226 408q-42 -4 -60.5 -42t-18.5 -113t27.5 -117.5t72.5 -42.5q8 0 17 1.5t14 6.5q-20 20 -36 65.5t-16 103.5q0 42 8.5 83t28.5 74t53 53t82 20q47 0 79 -17 t51.5 -45.5t27.5 -66t8 -79.5q0 -34 -7 -65.5t-18 -58t-25 -46.5t-28 -31q10 -5 23 -5q8 0 23 3.5t29 17.5l25 -86q-16 -16 -41 -25t-60 -9q-36 0 -62.5 11t-43.5 30q-27 -23 -61.5 -32t-72.5 -9q-55 0 -96.5 18.5t-69 52.5t-41.5 83t-14 109q0 58 10.5 105.5t34.5 82 t62.5 54.5t94.5 22v-106z"/>
<glyph glyph-name="uni04AA" horiz-adv-x="457" unicode="Ҫ" d="M442 28q-18 -15 -45.5 -24.5t-57.5 -13.5l-11 -165h-82l-15 166q-44 8 -81 32t-64 67.5t-42 107.5t-15 153q0 106 22.5 176t59 111.5t83.5 58.5t95 17q49 0 85.5 -8t59.5 -18l-25 -111q-19 10 -44.5 15.5t-60.5 5.5q-69 0 -106 -60t-37 -188q0 -55 8.5 -100.5t27 -78.5 t47 -51t68.5 -18q35 0 60 9.5t45 22.5z"/>
<glyph glyph-name="uni04AB" horiz-adv-x="350" unicode="ҫ" d="M338 27q-30 -24 -73 -33l-11 -169h-82l-16 168q-71 18 -101 85.5t-30 171.5q0 131 47 197t138 66q45 0 73.5 -8t50.5 -20l-28 -99q-18 9 -34.5 13.5t-39.5 4.5q-42 0 -63 -36.5t-21 -117.5q0 -68 21.5 -111t68.5 -43q25 0 42.5 6.5t32.5 16.5z"/>
<glyph glyph-name="uni04AC" horiz-adv-x="474" unicode="Ҭ" d="M174 584h-166v116h458v-116h-166v-468h73v-241h-89l-12 125h-98v584z"/>
<glyph glyph-name="uni04AD" horiz-adv-x="345" unicode="ҭ" d="M113 391h-112v109h343v-109h-112v-282h70v-223h-88l-13 114h-88v391z"/>
<glyph glyph-name="uni04AE" horiz-adv-x="495" unicode="Ү" d="M184 260l-188 440h150l97 -265l10 -76h5l11 78l95 263h135l-189 -439v-261h-126v260z"/>
<glyph glyph-name="uni04AF" horiz-adv-x="408" unicode="ү" d="M-9 500h139l69 -290l13 -100h4l10 101l62 289h129l-148 -501v-199h-119v199z"/>
<glyph glyph-name="uni04B0" horiz-adv-x="495" unicode="Ұ" d="M56 292h114l-174 408h150l97 -265l10 -76h5l11 78l95 263h135l-176 -408h115v-86h-128v-206h-126v206h-128v86z"/>
<glyph glyph-name="uni04B1" horiz-adv-x="408" unicode="ұ" d="M53 0h96l-158 500h139l69 -290l13 -100h4l10 101l62 289h129l-148 -500h95v-79h-95v-121h-119v121h-97v79z"/>
<glyph glyph-name="uni04B2" horiz-adv-x="558" unicode="Ҳ" d="M177 356l-155 344h152l81 -200l19 -76l18 76l85 200h136l-160 -337l114 -247h86v-241h-89l-12 125h-78l-94 215l-21 78l-20 -78l-94 -215h-139z"/>
<glyph glyph-name="uni04B3" horiz-adv-x="455" unicode="ҳ" d="M133 256l-119 244h140l51 -118l19 -64l21 64l52 118h129l-120 -240l74 -151h70v-223h-88l-13 114h-50l-61 130l-22 71l-23 -71l-61 -130h-128z"/>
<glyph glyph-name="uni04B4" horiz-adv-x="692" unicode="Ҵ" d="M679 -125h-89l-13 125h-403v584h-166v116h399v-116h-107v-468h180v584h126v-584h73v-241z"/>
<glyph glyph-name="uni04B5" horiz-adv-x="538" unicode="ҵ" d="M527 -114h-88l-12 114h-314v391h-112v109h306v-109h-75v-282h116v391h119v-391h60v-223z"/>
<glyph glyph-name="uni04B6" horiz-adv-x="545" unicode="Ҷ" d="M160 700v-230q0 -62 18 -88.5t59 -26.5q29 0 54.5 9t40.5 26v310h126v-584h73v-241h-89l-12 125h-98v282q-20 -14 -55.5 -26.5t-83.5 -12.5q-33 0 -62 9.5t-50.5 31t-34 57t-12.5 88.5v271h126z"/>
<glyph glyph-name="uni04B7" horiz-adv-x="453" unicode="ҷ" d="M143 500v-134q0 -53 9.5 -76.5t41.5 -23.5q22 0 37.5 6.5t25.5 14.5v213h119v-391h68v-223h-88l-13 114h-86v194q-12 -10 -37 -22t-67 -12q-30 0 -54 7.5t-40.5 26.5t-25.5 50t-9 78v178h119z"/>
<glyph glyph-name="uni04B8" horiz-adv-x="543" unicode="Ҹ" d="M226 244q-7 -1 -13 -1h-12q-77 0 -122 43t-45 144v270h126v-229q0 -56 14.5 -83t51.5 -32v121h84v-114q39 9 62 26v311h126v-700h-126v283q-11 -7 -26.5 -14t-35.5 -12v-135h-84v122z"/>
<glyph glyph-name="uni04B9" horiz-adv-x="456" unicode="ҹ" d="M189 159q-8 -1 -14.5 -1h-14.5q-33 0 -58.5 8t-43 28t-26.5 53t-9 83v170h119v-126q0 -51 10 -77.5t37 -32.5v122h66v-117q27 6 39 18v213h119v-500h-119v194q-12 -9 -39 -20v-115h-66v100z"/>
<glyph glyph-name="uni04BA" horiz-adv-x="506" unicode="Һ" d="M344 0v227q0 60 -17 89.5t-60 29.5q-29 0 -54.5 -9t-41.5 -25v-312h-126v700h126v-282q21 14 57 27t86 13q35 0 64 -10t49.5 -33t31.5 -59.5t11 -89.5v-266h-126z"/>
<glyph glyph-name="uni04BB" horiz-adv-x="449" unicode="һ" d="M291 0v302q0 54 -12.5 78t-45.5 24q-24 0 -44 -17t-27 -43v-344h-119v700h119v-245h3q20 26 48.5 42t71.5 16q31 0 54 -9t39 -30t24 -56.5t8 -89.5v-328h-119z"/>
<glyph glyph-name="uni04BC" horiz-adv-x="667" unicode="Ҽ" d="M509 405q1 11 1.5 20.5t0.5 20.5q0 31 -5.5 60t-17.5 51t-30.5 35t-45.5 13q-56 0 -83 -54t-30 -146h210zM300 296q4 -91 38 -142.5t108 -51.5q36 0 67 13t60 35l32 -109q-79 -55 -183 -55q-115 0 -179 78.5t-69 231.5h-25q-42 0 -71 11.5t-46 31t-24.5 45.5t-7.5 56 q1 24 7 46t15 36h103q-10 -16 -14 -33.5t-4 -32.5q0 -9 2.5 -18.5t9.5 -17t18 -11t23 -3.5q6 0 14 1q3 70 19.5 127t46 97t71.5 61.5t98 21.5q114 0 168.5 -74.5t54.5 -218.5q0 -58 -9 -125h-323z"/>
<glyph glyph-name="uni04BD" horiz-adv-x="543" unicode="ҽ" d="M347 412q-38 0 -57 -30.5t-22 -85.5h138v18q0 44 -13.5 71t-45.5 27zM503 37q-25 -22 -68 -36t-90 -14q-95 0 -142.5 62t-54.5 168h-8q-66 0 -101.5 29t-35.5 91v7q0 29 8 48t20 35h99q-13 -12 -21.5 -33.5t-8.5 -47.5q0 -19 10 -32.5t36 -13.5h4q11 106 62.5 160 t136.5 54q32 0 62 -9.5t53.5 -32t38 -60t14.5 -94.5q0 -22 -2.5 -47t-7.5 -54h-243q2 -62 26 -95t77 -33q32 0 58.5 10t40.5 21z"/>
<glyph glyph-name="uni04BE" horiz-adv-x="667" unicode="Ҿ" d="M509 405q1 11 1.5 20.5t0.5 20.5q0 31 -5.5 60t-17.5 51t-30.5 35t-45.5 13q-56 0 -83 -54t-30 -146h210zM300 296q4 -91 38 -142.5t108 -51.5q36 0 67 13t60 35l32 -109q-58 -40 -130 -51l-11 -165h-82l-15 166q-90 17 -139 94t-54 211h-25q-42 0 -71 11.5t-46 31 t-24.5 45.5t-7.5 56q1 24 7 46t15 36h103q-10 -16 -14 -33.5t-4 -32.5q0 -9 2.5 -18.5t9.5 -17t18 -11t23 -3.5q6 0 14 1q3 70 19.5 127t46 97t71.5 61.5t98 21.5q114 0 168.5 -74.5t54.5 -218.5q0 -58 -9 -125h-323z"/>
<glyph glyph-name="uni04BF" horiz-adv-x="543" unicode="ҿ" d="M347 412q-38 0 -57 -30.5t-22 -85.5h138v18q0 44 -13.5 71t-45.5 27zM503 37q-17 -15 -44 -27t-59 -17l-11 -168h-82l-16 168q-69 17 -103.5 75t-39.5 149h-8q-66 0 -101.5 29t-35.5 91v7q0 29 8 48t20 35h99q-13 -12 -21.5 -33.5t-8.5 -47.5q0 -19 10 -32.5t36 -13.5h4 q11 106 62.5 160t136.5 54q32 0 62 -9.5t53.5 -32t38 -60t14.5 -94.5q0 -22 -2.5 -47t-7.5 -54h-243q2 -62 26 -95t77 -33q32 0 58.5 10t40.5 21z"/>
<glyph glyph-name="uni04C0" horiz-adv-x="238" unicode="Ӏ" d="M56 700h126v-700h-126v700z"/>
<glyph glyph-name="uni04C3" horiz-adv-x="512" unicode="Ӄ" d="M340 77q0 53 -6.5 94.5t-22 70t-42.5 43.5t-68 15h-30v-300h-126v700h126v-311l25 12l147 299h142l-154 -280l-51 -40h39q39 -12 67 -33t45.5 -54.5t26 -82t8.5 -115.5v-27q0 -141 -48 -207.5t-133 -66.5q-12 0 -25 1t-27 4v107q7 -1 13 -1q50 0 72 38.5t22 133.5z"/>
<glyph glyph-name="uni04C4" horiz-adv-x="418" unicode="ӄ" d="M274 32q0 85 -20.5 126t-64.5 46h-27v-204h-119v500h119v-217l24 12l84 205h128l-92 -199l-40 -32l33 -3q30 -10 48.5 -32t28.5 -51.5t13.5 -65t3.5 -72.5v-17q0 -122 -38.5 -178.5t-111.5 -56.5q-29 0 -58 7v105q9 -2 17 -2q32 0 52 28t20 101z"/>
<glyph glyph-name="uni04C5" horiz-adv-x="547" unicode="Ӆ" d="M345 584h-106q-7 -190 -19 -317.5t-46 -194.5q-12 -24 -27.5 -39.5t-31 -24t-31.5 -12t-29 -3.5q-21 0 -37 3.5t-30 10.5l14 114q9 -4 19 -4l17 5q18 5 30 31q12 22 21 64.5t15.5 109.5t10 159t5.5 214h351v-591h81v-31l-80 -208h-88l37 130h-76v584z"/>
<glyph glyph-name="uni04C6" horiz-adv-x="466" unicode="ӆ" d="M271 391h-72q-4 -87 -11 -160t-22 -125.5t-40.5 -82t-66.5 -29.5q-25 0 -43 3.5t-31 11.5l14 104q11 -4 21 -4q11 0 23.5 7t23.5 47.5t17.5 120.5t9.5 216h296v-391h78v-31l-80 -192h-88l37 114h-66v391z"/>
<glyph glyph-name="uni04C7" horiz-adv-x="533" unicode="Ӈ" d="M488 0v-30q0 -177 -134 -177q-25 0 -55 6v106q6 -1 11 -1q14 0 24.5 5t17 17.5t8.5 31t2 42.5v296h-191v-296h-126v700h126v-288h191v288h126v-700z"/>
<glyph glyph-name="uni04C8" d="M282 199h-120v-199h-119v500h119v-192h120v192h119v-531q0 -84 -31 -129.5t-100 -45.5q-13 0 -27.5 1.5t-30.5 5.5v103q6 -1 11 -1q33 0 46 23t13 74v199z" unicode="ӈ"/>
<glyph glyph-name="uni04C9" horiz-adv-x="567" unicode="Ӊ" d="M362 296h-191v-296h-126v700h126v-288h191v288h126v-591h84v-31l-80 -208h-88l37 130h-79v296z"/>
<glyph glyph-name="uni04CA" horiz-adv-x="482" unicode="ӊ" d="M282 199h-120v-199h-119v500h119v-192h120v192h119v-391h83v-31l-80 -192h-88l37 114h-71v199z"/>
<glyph glyph-name="uni04CB" horiz-adv-x="503" unicode="Ӌ" d="M160 700v-230q0 -62 18 -88.5t59 -26.5q29 0 54.5 9t40.5 26v310h126v-700h-97l-12 -125h-89v241h72v166q-20 -14 -55.5 -26.5t-83.5 -12.5q-33 0 -62 9.5t-50.5 31t-34 57t-12.5 88.5v271h126z"/>
<glyph glyph-name="uni04CC" horiz-adv-x="420" unicode="ӌ" d="M258 208q-13 -11 -37.5 -21.5t-67.5 -10.5q-60 0 -94.5 37.5t-34.5 127.5v159h119v-110q0 -57 10 -82.5t42 -25.5q21 0 37 5.5t26 13.5v199h119v-500h-100l-12 -114h-88v208h81v114z"/>
<glyph glyph-name="uni04CD" horiz-adv-x="705" unicode="Ӎ" d="M493 361l14 134h-5l-37 -120l-114 -246h-42l-121 247l-37 121h-6l19 -135v-362h-119v700h121l146 -303l24 -87h4l23 89l137 301h119v-591h92v-31l-80 -208h-88l37 130h-87v361z"/>
<glyph glyph-name="uni04CE" horiz-adv-x="593" unicode="ӎ" d="M399 230l7 103h-5l-30 -93l-73 -150h-45l-80 150l-31 93h-6l13 -103v-230h-106v500h125l91 -184l20 -67h4l21 69l84 182h124v-391h83v-31l-80 -192h-88l37 114h-65v230z"/>
<glyph glyph-name="uni04CF" horiz-adv-x="217" unicode="ӏ" d="M49 700h119v-700h-119v700z"/>
<glyph glyph-name="uni04D0" horiz-adv-x="501" unicode="Ӑ" d="M190 262h116l-40 163l-16 110h-4l-17 -111zM328 158h-165l-41 -158h-125l203 705h99l204 -705h-132zM197 874q6 -61 56 -61t56 60l102 -15q-8 -65 -49 -94t-110 -29q-35 0 -64 6t-51 20t-36 37t-18 58z"/>
<glyph glyph-name="uni04D1" horiz-adv-x="413" unicode="ӑ" d="M187 95q27 0 44 13.5t25 29.5v83q-14 2 -27 2q-9 0 -17 -1q-21 -2 -37 -9t-25.5 -20.5t-9.5 -34.5q0 -31 12.5 -47t34.5 -16zM44 470q30 18 75 29t102 11q85 0 118.5 -44t33.5 -125q0 -47 -3 -93q-2 -44 -3 -88v-25q-1 -29 1 -59q2 -40 14 -77h-97l-19 61h-4 q-16 -29 -45 -48t-73 -19q-59 0 -93 39.5t-34 105.5q0 90 64 128q55 33 144 33q14 0 29 -1q1 17 1 31q-1 35 -9 53q-12 26 -53 26q-30 0 -62 -7t-57 -20zM163 704q3 -38 16 -55t33 -17q21 0 33.5 16.5t17.5 54.5l90 -22q-11 -68 -50.5 -99.5t-93.5 -31.5q-26 0 -51 7 t-45 22.5t-33.5 40.5t-17.5 62z"/>
<glyph glyph-name="uni04D2" horiz-adv-x="501" unicode="Ӓ" d="M190 262h116l-40 163l-16 110h-4l-17 -111zM328 158h-165l-41 -158h-125l203 705h99l204 -705h-132zM273 798q0 26 15.5 42t51.5 16q37 0 52.5 -16t15.5 -42t-15.5 -41.5t-52.5 -15.5q-36 0 -51.5 15.5t-15.5 41.5zM91 798q0 26 15.5 42t53.5 16q35 0 50.5 -16t15.5 -42 t-15.5 -41.5t-50.5 -15.5q-38 0 -53.5 15.5t-15.5 41.5z"/>
<glyph glyph-name="uni04D3" horiz-adv-x="413" unicode="ӓ" d="M187 95q27 0 44 13.5t25 29.5v83q-14 2 -27 2q-9 0 -17 -1q-21 -2 -37 -9t-25.5 -20.5t-9.5 -34.5q0 -31 12.5 -47t34.5 -16zM44 470q30 18 75 29t102 11q85 0 118.5 -44t33.5 -125q0 -47 -3 -93q-2 -44 -3 -88v-25q-1 -29 1 -59q2 -40 14 -77h-97l-19 61h-4 q-16 -29 -45 -48t-73 -19q-59 0 -93 39.5t-34 105.5q0 90 64 128q55 33 144 33q14 0 29 -1q1 17 1 31q-1 35 -9 53q-12 26 -53 26q-30 0 -62 -7t-57 -20zM238 632q0 32 17 50t46 18t46 -18t17 -50q0 -30 -17 -47.5t-46 -17.5t-46 17.5t-17 47.5zM52 632q0 32 17.5 50 t46.5 18q28 0 45 -18t17 -50q0 -30 -17 -47.5t-45 -17.5q-29 0 -46.5 17.5t-17.5 47.5z"/>
<glyph glyph-name="uni04D4" horiz-adv-x="717" unicode="Ӕ" d="M331 173h-144l-79 -173h-132l350 700h355v-116h-224v-172h203v-116h-203v-180h228v-116h-354v173zM326 522l-26 -97l-65 -148h96v245h-5z"/>
<glyph glyph-name="uni04D5" horiz-adv-x="653" unicode="ӕ" d="M510 295v17q0 42 -12 68q-15 32 -48 32q-38 0 -56 -30t-21 -87h137zM287 68q-21 -34 -53.5 -55t-87.5 -21q-60 0 -94.5 41t-34.5 106q0 46 16.5 77.5t47 51t74.5 27.5q32 6 69 6q14 0 29 -1q1 9 1 16.5v15.5q0 39 -13 56.5t-47 17.5q-31 0 -63 -9t-57 -23l-31 90 q32 21 78 33.5t96 12.5q42 0 68.5 -13t43.5 -41q20 29 52 43.5t72 14.5q32 0 62.5 -9.5t54 -32.5t37.5 -61t14 -95q0 -22 -2.5 -47t-7.5 -53h-241q2 -66 25 -96.5t75 -30.5q31 0 57.5 9.5t40.5 20.5l39 -83q-25 -20 -67 -34.5t-93 -14.5q-109 0 -155 81h-5zM257 223 q-13 1 -26 1h-18q-21 -2 -37.5 -9.5t-26 -21t-9.5 -35.5q0 -28 12 -44t35 -16q28 0 45 13.5t25 31.5v80z"/>
<glyph glyph-name="uni04D6" horiz-adv-x="430" unicode="Ӗ" d="M45 700h350v-116h-224v-172h203v-116h-203v-180h228v-116h-354v700zM170 874q6 -61 56 -61t56 60l102 -15q-8 -65 -49 -94t-110 -29q-35 0 -64 6t-51 20t-36 37t-18 58z"/>
<glyph glyph-name="uni04D7" horiz-adv-x="428" unicode="ӗ" d="M225 412q-38 0 -57 -30.5t-22 -85.5h138v18q0 44 -12 68q-15 30 -47 30zM381 37q-25 -22 -68 -36t-90 -14q-52 0 -89.5 18t-61.5 52t-35.5 82.5t-11.5 110.5q0 135 53.5 199.5t148.5 64.5q32 0 62 -9.5t53.5 -32t38 -60t14.5 -94.5q0 -22 -2.5 -47t-7.5 -54h-243 q2 -62 26 -95t77 -33q32 0 58.5 10t40.5 21zM171 704q3 -38 16 -55t33 -17q21 0 33.5 16.5t17.5 54.5l90 -22q-11 -68 -50.5 -99.5t-93.5 -31.5q-26 0 -51 7t-45 22.5t-33.5 40.5t-17.5 62z"/>
<glyph glyph-name="uni04D8" horiz-adv-x="521" unicode="Ә" d="M359 407q-2 44 -10 79.5t-23.5 60t-40.5 38t-62 13.5q-42 0 -74.5 -14.5t-52.5 -27.5l-28 110q14 9 33.5 17.5t43 15.5t48.5 11t51 4q61 0 107 -20.5t77 -65t47 -113.5t16 -165q0 -85 -13 -152.5t-42 -114.5t-74.5 -72t-111.5 -25q-58 0 -99.5 21t-68.5 59.5t-40 93 t-13 122.5q0 59 9 125h321zM160 301q-2 -12 -2 -24.5v-23.5q0 -33 5.5 -61.5t17.5 -50t30 -34t44 -12.5q55 0 79.5 50.5t24.5 155.5h-199z"/>
<glyph glyph-name="afii10846" horiz-adv-x="420" unicode="ә" d="M200 89q37 0 57 33q19 31 19 86v5h-140q-1 -10 -1 -20q0 -41 14 -69q17 -34 51 -35zM39 465q26 21 69.5 34.5t92.5 13.5q100 0 147 -69.5t47 -193.5q0 -133 -52.5 -198t-142.5 -65q-33 0 -64.5 10.5t-56 34.5t-39 63t-14.5 97q0 22 2.5 47t7.5 53h240q-4 63 -26 91 t-74 28q-32 0 -57 -11t-39 -22z"/>
<glyph glyph-name="uni04DA" horiz-adv-x="521" unicode="Ӛ" d="M359 407q-2 44 -10 79.5t-23.5 60t-40.5 38t-62 13.5q-42 0 -74.5 -14.5t-52.5 -27.5l-28 110q14 9 33.5 17.5t43 15.5t48.5 11t51 4q61 0 107 -20.5t77 -65t47 -113.5t16 -165q0 -85 -13 -152.5t-42 -114.5t-74.5 -72t-111.5 -25q-58 0 -99.5 21t-68.5 59.5t-40 93 t-13 122.5q0 59 9 125h321zM160 301q-2 -12 -2 -24.5v-23.5q0 -33 5.5 -61.5t17.5 -50t30 -34t44 -12.5q55 0 79.5 50.5t24.5 155.5h-199zM276 798q0 26 15.5 42t51.5 16q37 0 52.5 -16t15.5 -42t-15.5 -41.5t-52.5 -15.5q-36 0 -51.5 15.5t-15.5 41.5zM94 798q0 26 15.5 42 t53.5 16q35 0 50.5 -16t15.5 -42t-15.5 -41.5t-50.5 -15.5q-38 0 -53.5 15.5t-15.5 41.5z"/>
<glyph glyph-name="uni04DB" horiz-adv-x="420" unicode="ӛ" d="M200 89q37 0 57 33q19 31 19 86v5h-140q-1 -10 -1 -20q0 -41 14 -69q17 -34 51 -35zM39 465q26 21 69.5 34.5t92.5 13.5q100 0 147 -69.5t47 -193.5q0 -133 -52.5 -198t-142.5 -65q-33 0 -64.5 10.5t-56 34.5t-39 63t-14.5 97q0 22 2.5 47t7.5 53h240q-4 63 -26 91 t-74 28q-32 0 -57 -11t-39 -22zM235 632q0 32 17 50t46 18t46 -18t17 -50q0 -30 -17 -47.5t-46 -17.5t-46 17.5t-17 47.5zM49 632q0 32 17.5 50t46.5 18q28 0 45 -18t17 -50q0 -30 -17 -47.5t-45 -17.5q-29 0 -46.5 17.5t-17.5 47.5z"/>
<glyph glyph-name="uni04DC" horiz-adv-x="701" unicode="Ӝ" d="M287 700h119v-313l29 14l105 299h141l-125 -308l-40 -33l49 -41l141 -318h-152l-117 305h-31v-305h-119v317l-28 -14l-118 -303h-146l140 308l46 38l-45 36l-130 318h146l104 -301h31v301zM373 798q0 26 15.5 42t51.5 16q37 0 52.5 -16t15.5 -42t-15.5 -41.5t-52.5 -15.5 q-36 0 -51.5 15.5t-15.5 41.5zM191 798q0 26 15.5 42t53.5 16q35 0 50.5 -16t15.5 -42t-15.5 -41.5t-50.5 -15.5q-38 0 -53.5 15.5t-15.5 41.5z"/>
<glyph glyph-name="uni04DD" horiz-adv-x="582" unicode="ӝ" d="M201 203l-73 -203h-132l100 229l29 30l-42 38l-78 203h126l67 -203h34v203h113v-213l30 14l67 199h126l-83 -203l-33 -32l42 -40l92 -225h-135l-73 207h-33v-207h-113v217zM321 632q0 32 17 50t46 18t46 -18t17 -50q0 -30 -17 -47.5t-46 -17.5t-46 17.5t-17 47.5z M135 632q0 32 17.5 50t46.5 18q28 0 45 -18t17 -50q0 -30 -17 -47.5t-45 -17.5q-29 0 -46.5 17.5t-17.5 47.5z"/>
<glyph glyph-name="uni04DE" horiz-adv-x="435" unicode="Ӟ" d="M98 313v102h24q15 0 37 1t35 6q27 8 46 30t19 57q0 49 -23.5 68t-65.5 19q-34 0 -63.5 -10.5t-46.5 -21.5l-32 109q10 6 28 13t40.5 13t48 9.5t51.5 3.5q38 0 73.5 -7.5t62.5 -27t43 -53.5t16 -87q0 -51 -21.5 -95t-69.5 -65v-6q52 -14 80.5 -56t28.5 -114 q0 -57 -18.5 -98t-50 -67t-72.5 -38t-85 -12q-54 0 -99 9.5t-72 25.5l33 112q19 -11 52.5 -21t78.5 -10q41 0 71 26.5t30 83.5q0 49 -27.5 73.5t-96.5 26.5q-11 0 -15 0.5t-17 0.5h-23zM224 798q0 26 15.5 42t51.5 16q37 0 52.5 -16t15.5 -42t-15.5 -41.5t-52.5 -15.5 q-36 0 -51.5 15.5t-15.5 41.5zM42 798q0 26 15.5 42t53.5 16q35 0 50.5 -16t15.5 -42t-15.5 -41.5t-50.5 -15.5q-38 0 -53.5 15.5t-15.5 41.5z"/>
<glyph glyph-name="uni04DF" horiz-adv-x="354" unicode="ӟ" d="M85 208v89h48q27 0 44 16t17 39q0 50 -62 50q-30 0 -53 -8t-37 -17l-27 95q26 15 68 25.5t87 10.5q143 0 143 -124q0 -37 -16 -69.5t-48 -46.5v-4q42 -12 61 -42t19 -81q0 -32 -10.5 -59.5t-32.5 -47.5t-55.5 -32t-79.5 -12q-45 0 -79.5 9.5t-57.5 23.5l24 97 q19 -11 44.5 -17.5t54.5 -6.5q73 0 73 59q0 25 -18.5 39t-68.5 14h-38zM192 632q0 32 17 50t46 18t46 -18t17 -50q0 -30 -17 -47.5t-46 -17.5t-46 17.5t-17 47.5zM6 632q0 32 17.5 50t46.5 18q28 0 45 -18t17 -50q0 -30 -17 -47.5t-45 -17.5q-29 0 -46.5 17.5t-17.5 47.5z "/>
<glyph glyph-name="uni04E0" horiz-adv-x="452" unicode="Ӡ" d="M180 102q51 0 80 30.5t29 84.5q0 56 -32.5 80t-101.5 24h-66v56l125 181l39 43l-50 -12h-165v111h358v-72l-135 -194l-40 -32v-5l40 12q34 -1 63 -13t50.5 -35.5t34 -59t12.5 -84.5q0 -109 -60 -170t-169 -61q-19 0 -41.5 2t-45 6.5t-43.5 11.5t-37 17l30 112 q24 -14 57.5 -23.5t67.5 -9.5z"/>
<glyph glyph-name="uni04E1" horiz-adv-x="403" unicode="ӡ" d="M152 -105q49 0 79.5 30t30.5 82q0 115 -132 115h-50v51l96 180l46 48l-62 -7h-140v106h335v-67l-111 -188l-39 -29v-2l30 3q27 -2 53 -15t46.5 -37.5t33.5 -60t13 -81.5q0 -55 -16.5 -98.5t-46.5 -73.5t-72.5 -46t-95.5 -16q-35 0 -73.5 8t-68.5 28l40 99 q21 -13 46.5 -21t57.5 -8z"/>
<glyph glyph-name="uni04E2" horiz-adv-x="547" unicode="Ӣ" d="M376 373l10 99h-5l-38 -106l-199 -366h-99v700h126v-366l-11 -102h5l40 109l199 359h98v-700h-126v373zM133 856h289v-89h-289v89z"/>
<glyph glyph-name="uni04E3" horiz-adv-x="450" unicode="ӣ" d="M288 218l9 81h-3l-37 -85l-134 -214h-80v500h119v-227l-9 -78h3l36 83l135 222h80v-500h-119v218zM91 658h272v-91h-272v91z"/>
<glyph glyph-name="uni04E4" horiz-adv-x="547" unicode="Ӥ" d="M376 373l10 99h-5l-38 -106l-199 -366h-99v700h126v-366l-11 -102h5l40 109l199 359h98v-700h-126v373zM299 798q0 26 15.5 42t51.5 16q37 0 52.5 -16t15.5 -42t-15.5 -41.5t-52.5 -15.5q-36 0 -51.5 15.5t-15.5 41.5zM117 798q0 26 15.5 42t53.5 16q35 0 50.5 -16 t15.5 -42t-15.5 -41.5t-50.5 -15.5q-38 0 -53.5 15.5t-15.5 41.5z"/>
<glyph glyph-name="uni04E5" horiz-adv-x="450" unicode="ӥ" d="M288 218l9 81h-3l-37 -85l-134 -214h-80v500h119v-227l-9 -78h3l36 83l135 222h80v-500h-119v218zM261 632q0 32 17 50t46 18t46 -18t17 -50q0 -30 -17 -47.5t-46 -17.5t-46 17.5t-17 47.5zM75 632q0 32 17.5 50t46.5 18q28 0 45 -18t17 -50q0 -30 -17 -47.5t-45 -17.5 q-29 0 -46.5 17.5t-17.5 47.5z"/>
<glyph glyph-name="uni04E6" horiz-adv-x="553" unicode="Ӧ" d="M161 350q0 -53 6 -98.5t20 -78.5t35.5 -52t53.5 -19q58 0 87 59t29 189q0 51 -6 96.5t-19.5 79t-35.5 53t-55 19.5q-115 0 -115 -248zM29 350q0 178 61 271t186 93q65 0 112 -25.5t77 -73t44.5 -115t14.5 -150.5q0 -178 -62.5 -271t-185.5 -93q-66 0 -112.5 25.5 t-76.5 73t-44 115t-14 150.5zM300 798q0 26 15.5 42t51.5 16q37 0 52.5 -16t15.5 -42t-15.5 -41.5t-52.5 -15.5q-36 0 -51.5 15.5t-15.5 41.5zM118 798q0 26 15.5 42t53.5 16q35 0 50.5 -16t15.5 -42t-15.5 -41.5t-50.5 -15.5q-38 0 -53.5 15.5t-15.5 41.5z"/>
<glyph glyph-name="uni04E7" horiz-adv-x="445" unicode="ӧ" d="M148 250q0 -75 17 -116t57 -41q38 0 56.5 35.5t18.5 121.5q0 77 -17 117t-58 40q-35 0 -54.5 -35.5t-19.5 -121.5zM25 250q0 133 52 198t145 65q100 0 149 -66t49 -197q0 -134 -52 -198.5t-146 -64.5q-197 0 -197 263zM252 632q0 32 17 50t46 18t46 -18t17 -50 q0 -30 -17 -47.5t-46 -17.5t-46 17.5t-17 47.5zM66 632q0 32 17.5 50t46.5 18q28 0 45 -18t17 -50q0 -30 -17 -47.5t-45 -17.5q-29 0 -46.5 17.5t-17.5 47.5z"/>
<glyph glyph-name="uni04E8" horiz-adv-x="552" unicode="Ө" d="M391 405q-3 42 -10.5 77t-21.5 61t-34.5 40.5t-48.5 14.5q-103 0 -115 -193h230zM276 102q52 0 81.5 47t34.5 150h-231q3 -44 10.5 -80t21.5 -62t34.5 -40.5t48.5 -14.5zM29 350q0 178 61 271t186 93q65 0 112 -25.5t77 -73t44 -115t14 -150.5q0 -178 -62 -271t-185 -93 q-66 0 -112.5 25.5t-76.5 73t-44 115t-14 150.5z"/>
<glyph glyph-name="uni04E9" horiz-adv-x="445" unicode="ө" d="M148 208q3 -61 24 -88.5t50 -27.5t50 24.5t25 91.5h-149zM297 289q-5 66 -24 92.5t-50 26.5q-29 0 -50 -25.5t-25 -93.5h149zM25 250q0 129 51.5 196.5t145.5 67.5q50 0 87 -18.5t62 -53t37 -83t12 -109.5q0 -130 -52 -197t-146 -67q-50 0 -87 18.5t-61.5 53t-36.5 83 t-12 109.5z"/>
<glyph glyph-name="uni04EA" horiz-adv-x="552" unicode="Ӫ" d="M391 405q-3 42 -10.5 77t-21.5 61t-34.5 40.5t-48.5 14.5q-103 0 -115 -193h230zM276 102q52 0 81.5 47t34.5 150h-231q3 -44 10.5 -80t21.5 -62t34.5 -40.5t48.5 -14.5zM29 350q0 178 61 271t186 93q65 0 112 -25.5t77 -73t44 -115t14 -150.5q0 -178 -62 -271t-185 -93 q-66 0 -112.5 25.5t-76.5 73t-44 115t-14 150.5zM300 798q0 26 15.5 42t51.5 16q37 0 52.5 -16t15.5 -42t-15.5 -41.5t-52.5 -15.5q-36 0 -51.5 15.5t-15.5 41.5zM118 798q0 26 15.5 42t53.5 16q35 0 50.5 -16t15.5 -42t-15.5 -41.5t-50.5 -15.5q-38 0 -53.5 15.5 t-15.5 41.5z"/>
<glyph glyph-name="uni04EB" horiz-adv-x="445" unicode="ӫ" d="M148 208q3 -61 24 -88.5t50 -27.5t50 24.5t25 91.5h-149zM297 289q-5 66 -24 92.5t-50 26.5q-29 0 -50 -25.5t-25 -93.5h149zM25 250q0 129 51.5 196.5t145.5 67.5q50 0 87 -18.5t62 -53t37 -83t12 -109.5q0 -130 -52 -197t-146 -67q-50 0 -87 18.5t-61.5 53t-36.5 83 t-12 109.5zM252 632q0 32 17 50t46 18t46 -18t17 -50q0 -30 -17 -47.5t-46 -17.5t-46 17.5t-17 47.5zM66 632q0 32 17.5 50t46.5 18q28 0 45 -18t17 -50q0 -30 -17 -47.5t-45 -17.5q-29 0 -46.5 17.5t-17.5 47.5z"/>
<glyph glyph-name="uni04EC" horiz-adv-x="477" unicode="Ӭ" d="M105 407h211q-2 42 -10.5 77t-26 60.5t-43 39.5t-61.5 14q-43 0 -75.5 -10.5t-55.5 -24.5l-29 109q32 19 78 30.5t89 11.5q60 0 109.5 -19.5t84 -62.5t53.5 -112.5t19 -168.5q0 -106 -22 -176.5t-60.5 -112.5t-89 -59t-107.5 -17q-49 0 -90.5 10t-64.5 22l33 112 q20 -10 53 -19t74 -9q66 0 102 48.5t41 152.5h-212v104zM218 798q0 26 15.5 42t51.5 16q37 0 52.5 -16t15.5 -42t-15.5 -41.5t-52.5 -15.5q-36 0 -51.5 15.5t-15.5 41.5zM36 798q0 26 15.5 42t53.5 16q35 0 50.5 -16t15.5 -42t-15.5 -41.5t-50.5 -15.5q-38 0 -53.5 15.5 t-15.5 41.5z"/>
<glyph glyph-name="uni04ED" horiz-adv-x="377" unicode="ӭ" d="M85 298h144q-3 54 -22.5 82t-63.5 28q-31 0 -54 -6.5t-40 -17.5l-32 90q54 40 149 40q92 0 139 -65t47 -199t-51.5 -198.5t-145.5 -64.5q-37 0 -76.5 7.5t-63.5 21.5l28 99q41 -22 94 -22q49 0 69.5 27.5t22.5 87.5h-144v90zM194 632q0 32 17 50t46 18t46 -18t17 -50 q0 -30 -17 -47.5t-46 -17.5t-46 17.5t-17 47.5zM8 632q0 32 17.5 50t46.5 18q28 0 45 -18t17 -50q0 -30 -17 -47.5t-45 -17.5q-29 0 -46.5 17.5t-17.5 47.5z"/>
<glyph glyph-name="uni04EE" horiz-adv-x="475" unicode="Ӯ" d="M246 395l15 -93h5l13 96l79 302h130l-156 -484q-18 -57 -34 -98.5t-35 -69.5t-42.5 -41.5t-57.5 -13.5q-27 0 -46.5 5t-40.5 19l31 106q14 -8 25 -10.5t23 -3.5q37 0 51 76l-216 515h149zM105 856h289v-89h-289v89z"/>
<glyph glyph-name="uni04EF" horiz-adv-x="400" unicode="ӯ" d="M203 219l13 -78h5l9 79l58 280h122l-125 -451q-17 -59 -32 -106t-32 -80t-38.5 -50.5t-51.5 -17.5q-21 0 -40.5 3.5t-33.5 11.5l20 102q13 -5 26.5 -4.5t25 10t20.5 29.5t15 53l-174 500h143zM68 658h272v-91h-272v91z"/>
<glyph glyph-name="uni04F0" horiz-adv-x="475" unicode="Ӱ" d="M246 395l15 -93h5l13 96l79 302h130l-156 -484q-18 -57 -34 -98.5t-35 -69.5t-42.5 -41.5t-57.5 -13.5q-27 0 -46.5 5t-40.5 19l31 106q14 -8 25 -10.5t23 -3.5q37 0 51 76l-216 515h149zM278 798q0 26 15.5 42t51.5 16q37 0 52.5 -16t15.5 -42t-15.5 -41.5t-52.5 -15.5 q-36 0 -51.5 15.5t-15.5 41.5zM96 798q0 26 15.5 42t53.5 16q35 0 50.5 -16t15.5 -42t-15.5 -41.5t-50.5 -15.5q-38 0 -53.5 15.5t-15.5 41.5z"/>
<glyph glyph-name="uni04F1" horiz-adv-x="400" unicode="ӱ" d="M203 219l13 -78h5l9 79l58 280h122l-125 -451q-17 -59 -32 -106t-32 -80t-38.5 -50.5t-51.5 -17.5q-21 0 -40.5 3.5t-33.5 11.5l20 102q13 -5 26.5 -4.5t25 10t20.5 29.5t15 53l-174 500h143zM239 632q0 32 17 50t46 18t46 -18t17 -50q0 -30 -17 -47.5t-46 -17.5 t-46 17.5t-17 47.5zM53 632q0 32 17.5 50t46.5 18q28 0 45 -18t17 -50q0 -30 -17 -47.5t-45 -17.5q-29 0 -46.5 17.5t-17.5 47.5z"/>
<glyph glyph-name="uni04F2" horiz-adv-x="475" unicode="Ӳ" d="M246 395l15 -93h5l13 96l79 302h130l-156 -484q-18 -57 -34 -98.5t-35 -69.5t-42.5 -41.5t-57.5 -13.5q-27 0 -46.5 5t-40.5 19l31 106q14 -8 25 -10.5t23 -3.5q37 0 51 76l-216 515h149zM334 850h125v-16l-118 -93h-86zM162 850h120v-16l-82 -93h-86z"/>
<glyph glyph-name="uni04F3" horiz-adv-x="400" unicode="ӳ" d="M203 219l13 -78h5l9 79l58 280h122l-125 -451q-17 -59 -32 -106t-32 -80t-38.5 -50.5t-51.5 -17.5q-21 0 -40.5 3.5t-33.5 11.5l20 102q13 -5 26.5 -4.5t25 10t20.5 29.5t15 53l-174 500h143zM283 700h114v-16l-99 -113h-75zM129 700h108v-16l-64 -113h-73z"/>
<glyph glyph-name="uni04F4" horiz-adv-x="503" unicode="Ӵ" d="M160 700v-230q0 -62 18 -88.5t59 -26.5q29 0 54.5 9t40.5 26v310h126v-700h-126v282q-20 -14 -55.5 -26.5t-83.5 -12.5q-33 0 -62 9.5t-50.5 31t-34 57t-12.5 88.5v271h126zM274 798q0 26 15.5 42t51.5 16q37 0 52.5 -16t15.5 -42t-15.5 -41.5t-52.5 -15.5 q-36 0 -51.5 15.5t-15.5 41.5zM92 798q0 26 15.5 42t53.5 16q35 0 50.5 -16t15.5 -42t-15.5 -41.5t-50.5 -15.5q-38 0 -53.5 15.5t-15.5 41.5z"/>
<glyph glyph-name="uni04F5" horiz-adv-x="419" unicode="ӵ" d="M143 500v-134q0 -53 9.5 -76.5t41.5 -23.5q22 0 37.5 6.5t25.5 14.5v213h119v-500h-119v194q-12 -10 -37 -22t-67 -12q-30 0 -54 7.5t-40.5 26.5t-25.5 50t-9 78v178h119zM232 632q0 32 17 50t46 18t46 -18t17 -50q0 -30 -17 -47.5t-46 -17.5t-46 17.5t-17 47.5zM46 632 q0 32 17.5 50t46.5 18q28 0 45 -18t17 -50q0 -30 -17 -47.5t-45 -17.5q-29 0 -46.5 17.5t-17.5 47.5z"/>
<glyph glyph-name="uni04F6" horiz-adv-x="381" unicode="Ӷ" d="M388 584h-217v-468h76v-241h-89l-12 125h-101v700h343v-116z"/>
<glyph glyph-name="uni04F7" horiz-adv-x="310" unicode="ӷ" d="M43 500h271v-109h-152v-282h75v-223h-88l-13 114h-93v500z"/>
<glyph glyph-name="uni04F8" horiz-adv-x="668" unicode="Ӹ" d="M171 112q8 -3 20 -4.5t25 -1.5q45 0 70 27.5t25 94.5q0 34 -7 56t-19 35t-29.5 17.5t-38.5 4.5q-10 0 -25 -3t-21 -6v-220zM45 700h126v-251q9 2 30 5t41 3q42 0 78.5 -9.5t63.5 -34.5t43 -68.5t16 -110.5q0 -123 -56 -183.5t-180 -60.5q-12 0 -31 0.5t-41.5 2t-46 5 t-43.5 8.5v694zM497 700h126v-700h-126v700zM358 798q0 26 15.5 42t51.5 16q37 0 52.5 -16t15.5 -42t-15.5 -41.5t-52.5 -15.5q-36 0 -51.5 15.5t-15.5 41.5zM176 798q0 26 15.5 42t53.5 16q35 0 50.5 -16t15.5 -42t-15.5 -41.5t-50.5 -15.5q-38 0 -53.5 15.5t-15.5 41.5z "/>
<glyph glyph-name="uni04F9" horiz-adv-x="591" unicode="ӹ" d="M430 500h119v-500h-119v500zM162 322q20 4 41 5.5t38 1.5q41 0 69 -11.5t45 -32.5t24.5 -49.5t7.5 -61.5q0 -45 -10 -79t-33 -56.5t-60 -34t-92 -11.5q-48 0 -84.5 2t-64.5 5v500h119v-178zM162 105q21 -6 43 -6q32 0 45.5 16.5t13.5 54.5q0 35 -13 52t-45 17 q-23 0 -44 -6v-128zM325 632q0 32 17 50t46 18t46 -18t17 -50q0 -30 -17 -47.5t-46 -17.5t-46 17.5t-17 47.5zM139 632q0 32 17.5 50t46.5 18q28 0 45 -18t17 -50q0 -30 -17 -47.5t-45 -17.5q-29 0 -46.5 17.5t-17.5 47.5z"/>
<glyph glyph-name="uni04FC" horiz-adv-x="525" unicode="Ӽ" d="M368 -22q0 34 -11.5 66.5t-22.5 55.5l-53 115l-23 78l-19 -78l-94 -215h-139l171 356l-154 344h151l81 -200l19 -76l18 76l85 200h136l-160 -337l102 -213q20 -39 31.5 -84.5t11.5 -88.5q0 -90 -35.5 -137t-107.5 -47q-29 0 -58 7v106q6 -1 12 -1q14 0 26 4.5t19.5 14.5 t10.5 24t3 30z"/>
<glyph glyph-name="uni04FD" horiz-adv-x="438" unicode="ӽ" d="M377 128q17 -32 29 -74t12 -79q0 -88 -33 -134.5t-103 -46.5q-29 0 -58 7v102q9 -1 17 -1q29 0 43.5 16.5t14.5 49.5q0 27 -9.5 54t-20.5 47l-27 51l-25 76l-24 -75l-59 -121h-130l129 256l-119 244h142l48 -107l21 -77l22 77l51 107h130l-120 -240z"/>
<glyph glyph-name="uni0510" horiz-adv-x="442" unicode="Ԑ" d="M318 313h-17.5t-14.5 -1q-70 -2 -97.5 -29.5t-27.5 -75.5q0 -52 29 -78.5t75 -26.5q39 0 72.5 11.5t51.5 21.5l34 -102q-24 -17 -71.5 -32t-104.5 -15q-102 0 -160 50.5t-58 159.5q0 73 28.5 116t79.5 57v6q-46 21 -68 65.5t-22 96.5q0 49 16.5 82.5t44 54t64 29.5 t76.5 9q26 0 50.5 -3.5t46 -9.5t38.5 -13t27 -13l-32 -105q-20 11 -49.5 19.5t-59.5 8.5q-44 0 -67 -19t-23 -63q0 -40 21 -62t48 -29q13 -5 34 -7t36 -2h22v-101h-22z"/>
<glyph glyph-name="uni0511" horiz-adv-x="355" unicode="ԑ" d="M230 210q-50 0 -68 -14.5t-18 -40.5t18 -43t53 -17q31 0 56.5 7t42.5 18l24 -97q-21 -14 -55.5 -24t-81.5 -10q-46 0 -79 11t-54.5 31.5t-32 48t-10.5 60.5q0 51 19.5 80t60.5 43v4q-33 14 -49 46t-16 67q0 64 39 96.5t105 32.5q52 0 90 -9.5t64 -24.5l-26 -96 q-17 9 -40 16.5t-52 7.5q-60 0 -60 -53q0 -23 17 -38t44 -15h48v-87h-39z"/>
<glyph glyph-name="uni0512" horiz-adv-x="523" unicode="Ԓ" d="M478 -30q0 -177 -134 -177q-25 0 -55 6v106q6 -1 11 -1q13 0 24 4.5t17.5 16.5t8.5 30.5t2 44.5v584h-108q-3 -95 -7.5 -174t-11.5 -142.5t-18.5 -112.5t-28.5 -83q-12 -24 -26.5 -39.5t-30.5 -24t-31.5 -12t-28.5 -3.5q-21 0 -40 4t-33 11l18 113q10 -3 20 -3 q8 0 20.5 3t28.5 32q12 22 21 64.5t15.5 109.5t10 159t5.5 214h351v-730z"/>
<glyph glyph-name="uni0513" horiz-adv-x="433" unicode="ԓ" d="M271 391h-72q-4 -87 -11 -160t-22 -125.5t-40.5 -82t-66.5 -29.5q-25 0 -43 3.5t-31 11.5l14 104q11 -4 21 -4q11 0 23.5 7t23.5 47.5t17.5 120.5t9.5 216h296v-500v-31q0 -84 -31 -129.5t-100 -45.5q-13 0 -27.5 1.5t-30.5 5.5v103q6 -1 11 -1q34 0 45 22q13 22 14 75 v391z"/>
<glyph glyph-name="uni051C" horiz-adv-x="717" unicode="Ԝ" d="M205 315l10 -126h4l11 128l94 383h88l91 -385l11 -126h4l11 128l62 383h128l-157 -705h-89l-98 386l-13 109h-5l-12 -110l-98 -385h-93l-156 705h139z"/>
<glyph glyph-name="uni051D" horiz-adv-x="596" unicode="ԝ" d="M352 500l70 -256l12 -83h4l10 84l47 255h108l-123 -505h-94l-75 279l-8 64h-6l-7 -66l-72 -277h-97l-128 505h129l54 -251l9 -89h4l13 90l61 250h89z"/>
<glyph glyph-name="uni0524" horiz-adv-x="566" unicode="Ԥ" d="M353 584h-182v-584h-126v700h434v-584h73v-241h-89l-12 125h-98v584z"/>
<glyph glyph-name="uni0525" horiz-adv-x="475" unicode="ԥ" d="M278 391h-116v-391h-119v500h354v-391h67v-223h-88l-13 114h-85v391z"/>
<glyph glyph-name="uni0526" horiz-adv-x="554" unicode="Ԧ" d="M344 227q0 60 -17 89.5t-60 29.5q-29 0 -54.5 -9t-41.5 -25v-312h-126v700h126v-282q21 14 57 27t86 13q35 0 64 -10t49.5 -33t31.5 -59.5t11 -89.5v-150h73v-241h-89l-12 125h-98v227z"/>
<glyph glyph-name="uni0527" horiz-adv-x="486" unicode="ԧ" d="M291 302q0 54 -12.5 78t-45.5 24q-24 0 -44 -17t-27 -43v-344h-119v700h119v-245h3q20 26 48.5 42t71.5 16q31 0 54 -9t39 -30t24 -56.5t8 -89.5v-219h64v-223h-88l-13 114h-82v302z"/>
<glyph glyph-name="endash" horiz-adv-x="543" unicode="–" d="M87 343h368v-109h-368v109z"/>
<glyph glyph-name="emdash" horiz-adv-x="676" unicode="—" d="M88 343h499v-109h-499v109z"/>
<glyph glyph-name="quoteleft" horiz-adv-x="188" unicode="‘" d="M159 618q0 -29 -17.5 -46.5t-43.5 -17.5q-32 0 -50.5 23.5t-18.5 61.5q0 39 11 67t27 47t32.5 30t28.5 16l32 -51q-17 -9 -30.5 -27t-15.5 -39q17 -2 31 -18.5t14 -45.5z"/>
<glyph glyph-name="quoteright" horiz-adv-x="188" unicode="’" d="M29 644q0 29 17.5 47t43.5 18q32 0 50.5 -22.5t18.5 -62.5q0 -39 -11 -66t-26.5 -45.5t-32.5 -29.5t-29 -16l-30 50q17 8 30 24t15 39q-17 1 -31.5 16.5t-14.5 47.5z"/>
<glyph glyph-name="quotesinglbase" horiz-adv-x="188" unicode="‚" d="M29 62q0 29 17.5 47t43.5 18q32 0 50.5 -22.5t18.5 -62.5q0 -39 -11 -66t-26.5 -45.5t-32.5 -29.5t-29 -16l-30 50q17 8 30 24t15 39q-17 1 -31.5 16.5t-14.5 47.5z"/>
<glyph glyph-name="quotedblleft" horiz-adv-x="342" unicode="“" d="M312 618q0 -29 -17.5 -46.5t-43.5 -17.5q-32 0 -50.5 23.5t-18.5 61.5q0 39 11 67t27 47t32.5 30t28.5 16l32 -51q-17 -9 -30.5 -27t-15.5 -39q17 -2 31 -18.5t14 -45.5zM159 618q0 -29 -17.5 -46.5t-43.5 -17.5q-32 0 -50.5 23.5t-18.5 61.5q0 39 11 67t27 47t32.5 30 t28.5 16l32 -51q-17 -9 -30.5 -27t-15.5 -39q17 -2 31 -18.5t14 -45.5z"/>
<glyph glyph-name="quotedblright" horiz-adv-x="342" unicode="”" d="M182 644q0 29 17.5 47t43.5 18q32 0 50.5 -22.5t18.5 -62.5q0 -39 -11 -66t-26.5 -45.5t-32.5 -29.5t-29 -16l-30 50q17 8 30 24t15 39q-17 1 -31.5 16.5t-14.5 47.5zM29 644q0 29 17.5 47t43.5 18q32 0 50.5 -22.5t18.5 -62.5q0 -39 -11 -66t-26.5 -45.5t-32.5 -29.5 t-29 -16l-30 50q17 8 30 24t15 39q-17 1 -31.5 16.5t-14.5 47.5z"/>
<glyph glyph-name="dagger" horiz-adv-x="424" unicode="†" d="M33 509h92l44 -15l-14 53v153h114v-153l-14 -53l44 15h92v-104h-93l-43 15l14 -49v-371l-14 -200h-86l-14 201v370l14 49l-44 -15h-92v104z"/>
<glyph glyph-name="daggerdbl" horiz-adv-x="424" unicode="‡" d="M155 375l14 45l-44 -15h-92v104h92l44 -15l-14 50v156h114v-156l-14 -50l44 15h92v-104h-93l-43 15l14 -45v-92l-14 -45l43 15h93v-104h-92l-44 15l14 -50v-114l-15 -200h-84l-15 201v113l14 50l-44 -15h-92v104h92l44 -15l-14 45v92z"/>
<glyph glyph-name="ellipsis" horiz-adv-x="721" unicode="…" d="M45 65q0 37 19.5 56t51.5 19q35 0 54 -19t19 -56q0 -36 -19.5 -56t-53.5 -20q-33 0 -52 20t-19 56zM292 65q0 37 19.5 56t51.5 19q35 0 54 -19t19 -56q0 -36 -19.5 -56t-53.5 -20q-33 0 -52 20t-19 56zM538 65q0 37 19.5 56t51.5 19q35 0 54 -19t19 -56q0 -36 -19.5 -56 t-53.5 -20q-33 0 -52 20t-19 56z"/>
<glyph glyph-name="perthousand" horiz-adv-x="1054" unicode="‰" d="M140 542q0 -48 10.5 -67.5t33.5 -19.5q12 0 20.5 3.5t14 13.5t8 27t2.5 43q0 51 -11 69t-34 18t-33.5 -18t-10.5 -69zM34 542q0 46 11 78t31 52.5t47.5 30t60.5 9.5t60.5 -8.5t47.5 -28.5t31.5 -52.5t11.5 -80.5t-11.5 -80.5t-31.5 -52.5t-47.5 -28.5t-60.5 -8.5 t-60.5 8.5t-47.5 28.5t-31 52.5t-11 80.5zM486 171q0 -48 10.5 -67.5t33.5 -19.5q12 0 20.5 3.5t14 13.5t8 27t2.5 43q0 51 -11 69t-34 18t-33.5 -18t-10.5 -69zM380 171q0 46 11 78t31 52.5t47.5 30t60.5 9.5t60.5 -8.5t47.5 -28.5t31.5 -52.5t11.5 -80.5t-11.5 -80.5 t-31.5 -52.5t-47.5 -28.5t-60.5 -8.5t-60.5 8.5t-47.5 28.5t-31 52.5t-11 80.5zM816 171q0 -48 10.5 -67.5t33.5 -19.5q12 0 20.5 3.5t14 13.5t8 27t2.5 43q0 51 -11 69t-34 18t-33.5 -18t-10.5 -69zM710 171q0 46 11 78t31 52.5t47.5 30t60.5 9.5t60.5 -8.5t47.5 -28.5 t31.5 -52.5t11.5 -80.5t-11.5 -80.5t-31.5 -52.5t-47.5 -28.5t-60.5 -8.5t-60.5 8.5t-47.5 28.5t-31 52.5t-11 80.5zM575 714l70 -58l-494 -670l-71 59z"/>
<glyph glyph-name="guilsinglleft" horiz-adv-x="256" unicode="‹" d="M22 259l131 230l73 -47l-73 -141l-39 -41l39 -36l80 -135l-75 -51z"/>
<glyph glyph-name="guilsinglright" horiz-adv-x="256" unicode="›" d="M98 38l-75 51l80 135l39 36l-39 41l-73 141l73 47l131 -230z"/>
<glyph glyph-name="fraction" horiz-adv-x="154" unicode="⁄" d="M209 715l81 -39l-342 -690l-83 41z"/>
<glyph glyph-name="uni2081" horiz-adv-x="353" unicode="₁" d="M64 -5h78v168l9 46l-26 -32l-46 -31l-44 69l131 112h82v-332h70v-95h-254v95z"/>
<glyph glyph-name="uni2082" horiz-adv-x="353" unicode="₂" d="M299 204q0 -30 -7.5 -56.5t-19.5 -50t-28 -44.5t-33 -40l-39 -25l48 7h90v-95h-265v67q23 18 49.5 43.5t49 54t37 58t14.5 57.5q0 51 -46 51q-22 0 -41 -6.5t-34 -15.5l-29 83q29 20 63 27.5t63 7.5q60 0 94 -31.5t34 -91.5z"/>
<glyph glyph-name="uni2083" horiz-adv-x="353" unicode="₃" d="M144 -16q36 0 50.5 15t14.5 39q0 23 -15.5 36.5t-55.5 13.5h-39v38l60 81l38 28l-50 -6h-93v91h240v-60l-70 -94l-30 -19l26 -1q43 -2 67.5 -31.5t24.5 -83.5q0 -36 -12.5 -62t-33.5 -43t-48 -25t-58 -8q-32 0 -61 6.5t-50 17.5l21 86q37 -19 74 -19z"/>
<glyph glyph-name="uni2084" horiz-adv-x="352" unicode="₄" d="M189 150l7 55h-5l-19 -51l-38 -65l-30 -30l43 7h42v84zM345 -20h-61v-80h-95v80h-172v64l178 281h89v-259h61v-86z"/>
<glyph glyph-name="Euro" horiz-adv-x="478" unicode="€" d="M465 24q-26 -19 -66.5 -28t-77.5 -9q-55 0 -100.5 21t-78.5 65.5t-52 112.5q-6 23 -10 48h-77l29 91h40v25v33h-69l29 91h50q4 23 11 44q21 70 56.5 113.5t81 63t95.5 19.5q42 0 74.5 -7t55.5 -16l-32 -100q-35 16 -95 16q-66 0 -105 -61q-18 -28 -28 -72h208l-23 -91 h-196v-33v-25h179l-23 -91h-146q9 -44 27 -75q37 -65 116 -65q63 0 103 26z"/>
<glyph glyph-name="uni20B6" horiz-adv-x="478" unicode="₶" d="M253 604q-17 0 -30.5 -1t-21.5 -4v-234h39h6q18 0 34 5q18 6 31.5 20.5t21.5 38.5t8 59q0 62 -25 89t-63 27zM20 216h67v57h-67v90h67v330q35 8 72.5 12.5t80.5 4.5q45 0 85 -9t70 -33t48 -66t18 -108q0 -61 -17.5 -103t-46.5 -68.5t-66.5 -38t-78.5 -11.5h-51v-57h131 v-91h-131v-125h-114v125h-67v91z"/>
<glyph glyph-name="uni20BD" horiz-adv-x="478" unicode="₽" d="M253 604q-17 0 -30.5 -1t-21.5 -4v-234h39h6q18 0 34 5q18 6 31.5 20.5t21.5 38.5t8 59q0 62 -25 89t-63 27zM20 216h67v57h-67v90h67v330q35 8 72.5 12.5t80.5 4.5q45 0 85 -9t70 -33t48 -66t18 -108q0 -61 -17.5 -103t-46.5 -68.5t-66.5 -38t-78.5 -11.5h-51v-57h131 v-91h-131v-125h-114v125h-67v91z"/>
<glyph glyph-name="trademark" horiz-adv-x="801" unicode="™" d="M670 484l15 103h-5l-29 -85l-51 -117h-75l-52 114l-32 88h-5l21 -101v-146h-100v360h120l72 -143l18 -63h1l19 65l66 141h119v-360h-102v144zM330 594h-93v-254h-119v254h-93v106h305v-106z"/>
<glyph glyph-name="partialdiff" horiz-adv-x="451" unicode="∂" d="M237 397q-42 0 -70.5 -49t-28.5 -146q0 -50 17 -79.5t51 -29.5q30 0 50 23t32 61t17 87.5t5 102.5q-14 15 -30.5 22.5t-42.5 7.5zM226 503q33 0 50 -6.5t30 -17.5h5q-5 43 -23.5 71t-46 43t-54 19t-46.5 4q-12 0 -23 -1l20 99q12 1 24 1q49 0 97.5 -11.5t88.5 -47 t62.5 -98t22.5 -159.5q0 -109 -17 -187t-48.5 -128t-75 -73.5t-95.5 -23.5q-88 0 -135 55.5t-47 155.5q0 60 12.5 115t38.5 97t66 67.5t94 25.5z"/>
<glyph glyph-name="product" horiz-adv-x="532" unicode="∏" d="M365 587h-198v-787h-123v900h444v-900h-123v787z"/>
<glyph glyph-name="summation" d="M163 -48l-36 -39h296v-113h-403v113l149 301l32 34l-36 37l-145 302v113h403v-113h-284l39 -41l136 -290z" unicode="∑"/>
<glyph glyph-name="minus" d="M38 393h368v-106h-368v106z" unicode="−"/>
<glyph glyph-name="radical" d="M159 475l61 -170l18 -131h4l13 133l98 393h110l-190 -705h-64l-124 374h-88v106h162z" unicode="√"/>
<glyph glyph-name="infinity" horiz-adv-x="714" unicode="∞" d="M200 448q-29 0 -45.5 -29.5t-16.5 -69.5q0 -39 18.5 -66.5t47.5 -27.5q26 0 52 26t44 59q-17 45 -42 76.5t-58 31.5zM515 255q29 0 45 28t16 70q0 18 -3 35t-10.5 30.5t-19.5 21.5t-30 8q-25 0 -50.5 -22t-48.5 -60q9 -21 20 -41t24 -35.5t27.5 -25t29.5 -9.5zM347 264 q-30 -57 -72 -85t-94 -28q-31 0 -59 13.5t-49 38.5t-33.5 61.5t-12.5 83.5q0 49 12.5 87t34 64t51.5 39.5t65 13.5q62 0 103.5 -29.5t72.5 -74.5q37 55 79 79.5t93 24.5q32 0 59 -13t47 -38t31.5 -61.5t11.5 -83.5q0 -100 -48 -152.5t-123 -52.5q-60 0 -100 32t-69 81z"/>
<glyph glyph-name="approxequal" d="M23 473q39 38 71 52.5t59 14.5q24 0 45 -8t40 -18t37.5 -18t38.5 -8q15 0 30.5 6.5t32.5 21.5l44 -103q-30 -27 -55 -37.5t-47 -10.5q-23 0 -43.5 8.5t-40 19t-39 19.5t-40.5 9q-20 0 -42.5 -10.5t-49.5 -37.5zM23 280q39 38 71 52.5t59 14.5q24 0 45 -8t40 -18t37.5 -18 t38.5 -8q15 0 30.5 6.5t32.5 21.5l44 -103q-30 -27 -55 -37.5t-47 -10.5q-23 0 -43.5 8.5t-40 19t-39 19.5t-40.5 9q-20 0 -42.5 -10.5t-49.5 -37.5z" unicode="≈"/>
<glyph glyph-name="notequal" d="M38 489h187l42 114h103l-42 -114h78v-106h-117l-32 -86h149v-106h-188l-49 -134h-102l49 134h-78v106h117l31 86h-148v106z" unicode="≠"/>
<glyph glyph-name="lessequal" d="M29 413v70l311 222l60 -81l-186 -139l-75 -35l74 -31l191 -137l-60 -81zM404 80l-60 -85l-308 207l60 85z" unicode="≤"/>
<glyph glyph-name="greaterequal" d="M407 493v-70l-311 -222l-60 81l186 139l75 35l-74 31l-191 137l60 81zM406 205l-307 -210l-60 84l306 211z" unicode="≥"/>
<glyph glyph-name="lozenge" d="M249 203l62 131l-71 156l-21 85h-4l-22 -86l-60 -134l71 -154l21 -86h4zM256 -5h-72l-161 347l161 363h72l165 -358z" unicode="◊"/>
<glyph glyph-name="uni2C67" horiz-adv-x="575" unicode="Ⱨ" d="M362 296h-191v-296h-126v700h126v-288h191v288h126v-584h73v-241h-89l-12 125h-98v296z"/>
<glyph glyph-name="uni2C68" horiz-adv-x="486" unicode="ⱨ" d="M291 302q0 54 -12.5 78t-45.5 24q-24 0 -44 -17t-27 -43v-344h-119v700h119v-245h3q20 26 48.5 42t71.5 16q31 0 54 -9t39 -30t24 -56.5t8 -89.5v-219h64v-223h-88l-13 114h-82v302z"/>
<glyph glyph-name="uniF408" horiz-adv-x="420" unicode="" d="M169 870h87l104 -93v-39h-85l-47 41l-17 34l-18 -33l-50 -42h-83v40z"/>
<glyph glyph-name="uniF40D" horiz-adv-x="450" unicode="" d="M60 796q29 37 56 50.5t53 13.5q19 0 38 -5.5t37 -11.5l34.5 -11.5t32.5 -5.5q14 0 27 5.5t25 19.5l27 -63q-26 -29 -49.5 -39.5t-46.5 -10.5q-19 0 -37.5 5.5t-36 11.5t-34.5 11.5t-34 5.5t-33 -7t-33 -27z"/>
<glyph glyph-name="one.numerator" horiz-adv-x="353" unicode="" d="M146 544l8 46l-26 -33l-44 -31l-45 70l131 111h81v-427h-105v264z"/>
<glyph glyph-name="uniF6C9" horiz-adv-x="345" unicode="" d="M142 870h143v-30l-132 -88h-93z"/>
<glyph glyph-name="uniF6CA" horiz-adv-x="420" unicode="" d="M251 737h-87l-104 94v39h91l42 -45l17 -30l17 29l45 46h88v-40z"/>
<glyph glyph-name="uniF6CB" horiz-adv-x="437" unicode="" d="M242 798q0 26 15.5 42t51.5 16q37 0 52.5 -16t15.5 -42t-15.5 -41.5t-52.5 -15.5q-36 0 -51.5 15.5t-15.5 41.5zM60 798q0 26 15.5 42t53.5 16q35 0 50.5 -16t15.5 -42t-15.5 -41.5t-50.5 -15.5q-38 0 -53.5 15.5t-15.5 41.5z"/>
<glyph glyph-name="uniF6CE" horiz-adv-x="344" unicode="" d="M284 752h-94l-130 88v30h142z"/>
<glyph glyph-name="uniF6CF" horiz-adv-x="465" unicode="" d="M280 850h125v-16l-118 -93h-86zM108 850h120v-16l-82 -93h-86z"/>
<glyph glyph-name="uniF6D0" horiz-adv-x="409" unicode="" d="M60 856h289v-89h-289v89z"/>
<glyph glyph-name="uniF6D1" horiz-adv-x="448" unicode="" d="M174 874q6 -61 56 -61t56 60l102 -15q-8 -65 -49 -94t-110 -29q-35 0 -64 6t-51 20t-36 37t-18 58z"/>
<glyph glyph-name="uniF6D4" horiz-adv-x="411" unicode="" d="M161 704q3 -38 16 -55t33 -17q21 0 33.5 16.5t17.5 54.5l90 -22q-11 -68 -50.5 -99.5t-93.5 -31.5q-26 0 -51 7t-45 22.5t-33.5 40.5t-17.5 62z"/>
<glyph glyph-name="l.var" d="M49 700h119v-700h-119v700z" horiz-adv-x="217"/>
<glyph glyph-name="fraction.alt" d="M286 714l70 -58l-494 -670l-71 59z" horiz-adv-x="151"/>
</font>
</defs>
</svg>
